<svg width="25" height="24" viewBox="0 0 25 24" fill="none" xmlns="http://www.w3.org/2000/svg">
<g clip-path="url(#clip0_1092_1050)">
<path fill-rule="evenodd" clip-rule="evenodd" d="M1.70564 1.8V9.6H22.3564V1.8H1.70564ZM0.03125 1.62C0.03125 0.7253 0.705935 0 1.5382 0H22.5239C23.3562 0 24.0308 0.725328 24.0308 1.62V10.5C24.0308 10.9971 23.656 11.4 23.1936 11.4H0.868444C0.406074 11.4 0.03125 10.9971 0.03125 10.5V1.62Z" fill="#1D3054"/>
<path fill-rule="evenodd" clip-rule="evenodd" d="M17.8914 5.70005C17.8914 5.20299 18.2662 4.80005 18.7286 4.80005H19.8448C20.3072 4.80005 20.682 5.20299 20.682 5.70005C20.682 6.1971 20.3072 6.60005 19.8448 6.60005H18.7286C18.2662 6.60005 17.8914 6.1971 17.8914 5.70005Z" fill="#1D3054"/>
<path fill-rule="evenodd" clip-rule="evenodd" d="M0.623775 9.63938C1.06596 9.49413 1.53396 9.76173 1.66907 10.2371L2.55057 13.3384L2.55057 13.3384C2.72987 13.9692 3.27144 14.4001 3.88499 14.4001H5.33346C5.79583 14.4001 6.17065 14.803 6.17065 15.3001C6.17065 15.7971 5.79583 16.2001 5.33346 16.2001H3.88499C2.53515 16.2001 1.34371 15.2522 0.949269 13.8644C0.949268 13.8644 0.949266 13.8644 0.949265 13.8644L0.0677711 10.7631C-0.0673437 10.2877 0.181588 9.78463 0.623775 9.63938Z" fill="#1D3054"/>
<path fill-rule="evenodd" clip-rule="evenodd" d="M23.4382 9.63938C23.8804 9.78463 24.1294 10.2877 23.9942 10.7631L23.1127 13.8644C23.1127 13.8644 23.1127 13.8644 23.1127 13.8644C22.7183 15.2521 21.5269 16.2001 20.177 16.2001H18.7286C18.2662 16.2001 17.8914 15.7971 17.8914 15.3001C17.8914 14.803 18.2662 14.4001 18.7286 14.4001H20.177C20.7906 14.4001 21.3321 13.9692 21.5114 13.3384L21.5114 13.3384L22.3929 10.2371C22.5281 9.76173 22.996 9.49413 23.4382 9.63938Z" fill="#1D3054"/>
<path fill-rule="evenodd" clip-rule="evenodd" d="M9.24044 13.8C9.70281 13.8 10.0776 14.203 10.0776 14.7H9.24044C10.0776 14.7 10.0776 14.6998 10.0776 14.7L10.0776 14.7034L10.0776 14.7097L10.0775 14.7314C10.0773 14.7498 10.0771 14.776 10.0766 14.8094C10.0755 14.8762 10.0735 14.9722 10.0695 15.0931C10.0614 15.3348 10.0455 15.6773 10.0137 16.0873C9.95044 16.9033 9.82315 18.0051 9.56427 19.1183C9.30835 20.2188 8.90796 21.4016 8.26197 22.3275C7.59829 23.2788 6.63915 24 5.33353 24C4.87116 24 4.49634 23.5971 4.49634 23.1C4.49634 22.603 4.87116 22.2 5.33353 22.2C5.98136 22.2 6.48731 21.8713 6.92246 21.2475C7.37528 20.5985 7.70743 19.6813 7.93988 18.6818C8.16936 17.695 8.28625 16.6968 8.34509 15.9378C8.37435 15.5603 8.38891 15.2466 8.39615 15.0289C8.39976 14.9201 8.40153 14.8356 8.4024 14.7794C8.40284 14.7513 8.40305 14.7303 8.40315 14.7169L8.40323 14.7026L8.40324 14.7C8.40342 14.2032 8.77817 13.8 9.24044 13.8Z" fill="#1D3054"/>
<path fill-rule="evenodd" clip-rule="evenodd" d="M15.659 14.6997C15.6588 14.2029 15.284 13.8 14.8218 13.8C14.3594 13.8 13.9846 14.203 13.9846 14.7H14.8218C13.9846 14.7 13.9846 14.6998 13.9846 14.7L13.9846 14.7034L13.9846 14.7097L13.9848 14.7314C13.9849 14.7498 13.9852 14.776 13.9857 14.8094C13.9867 14.8762 13.9888 14.9722 13.9928 15.0931C14.0008 15.3348 14.0168 15.6773 14.0486 16.0873C14.1118 16.9033 14.2391 18.0051 14.498 19.1183C14.7539 20.2188 15.1543 21.4016 15.8003 22.3275C16.464 23.2788 17.4231 24 18.7287 24C19.1911 24 19.5659 23.5971 19.5659 23.1C19.5659 22.603 19.1911 22.2 18.7287 22.2C18.0809 22.2 17.5749 21.8713 17.1398 21.2475C16.687 20.5985 16.3548 19.6813 16.1224 18.6818C15.8929 17.695 15.776 16.6968 15.7172 15.9378C15.6879 15.5603 15.6733 15.2466 15.6661 15.0289C15.6625 14.9201 15.6607 14.8356 15.6598 14.7794C15.6594 14.7513 15.6592 14.7303 15.6591 14.7169L15.659 14.7026L15.659 14.6997Z" fill="#1D3054"/>
<path fill-rule="evenodd" clip-rule="evenodd" d="M12.0308 13.8C12.4932 13.8 12.868 14.203 12.868 14.7V23.1C12.868 23.5971 12.4932 24 12.0308 24C11.5684 24 11.1936 23.5971 11.1936 23.1V14.7C11.1936 14.203 11.5684 13.8 12.0308 13.8Z" fill="#1D3054"/>
</g>
<defs>
<clipPath id="clip0_1092_1050">
<rect width="24" height="24" fill="white" transform="translate(0.0310059)"/>
</clipPath>
</defs>
</svg>
