<svg width="31" height="30" viewBox="0 0 31 30" fill="none" xmlns="http://www.w3.org/2000/svg">
<path d="M2.47623 6.21429C2.47623 2.78222 5.25845 0 8.69052 0H21.9762C25.4082 0 28.1905 2.78222 28.1905 6.21429V10.7143H29.2619C29.8536 10.7143 30.3334 11.194 30.3334 11.7857C30.3334 12.3774 29.8536 12.8571 29.2619 12.8571H28.1905V27.2143C28.1905 28.7529 26.9434 30 25.4048 30H22.4048C20.8662 30 19.6191 28.7529 19.6191 27.2143V25.7143H11.0477V27.2143C11.0477 28.7529 9.80045 30 8.26194 30H5.26195C3.72344 30 2.47623 28.7529 2.47623 27.2143V12.8571H1.4048C0.813074 12.8571 0.333374 12.3774 0.333374 11.7857C0.333374 11.194 0.813074 10.7143 1.4048 10.7143H2.47623V6.21429ZM26.0477 6.21429C26.0477 3.9657 24.2247 2.14286 21.9762 2.14286H8.69052C6.44193 2.14286 4.61909 3.9657 4.61909 6.21429V15H26.0477V6.21429ZM21.7619 25.7143V27.2143C21.7619 27.5694 22.0497 27.8571 22.4048 27.8571H25.4048C25.7599 27.8571 26.0477 27.5694 26.0477 27.2143V25.7143H21.7619ZM4.61909 25.7143V27.2143C4.61909 27.5694 4.9069 27.8571 5.26195 27.8571H8.26194C8.61699 27.8571 8.9048 27.5694 8.9048 27.2143V25.7143H4.61909ZM4.61909 23.5714H26.0477V17.1429H4.61909V23.5714Z" fill="#1D3054"/>
</svg>
