<svg width="30" height="30" viewBox="0 0 30 30" fill="none" xmlns="http://www.w3.org/2000/svg">
<path d="M16.3637 6.81819C16.3637 6.06507 15.7532 5.45455 15 5.45455C14.2469 5.45455 13.6364 6.06507 13.6364 6.81819V15C13.6364 15.3617 13.7801 15.7085 14.0358 15.9642L19.4904 21.4188C20.0229 21.9513 20.8863 21.9513 21.4188 21.4188C21.9514 20.8863 21.9514 20.0228 21.4188 19.4903L16.3637 14.4352V6.81819Z" fill="#1D3054"/>
<path fill-rule="evenodd" clip-rule="evenodd" d="M15 0C6.71573 0 0 6.71573 0 15C0 23.2843 6.71573 30 15 30C23.2843 30 30 23.2843 30 15C30 6.71573 23.2843 0 15 0ZM2.72727 15C2.72727 8.22196 8.22196 2.72727 15 2.72727C21.778 2.72727 27.2727 8.22196 27.2727 15C27.2727 21.778 21.778 27.2727 15 27.2727C8.22196 27.2727 2.72727 21.778 2.72727 15Z" fill="#1D3054"/>
</svg>
