<svg width="30" height="30" viewBox="0 0 30 30" fill="none" xmlns="http://www.w3.org/2000/svg">
<g clip-path="url(#clip0_852_6052)">
<path fill-rule="evenodd" clip-rule="evenodd" d="M1.09338 4.05847C1.79346 3.35839 2.74298 2.96509 3.73304 2.96509H13.5174C14.0352 2.96509 14.4549 3.38482 14.4549 3.90259C14.4549 4.42035 14.0352 4.84009 13.5174 4.84009H3.73304C3.24026 4.84009 2.76766 5.03584 2.41921 5.38429C2.07076 5.73274 1.875 6.20534 1.875 6.69813V26.2669C1.875 26.7597 2.07076 27.2323 2.41921 27.5807C2.76766 27.9292 3.24026 28.1249 3.73304 28.1249H23.3018C23.7946 28.1249 24.2672 27.9292 24.6156 27.5807C24.9641 27.2323 25.1599 26.7597 25.1599 26.2669V16.4825C25.1599 15.9647 25.5796 15.545 26.0974 15.545C26.6151 15.545 27.0349 15.9647 27.0349 16.4825V26.2669C27.0349 27.257 26.6416 28.2065 25.9415 28.9066C25.2414 29.6066 24.2919 29.9999 23.3018 29.9999H3.73304C2.74297 29.9999 1.79346 29.6066 1.09338 28.9066C0.393301 28.2065 0 27.257 0 26.2669V6.69813C0 5.70806 0.393301 4.75855 1.09338 4.05847Z" fill="#1D3054"/>
<path fill-rule="evenodd" clip-rule="evenodd" d="M26.0975 1.875C25.5597 1.875 25.044 2.08862 24.6637 2.46887L11.5685 15.5641L10.6127 19.3874L14.436 18.4316L27.5312 5.33636C27.9115 4.95611 28.1251 4.44037 28.1251 3.90262C28.1251 3.36486 27.9115 2.84913 27.5312 2.46887C27.151 2.08862 26.6352 1.875 26.0975 1.875ZM23.3379 1.14305C24.0698 0.411167 25.0624 0 26.0975 0C27.1325 0 28.1252 0.411167 28.857 1.14305C29.5889 1.87493 30.0001 2.86758 30.0001 3.90262C30.0001 4.93765 29.5889 5.9303 28.857 6.66218L15.5782 19.941C15.4581 20.0611 15.3075 20.1464 15.1427 20.1876L9.55161 21.5854C9.23214 21.6652 8.89418 21.5716 8.66133 21.3388C8.42847 21.1059 8.33486 20.768 8.41473 20.4485L9.8125 14.8574C9.85371 14.6926 9.93895 14.542 10.0591 14.4219L23.3379 1.14305Z" fill="#1D3054"/>
</g>
<defs>
<clipPath id="clip0_852_6052">
<rect width="30" height="30" fill="white"/>
</clipPath>
</defs>
</svg>
