<svg width="27" height="30" viewBox="0 0 27 30" fill="none" xmlns="http://www.w3.org/2000/svg">
<path fill-rule="evenodd" clip-rule="evenodd" d="M19.9058 0.00461413H18.6382V29.9999H21.1801V19.4078H24.2946C24.9224 19.4078 25.5246 19.1668 25.9685 18.7379C26.4125 18.309 26.6619 17.7272 26.6619 17.1207V6.53182C26.6962 5.66632 26.5452 4.80328 26.2182 3.99677C25.8909 3.18923 25.3942 2.45581 24.7595 1.84257C24.1247 1.22932 23.3656 0.749501 22.5297 0.433231C21.6949 0.117362 20.8016 -0.0285521 19.9058 0.00461413ZM24.12 16.952H21.1801V2.59655C22.5558 2.92017 23.2844 3.76946 23.675 4.60286C24.0881 5.48419 24.12 6.34414 24.12 6.52856V16.952Z" fill="#1D3054"/>
<path fill-rule="evenodd" clip-rule="evenodd" d="M2.54193 9.70632V0.00473607H0V9.70649C0.00161608 11.2471 0.567511 12.7374 1.59747 13.9136C2.59556 15.0534 3.96703 15.8268 5.48181 16.1072V30H8.02374V16.1072C9.53852 15.8268 10.91 15.0534 11.9081 13.9136C12.938 12.7374 13.5039 11.2469 13.5056 9.70632V0.00473607H10.9636V9.70632C10.9636 10.7853 10.52 11.82 9.73029 12.5829C8.94061 13.3459 7.86956 13.7745 6.75278 13.7745C5.63599 13.7745 4.56495 13.3459 3.77526 12.5829C2.98557 11.82 2.54193 10.7853 2.54193 9.70632Z" fill="#1D3054"/>
<path fill-rule="evenodd" clip-rule="evenodd" d="M8.02375 0.00473607H5.48182V10.9342H8.02375V0.00473607Z" fill="#1D3054"/>
</svg>
