<svg width="21" height="20" viewBox="0 0 21 20" fill="none" xmlns="http://www.w3.org/2000/svg">
<g clip-path="url(#clip0_2072_11802)">
<path d="M3 6.66659C3 7.12492 3.375 7.49992 3.83333 7.49992C4.29167 7.49992 4.66667 7.12492 4.66667 6.66659V4.99992H6.33333C6.79167 4.99992 7.16667 4.62492 7.16667 4.16659C7.16667 3.70825 6.79167 3.33325 6.33333 3.33325H4.66667V1.66659C4.66667 1.20825 4.29167 0.833252 3.83333 0.833252C3.375 0.833252 3 1.20825 3 1.66659V3.33325H1.33333C0.875 3.33325 0.5 3.70825 0.5 4.16659C0.5 4.62492 0.875 4.99992 1.33333 4.99992H3V6.66659Z" fill="#1D3054"/>
<path d="M11.334 14.1667C12.7147 14.1667 13.834 13.0475 13.834 11.6667C13.834 10.286 12.7147 9.16675 11.334 9.16675C9.95327 9.16675 8.83398 10.286 8.83398 11.6667C8.83398 13.0475 9.95327 14.1667 11.334 14.1667Z" fill="#1D3054"/>
<path d="M18 4.99992H15.3583L14.325 3.87492C14.0167 3.53325 13.5667 3.33325 13.1 3.33325H7.76667C7.90833 3.58325 8 3.85825 8 4.16659C8 5.08325 7.25 5.83325 6.33333 5.83325H5.5V6.66659C5.5 7.58325 4.75 8.33325 3.83333 8.33325C3.525 8.33325 3.25 8.24159 3 8.09992V16.6666C3 17.5833 3.75 18.3333 4.66667 18.3333H18C18.9167 18.3333 19.6667 17.5833 19.6667 16.6666V6.66659C19.6667 5.74992 18.9167 4.99992 18 4.99992ZM11.3333 15.8333C9.03333 15.8333 7.16667 13.9666 7.16667 11.6666C7.16667 9.36659 9.03333 7.49992 11.3333 7.49992C13.6333 7.49992 15.5 9.36659 15.5 11.6666C15.5 13.9666 13.6333 15.8333 11.3333 15.8333Z" fill="#1D3054"/>
</g>
<defs>
<clipPath id="clip0_2072_11802">
<rect width="20" height="20" fill="white" transform="translate(0.5)"/>
</clipPath>
</defs>
</svg>
