<svg width="20" height="20" viewBox="0 0 20 20" fill="none" xmlns="http://www.w3.org/2000/svg">
<path fill-rule="evenodd" clip-rule="evenodd" d="M10.0226 3.69238C7.74229 3.69238 5.89353 5.43969 5.89353 7.59482C5.89353 9.74995 7.74229 11.4973 10.0226 11.4973C12.3028 11.4973 14.1516 9.74995 14.1516 7.59482C14.1516 5.43969 12.3028 3.69238 10.0226 3.69238ZM7.67028 7.56799C7.67028 6.35787 8.71248 5.37287 9.99286 5.37287C11.2741 5.37287 12.3153 6.35781 12.3154 7.56789C12.316 8.78536 11.2965 9.78994 10.0226 9.78994C8.74199 9.78994 7.67028 8.77823 7.67028 7.56799Z" fill="#31B404"/>
<path fill-rule="evenodd" clip-rule="evenodd" d="M10.0739 0C5.69775 0 2 3.51718 2 7.68567C2 9.87003 3.0715 12.0557 4.46886 14.0577C5.75199 15.896 7.3302 17.6069 8.65752 19.0459L8.68128 19.0717C8.79324 19.193 8.9034 19.3125 9.0114 19.4298C9.04144 19.4625 9.17063 19.5918 9.3641 19.7182C9.56778 19.8512 9.8717 20 10.2248 20H10.2742C10.6275 20 10.9307 19.8511 11.1338 19.7179C11.3399 19.5828 11.4707 19.4454 11.485 19.4299C12.8002 18.0009 14.4245 16.1017 15.7211 14.0484C17.0143 12.0003 18 9.77045 18 7.68567C18 5.6157 17.2828 3.69406 15.9258 2.28721C14.566 0.877347 12.5781 0 10.0739 0ZM3.80645 7.68567C3.80645 4.44546 6.68146 1.70701 10.0739 1.70701C12.2057 1.70701 13.7261 2.46005 14.7177 3.57014C15.7148 4.68634 16.1935 6.18269 16.1935 7.68567C16.1935 8.99436 15.6987 10.5413 14.6873 12.3207C13.6953 14.066 12.2149 16.0204 10.2472 18.1725L10.0194 17.9248C8.69286 16.4865 7.13586 14.7977 5.90929 13.0226C4.67977 11.2433 3.80645 9.41068 3.80645 7.68567Z" fill="#31B404"/>
</svg>
