<svg width="24" height="24" viewBox="0 0 24 24" fill="none" xmlns="http://www.w3.org/2000/svg">
<path fill-rule="evenodd" clip-rule="evenodd" d="M23.3874 17.6487C23.3874 17.6487 13.2866 10.9832 12.8917 10.8219V9.48634C14.1383 9.13513 14.9718 7.97144 14.9718 6.59975C14.9718 4.94466 13.6378 3.6001 12.0008 3.6001C10.3638 3.6001 9.03283 4.94617 9.03283 6.59975C9.03283 7.0414 9.39008 7.39714 9.83324 7.39714C10.2749 7.39714 10.4754 6.88162 10.4754 6.43997C10.4754 5.6682 11.2969 4.96124 12.0491 4.96124C12.8027 4.96124 13.5881 5.82798 13.5881 6.59975C13.5881 7.37001 12.753 7.99858 11.9993 7.99858C11.5562 7.99858 11.2863 8.35582 11.2863 8.79597V10.7887C10.9879 10.8987 0.742346 17.6487 0.742346 17.6487C-0.0158565 18.422 -1.0484 21.5407 2.56022 21.5407H21.5243C24.8315 21.5407 24.1125 18.3843 23.3874 17.6487ZM21.9027 20.1298H2.15474C1.1433 20.1298 1.17194 18.9903 1.63169 18.4928L11.2019 12.4393C11.7189 12.1649 12.3686 12.1287 12.8796 12.4332L22.4815 18.4943C22.9443 18.9918 22.8297 20.1298 21.9027 20.1298Z" fill="#1D3054"/>
</svg>
