<svg width="30" height="22" viewBox="0 0 30 22" fill="none" xmlns="http://www.w3.org/2000/svg">
<path fill-rule="evenodd" clip-rule="evenodd" d="M1.5 0.5C2.32843 0.5 3 1.22323 3 2.11538V11.8077H12V3.73077C12 2.83862 12.6716 2.11538 13.5 2.11538H25.5C26.6935 2.11538 27.8381 2.62596 28.682 3.53479C29.5259 4.44362 30 5.67626 30 6.96154V19.8846C30 20.7768 29.3284 21.5 28.5 21.5C27.6716 21.5 27 20.7768 27 19.8846V15.0385H3V19.8846C3 20.7768 2.32843 21.5 1.5 21.5C0.671573 21.5 0 20.7768 0 19.8846V2.11538C0 1.22323 0.671573 0.5 1.5 0.5ZM15 11.8077H27V6.96154C27 6.53311 26.842 6.12223 26.5607 5.81929C26.2794 5.51635 25.8978 5.34615 25.5 5.34615H15V11.8077Z" fill="#1D3054"/>
</svg>
