<svg width="484" height="110" viewBox="0 0 484 110" fill="none" xmlns="http://www.w3.org/2000/svg">
<path d="M146.653 8V75.3797L112.975 59.1761L146.653 8ZM143.593 18.4402L122.233 50.8989C122.744 51.4294 124.148 52.6984 125.984 52.8037C127.528 52.8918 129.12 52.1282 130.711 50.5327C133.982 47.2536 138.597 46.4894 143.593 48.3242V18.4402ZM143.593 51.7061C140.868 50.4828 136.347 49.3148 132.922 52.7487C130.805 54.8712 128.559 55.9451 126.239 55.9449C126.095 55.9449 125.95 55.9406 125.806 55.9324C123.38 55.7934 121.518 54.4884 120.484 53.5563L117.623 57.9043L143.593 70.3996V51.7061ZM178.935 97.3072C182.781 98.3434 185.582 100.387 185.7 100.473L183.851 103C183.826 102.982 181.34 101.181 178.041 100.312C173.869 99.2111 170.348 100.064 167.575 102.844L165.365 100.628C168.953 97.0301 173.645 95.8816 178.935 97.3072ZM116.551 94.5361L104.139 78.3507H184.576L178.907 86.4232C191.612 86.7698 199.873 90.5164 200.5 90.7994V94.1596C200.5 94.1596 178.119 84.1202 151.675 94.3989C143.583 97.545 135.762 98.6684 128.653 98.6684C111.375 98.6667 101.298 93.3105 100.55 92.9142L99.5 91C99.6258 91.0661 106.89 92.798 116.551 94.5361ZM150.545 91.4761C159.499 87.9954 167.774 86.6473 174.911 86.4299L178.287 81.6226H110.765L121.182 95.2065C129.564 96.1262 139.8 95.6533 150.545 91.4761Z" fill="#1D3054"/>
<path d="M131.966 86.3262H124.216V89.5983H131.966V86.3262ZM150.323 75.2831V29.3994L170.527 75.2831H150.323ZM153.383 72.2153H165.735L153.383 44.2909V72.2153Z" fill="#31B404"/>
<path d="M295 91.4218C295 84.4197 293.592 72.9229 290.86 66.4838C288.128 60.0446 284.129 54.2293 279.104 49.3884C274.08 44.5475 268.133 40.7814 261.624 38.3172C255.115 35.853 248.177 34.7417 241.23 35.0504C234.282 35.3591 227.469 37.0813 221.2 40.1132C214.932 43.1451 209.338 47.4239 204.757 52.6915C200.175 57.9592 196.701 64.1066 194.542 70.763C192.384 77.4194 191.588 84.4469 192.2 91.4218L212.712 97L237.342 95.8727L263.652 87.9818L279.326 86.8545L295 91.4218Z" fill="#FF8A00"/>
<path d="M339.653 8V75.3797L305.975 59.1761L339.653 8ZM336.593 18.4402L315.233 50.8989C315.744 51.4294 317.148 52.6984 318.984 52.8037C320.528 52.8918 322.12 52.1282 323.711 50.5327C326.982 47.2536 331.597 46.4894 336.593 48.3242V18.4402ZM336.593 51.7061C333.868 50.4828 329.347 49.3148 325.922 52.7487C323.805 54.8712 321.559 55.9451 319.239 55.9449C319.095 55.9449 318.95 55.9406 318.806 55.9324C316.38 55.7934 314.518 54.4884 313.484 53.5563L310.623 57.9043L336.593 70.3996V51.7061ZM371.935 97.3072C375.781 98.3434 378.582 100.387 378.7 100.473L376.851 103C376.826 102.982 374.34 101.181 371.041 100.312C366.869 99.2111 363.348 100.064 360.575 102.844L358.365 100.628C361.953 97.0301 366.645 95.8816 371.935 97.3072ZM309.551 94.5361L297.139 78.3507H377.576L371.907 86.4232C384.612 86.7698 392.373 92.217 393 92.5L393.5 94.1596C393.5 94.1596 371.119 84.1202 344.675 94.3989C336.583 97.545 328.762 98.6684 321.653 98.6684C304.375 98.6667 294.298 93.3105 293.55 92.9142L293.5 89.4715C293.626 89.5376 299.89 92.798 309.551 94.5361ZM343.545 91.4761C352.499 87.9954 360.774 86.6473 367.911 86.4299L371.287 81.6226H303.765L314.182 95.2065C322.564 96.1262 332.8 95.6533 343.545 91.4761Z" fill="#1D3054"/>
<path d="M324.966 86.3262H317.216V89.5983H324.966V86.3262ZM343.323 75.2831V29.3994L363.527 75.2831H343.323ZM346.383 72.2153H358.735L346.383 44.2909V72.2153Z" fill="#31B404"/>
<path d="M73 80C90.3945 89.4673 110.722 98.4563 131 97.5C146.689 96.7601 161.045 87.7469 177 87.5C193.192 87.2494 207.323 97.0035 223 97.5C240.717 98.0611 256.85 86.4286 275.5 87.5C289.966 88.331 302.908 96.8071 317 97.5C335.547 98.4119 353.187 86.4708 372.5 87.5C385.478 88.1916 399.521 98.6979 411.5 97.5" stroke="#1D3054" stroke-width="4" stroke-linecap="round"/>
</svg>
