<svg width="24" height="24" viewBox="0 0 24 24" fill="none" xmlns="http://www.w3.org/2000/svg">
<path fill-rule="evenodd" clip-rule="evenodd" d="M15.59 4.77043C12.6251 3.64676 9.66406 4.06866 7.93725 5.95959C7.62965 6.29643 7.13951 6.28669 6.8425 5.93784C6.54549 5.58899 6.55408 5.03314 6.86168 4.6963C9.1492 2.19138 12.7913 1.85822 16.0808 3.10489C19.3979 4.36199 22.5501 7.28246 23.9526 11.6213C24.0998 12.0766 23.8936 12.581 23.4922 12.7479C23.0907 12.9148 22.6459 12.681 22.4988 12.2257C21.2812 8.4589 18.5275 5.88366 15.59 4.77043Z" fill="#1D3054"/>
<path fill-rule="evenodd" clip-rule="evenodd" d="M12.2823 8.55588C8.71609 8.64159 4.92931 12.0676 4.24309 19.1492C4.19638 19.6312 3.81396 19.979 3.38893 19.9261C2.9639 19.8731 2.65721 19.4394 2.70392 18.9574C3.45398 11.217 7.72784 6.90887 12.2495 6.8002C16.7948 6.69097 21.1038 10.8277 21.9093 18.8223C21.9578 19.3041 21.6528 19.7393 21.2279 19.7944C20.8031 19.8494 20.4194 19.5035 20.3708 19.0217C19.6311 11.6793 15.8249 8.47074 12.2823 8.55588Z" fill="#1D3054"/>
<path fill-rule="evenodd" clip-rule="evenodd" d="M21.8896 19.4421C21.9957 19.9119 21.7459 20.3902 21.3317 20.5106C15.4752 22.2117 8.78442 21.6882 3.56863 20.5214C3.14913 20.4276 2.87613 19.9658 2.95887 19.4901C3.04162 19.0143 3.44878 18.7047 3.86828 18.7985C8.96395 19.9384 15.4002 20.4207 20.9475 18.8094C21.3617 18.6891 21.7835 18.9724 21.8896 19.4421Z" fill="#1D3054"/>
<path fill-rule="evenodd" clip-rule="evenodd" d="M2.57954 7.80351C2.81301 7.39725 3.29267 7.28255 3.6509 7.54732C4.30507 8.03084 4.92528 8.62232 5.50677 9.17689C5.65027 9.31375 5.79141 9.44835 5.93013 9.57853C6.25955 9.88769 6.30561 10.4412 6.03301 10.8148C5.7604 11.1884 5.27236 11.2406 4.94294 10.9314C4.78221 10.7806 4.62636 10.6321 4.47376 10.4868C3.90027 9.94039 3.37279 9.43787 2.80544 9.01852C2.44721 8.75375 2.34607 8.20977 2.57954 7.80351Z" fill="#1D3054"/>
<path fill-rule="evenodd" clip-rule="evenodd" d="M3.23399 7.00263C3.56199 7.31373 3.6055 7.86748 3.33118 8.23946C2.98042 8.71508 2.68737 9.2612 2.38664 9.87194C2.30891 10.0298 2.22943 10.1947 2.14793 10.3638C1.92547 10.8255 1.68795 11.3183 1.42981 11.7841C1.20226 12.1946 0.724326 12.3183 0.362311 12.0602C0.000294994 11.8021 -0.108713 11.2601 0.118835 10.8496C0.350046 10.4324 0.552862 10.0115 0.767191 9.56678C0.853621 9.38743 0.941923 9.20419 1.03471 9.01575C1.3468 8.38195 1.69665 7.71863 2.1434 7.11285C2.41772 6.74087 2.90599 6.69152 3.23399 7.00263Z" fill="#1D3054"/>
<path fill-rule="evenodd" clip-rule="evenodd" d="M0.245526 11.4505C0.254249 10.9656 0.607879 10.5806 1.03538 10.5905C2.39289 10.6219 4.12306 11.3469 5.07045 12.7565C5.32966 13.1421 5.26412 13.6931 4.92406 13.9871C4.58399 14.281 4.09819 14.2067 3.83897 13.821C3.2474 12.9409 2.0176 12.3697 1.00379 12.3462C0.576288 12.3363 0.236802 11.9353 0.245526 11.4505Z" fill="#1D3054"/>
<path fill-rule="evenodd" clip-rule="evenodd" d="M22.3606 10.114C22.503 10.5713 22.2917 11.0729 21.8886 11.2345C21.6078 11.347 21.3651 11.559 21.1055 11.8839C20.9279 12.1061 20.7852 12.3203 20.6226 12.5644C20.5185 12.7206 20.4063 12.889 20.2717 13.0795C20.0042 13.4579 19.517 13.5187 19.1833 13.2154C18.8497 12.9122 18.796 12.3596 19.0635 11.9812C19.1407 11.8719 19.2286 11.7408 19.3232 11.5997C19.5183 11.3087 19.7417 10.9754 19.9581 10.7046C20.311 10.263 20.7589 9.82468 21.3726 9.57873C21.7758 9.41716 22.2181 9.65682 22.3606 10.114Z" fill="#1D3054"/>
</svg>
