<svg width="30" height="24" viewBox="0 0 30 24" fill="none" xmlns="http://www.w3.org/2000/svg">
<g clip-path="url(#clip0_283_2721)">
<path d="M5.58579 2.41421C6.36683 1.63317 7.55403 1.55403 8.23744 2.23744L25.5616 19.5616C26.245 20.245 26.1658 21.4322 25.3848 22.2132C24.6037 22.9942 23.4166 23.0734 22.7331 22.39L5.40901 5.06586C4.7256 4.38245 4.80474 3.19526 5.58579 2.41421Z" fill="white"/>
<path d="M5.41421 22.4142C4.63314 21.6331 4.55403 20.446 5.23744 19.7626L22.5616 2.43845C23.245 1.75501 24.4321 1.83415 25.2132 2.61522C25.9943 3.39629 26.0734 4.58344 25.39 5.26687L8.06586 22.591C7.38245 23.2744 6.19528 23.1953 5.41421 22.4142Z" fill="white"/>
</g>
<defs>
<clipPath id="clip0_283_2721">
<rect width="30" height="24" fill="white"/>
</clipPath>
</defs>
</svg>
