<svg width="26" height="26" viewBox="0 0 26 26" fill="none" xmlns="http://www.w3.org/2000/svg">
<path d="M25.3177 20.0567L20.0552 16.5472C19.3874 16.1054 18.4922 16.2508 17.9985 16.8812L16.4656 18.8522C16.2686 19.1119 15.9105 19.1873 15.6255 19.029L15.3339 18.8682C14.3673 18.3413 13.1645 17.6854 10.7413 15.2613C8.31799 12.8371 7.66072 11.6335 7.13384 10.6686L6.97396 10.377C6.81346 10.0921 6.88739 9.73246 7.14725 9.53388L9.11686 8.00143C9.74707 7.50766 9.89263 6.61272 9.45136 5.94469L5.94188 0.682199C5.48964 0.00193241 4.58231 -0.202279 3.88219 0.218584L1.68161 1.54048C0.990173 1.94697 0.482893 2.6053 0.26614 3.37752C-0.526286 6.26482 0.0698479 11.2479 7.41031 18.5892C13.2495 24.4279 17.5965 25.9981 20.5843 25.9981C21.2719 26.001 21.9569 25.9116 22.6207 25.7321C23.3931 25.5156 24.0515 25.0082 24.4577 24.3166L25.7809 22.1173C26.2024 21.4171 25.9983 20.5092 25.3177 20.0567ZM25.0344 21.6728L23.7142 23.8733C23.4225 24.3726 22.9489 24.7396 22.3927 24.8976C19.7272 25.6294 15.0705 25.0233 8.02335 17.9761C0.97621 10.929 0.370124 6.27264 1.10193 3.60676C1.26014 3.04988 1.62764 2.5757 2.12745 2.28355L4.32804 0.963383C4.63182 0.780598 5.02562 0.869198 5.22186 1.1644L7.12826 4.02656L8.72834 6.42643C8.91996 6.7162 8.857 7.10456 8.58364 7.31898L6.61356 8.85143C6.01403 9.30987 5.84282 10.1394 6.21195 10.7977L6.36838 11.0819C6.92212 12.0975 7.61056 13.3609 10.124 15.8739C12.6374 18.3868 13.9004 19.0753 14.9155 19.629L15.2001 19.7859C15.8584 20.1549 16.6879 19.9838 17.1464 19.3842L18.6788 17.4142C18.8933 17.141 19.2815 17.078 19.5714 17.2695L24.8334 20.7789C25.1288 20.975 25.2174 21.369 25.0344 21.6728Z" fill="white"/>
<path d="M14.7322 4.33427C18.7982 4.33879 22.0932 7.63385 22.0978 11.6999C22.0978 11.9392 22.2917 12.1331 22.531 12.1331C22.7703 12.1331 22.9643 11.9392 22.9643 11.6999C22.9593 7.15546 19.2766 3.47274 14.7322 3.46777C14.4929 3.46777 14.2989 3.66172 14.2989 3.90102C14.2989 4.14032 14.4929 4.33427 14.7322 4.33427Z" fill="white"/>
<path d="M14.7322 6.93389C17.3631 6.93698 19.4951 9.06897 19.4982 11.6999C19.4982 11.9392 19.6922 12.1331 19.9314 12.1331C20.1707 12.1331 20.3647 11.9392 20.3647 11.6999C20.3611 8.59058 17.8414 6.07094 14.7322 6.06738C14.4929 6.06738 14.2989 6.26134 14.2989 6.50064C14.2989 6.73993 14.4929 6.93389 14.7322 6.93389Z" fill="white"/>
<path d="M14.7322 9.5335C15.928 9.53492 16.8971 10.504 16.8985 11.6999C16.8985 11.9392 17.0926 12.1331 17.3318 12.1331C17.571 12.1331 17.7651 11.9392 17.7651 11.6999C17.7631 10.0256 16.4064 8.66887 14.7322 8.667C14.4929 8.667 14.2989 8.86095 14.2989 9.10025C14.2989 9.33954 14.4929 9.5335 14.7322 9.5335Z" fill="white"/>
</svg>
