<svg width="30" height="24" viewBox="0 0 30 24" fill="none" xmlns="http://www.w3.org/2000/svg">
<g clip-path="url(#clip0_283_2689)">
<path d="M0 2C0 0.89544 0.839475 0 1.875 0H28.125C29.1606 0 30 0.89544 30 2C30 3.10456 29.1606 4 28.125 4H1.875C0.839475 4 0 3.10456 0 2Z" fill="white"/>
<path d="M0 22C0 20.8954 0.839475 20 1.875 20H28.125C29.1606 20 30 20.8954 30 22C30 23.1046 29.1606 24 28.125 24H1.875C0.839475 24 0 23.1046 0 22Z" fill="white"/>
<path d="M3 10C1.34316 10 0 10.8954 0 12C0 13.1046 1.34316 14 3 14H27C28.6569 14 30 13.1046 30 12C30 10.8954 28.6569 10 27 10H3Z" fill="white"/>
</g>
<defs>
<clipPath id="clip0_283_2689">
<rect width="30" height="24" fill="white"/>
</clipPath>
</defs>
</svg>
