<svg width="21" height="21" viewBox="0 0 21 21" fill="none" xmlns="http://www.w3.org/2000/svg">
<path fill-rule="evenodd" clip-rule="evenodd" d="M10.9144 2.73273C8.64508 2.73273 6.80544 4.36079 6.80544 6.3691C6.80544 8.37741 8.64508 10.0055 10.9144 10.0055C13.1837 10.0055 15.0233 8.37741 15.0233 6.3691C15.0233 4.36079 13.1837 2.73273 10.9144 2.73273ZM4.75098 6.3691C4.75098 3.35663 7.51043 0.914551 10.9144 0.914551C14.3183 0.914551 17.0778 3.35663 17.0778 6.3691C17.0778 9.38156 14.3183 11.8236 10.9144 11.8236C7.51043 11.8236 4.75098 9.38156 4.75098 6.3691Z" fill="#1D3054"/>
<path fill-rule="evenodd" clip-rule="evenodd" d="M5.4169 13.6419C4.38078 13.6419 3.50681 14.3247 3.3783 15.2346L2.35899 15.1218L3.3783 15.2346L2.97716 18.0746C2.90052 18.6172 3.37861 19.0965 3.99646 19.0965H17.8321C18.45 19.0965 18.9281 18.6172 18.8515 18.0746L18.4503 15.2346C18.4503 15.2346 18.4503 15.2346 18.4503 15.2346C18.3218 14.3247 17.4478 13.6419 16.4118 13.6419H16.0505C15.4831 13.6419 15.0232 13.2349 15.0232 12.7328C15.0232 12.2307 15.4831 11.8237 16.0505 11.8237H16.4118C18.4839 11.8237 20.2318 13.1893 20.4889 15.0091L20.8901 17.8491L19.8929 17.9594L20.8901 17.8491C21.12 19.4768 19.6858 20.9146 17.8321 20.9146H3.99646C2.1428 20.9146 0.708649 19.4768 0.938557 17.8491L1.95648 17.9617L0.938557 17.8491L1.33969 15.0091C1.59672 13.1893 3.34468 11.8237 5.4169 11.8237H5.77813C6.34546 11.8237 6.80537 12.2307 6.80537 12.7328C6.80537 13.2349 6.34546 13.6419 5.77813 13.6419H5.4169Z" fill="#1D3054"/>
</svg>
