<svg width="31" height="30" viewBox="0 0 31 30" fill="none" xmlns="http://www.w3.org/2000/svg">
<path fill-rule="evenodd" clip-rule="evenodd" d="M20.6665 4.5C20.6665 2.01472 22.9051 0 25.6665 0C28.4279 0 30.6665 2.01472 30.6665 4.5C30.6665 6.98528 28.4279 9 25.6665 9C22.9051 9 20.6665 6.98528 20.6665 4.5ZM25.6665 3C24.746 3 23.9999 3.67157 23.9999 4.5C23.9999 5.32843 24.746 6 25.6665 6C26.587 6 27.3332 5.32843 27.3332 4.5C27.3332 3.67157 26.587 3 25.6665 3Z" fill="#1D3054"/>
<path fill-rule="evenodd" clip-rule="evenodd" d="M0.666504 25.5C0.666504 23.0147 2.90508 21 5.66649 21C8.42791 21 10.6665 23.0147 10.6665 25.5C10.6665 27.9853 8.42791 30 5.66649 30C2.90508 30 0.666504 27.9853 0.666504 25.5ZM5.66649 24C4.74602 24 3.99983 24.6716 3.99983 25.5C3.99983 26.3284 4.74602 27 5.66649 27C6.58697 27 7.33316 26.3284 7.33316 25.5C7.33316 24.6716 6.58697 24 5.66649 24Z" fill="#1D3054"/>
<path d="M6.88684 7.09835C7.66824 6.39509 8.72804 6 9.83311 6H15.6664C16.5869 6 17.3331 5.32843 17.3331 4.5C17.3331 3.67157 16.5869 3 15.6664 3H9.83311C7.84399 3 5.93634 3.71116 4.52982 4.97703C3.1233 6.2429 2.33312 7.95979 2.33312 9.75C2.33312 11.5402 3.1233 13.2571 4.52982 14.523C5.93634 15.7888 7.84399 16.5 9.83311 16.5H23.1664C24.2715 16.5 25.3313 16.8951 26.1127 17.5984C26.8941 18.3016 27.3331 19.2554 27.3331 20.25C27.3331 21.2446 26.8941 22.1984 26.1127 22.9017C25.3313 23.6049 24.2715 24 23.1664 24H15.6664C14.746 24 13.9998 24.6716 13.9998 25.5C13.9998 26.3284 14.746 27 15.6664 27H23.1664C25.1555 27 27.0632 26.2888 28.4697 25.023C29.8762 23.7571 30.6664 22.0402 30.6664 20.25C30.6664 18.4598 29.8762 16.7429 28.4697 15.477C27.0632 14.2112 25.1555 13.5 23.1664 13.5H9.83311C8.72804 13.5 7.66824 13.1049 6.88684 12.4017C6.10544 11.6984 5.66645 10.7446 5.66645 9.75C5.66645 8.75544 6.10544 7.80161 6.88684 7.09835Z" fill="#1D3054"/>
</svg>
