<svg width="30" height="30" viewBox="0 0 30 30" fill="none" xmlns="http://www.w3.org/2000/svg">
<path fill-rule="evenodd" clip-rule="evenodd" d="M19.4872 5.96316C15.781 4.55858 12.0798 5.08595 9.92125 7.44961C9.53675 7.87065 8.92409 7.85848 8.55282 7.42242C8.18156 6.98636 8.1923 6.29154 8.5768 5.8705C11.4362 2.73935 15.9888 2.3229 20.1007 3.88124C24.247 5.45261 28.1873 9.1032 29.9404 14.5268C30.1244 15.0959 29.8667 15.7264 29.3649 15.935C28.8631 16.1436 28.3071 15.8514 28.1232 15.2823C26.6012 10.5737 23.1591 7.35469 19.4872 5.96316Z" fill="#31B404"/>
<path fill-rule="evenodd" clip-rule="evenodd" d="M15.3519 10.6949C10.8941 10.8021 6.16066 15.0846 5.30289 23.9366C5.2445 24.5391 4.76648 24.9739 4.23519 24.9077C3.7039 24.8415 3.32054 24.2993 3.37892 23.6968C4.3165 14.0213 9.65882 8.63618 15.3109 8.50035C20.9925 8.3638 26.3787 13.5348 27.3856 23.528C27.4463 24.1303 27.065 24.6743 26.5339 24.7431C26.0029 24.8119 25.5232 24.3795 25.4626 23.7772C24.5379 14.5993 19.7802 10.5885 15.3519 10.6949Z" fill="#31B404"/>
<path fill-rule="evenodd" clip-rule="evenodd" d="M27.3615 24.3028C27.4942 24.89 27.1819 25.488 26.6642 25.6384C19.3436 27.7647 10.9801 27.1103 4.46037 25.6519C3.93598 25.5346 3.59473 24.9574 3.69817 24.3627C3.8016 23.768 4.31054 23.381 4.83493 23.4983C11.2045 24.9232 19.2498 25.526 26.1839 23.5119C26.7017 23.3615 27.2289 23.7156 27.3615 24.3028Z" fill="#31B404"/>
<path fill-rule="evenodd" clip-rule="evenodd" d="M3.22351 9.75444C3.51535 9.24662 4.11493 9.10325 4.56271 9.43421C5.38042 10.0386 6.15568 10.778 6.88255 11.4712C7.06192 11.6422 7.23835 11.8105 7.41175 11.9732C7.82352 12.3597 7.8811 13.0515 7.54034 13.5185C7.19959 13.9855 6.58954 14.0508 6.17776 13.6644C5.97685 13.4758 5.78203 13.2902 5.59129 13.1085C4.87442 12.4255 4.21507 11.7974 3.50588 11.2732C3.0581 10.9422 2.93168 10.2623 3.22351 9.75444Z" fill="#31B404"/>
<path fill-rule="evenodd" clip-rule="evenodd" d="M4.04249 8.75338C4.45248 9.14226 4.50687 9.83444 4.16397 10.2994C3.72552 10.8939 3.35921 11.5766 2.9833 12.34C2.88613 12.5373 2.78679 12.7435 2.68492 12.9549C2.40683 13.5319 2.10994 14.148 1.78726 14.7302C1.50283 15.2434 0.905408 15.3979 0.452888 15.0753C0.000368743 14.7528 -0.135891 14.0752 0.148543 13.562C0.437558 13.0406 0.691077 12.5145 0.958989 11.9586C1.06703 11.7344 1.1774 11.5053 1.29339 11.2698C1.6835 10.4775 2.12082 9.64838 2.67925 8.89115C3.02215 8.42618 3.63249 8.3645 4.04249 8.75338Z" fill="#31B404"/>
<path fill-rule="evenodd" clip-rule="evenodd" d="M0.306846 14.3133C0.317751 13.7073 0.759788 13.2261 1.29416 13.2384C2.99105 13.2777 5.15377 14.1839 6.338 15.9459C6.66202 16.4279 6.58009 17.1166 6.15501 17.4841C5.72993 17.8516 5.12267 17.7586 4.79866 17.2766C4.0592 16.1764 2.52194 15.4624 1.25468 15.4331C0.720299 15.4207 0.295942 14.9194 0.306846 14.3133Z" fill="#31B404"/>
<path fill-rule="evenodd" clip-rule="evenodd" d="M27.9513 12.6425C28.1294 13.2141 27.8652 13.8411 27.3612 14.0431C27.0103 14.1837 26.7069 14.4488 26.3824 14.8548C26.1605 15.1326 25.9821 15.4004 25.7788 15.7055C25.6487 15.9007 25.5085 16.1112 25.3401 16.3494C25.0058 16.8223 24.3968 16.8984 23.9797 16.5193C23.5627 16.1402 23.4956 15.4494 23.8299 14.9765C23.9264 14.8399 24.0363 14.6759 24.1546 14.4996C24.3984 14.1359 24.6777 13.7193 24.9482 13.3808C25.3893 12.8287 25.9492 12.2809 26.7163 11.9734C27.2203 11.7714 27.7732 12.071 27.9513 12.6425Z" fill="#31B404"/>
</svg>
