<svg width="30" height="30" viewBox="0 0 30 30" fill="none" xmlns="http://www.w3.org/2000/svg">
<path d="M14.9627 25.9769C15.791 25.9769 16.4625 25.3337 16.4625 24.5403C16.4625 23.7469 15.791 23.1037 14.9627 23.1037C14.1344 23.1037 13.4629 23.7469 13.4629 24.5403C13.4629 25.3337 14.1344 25.9769 14.9627 25.9769Z" fill="#31B404"/>
<path d="M14.9617 17.3575C13.0205 17.3574 11.155 18.0784 9.75734 19.3687C9.47094 19.6335 9.30609 19.9964 9.29906 20.3776C9.29203 20.7588 9.44339 21.1271 9.71984 21.4015C9.9963 21.6758 10.3752 21.8337 10.7732 21.8404C11.1712 21.8471 11.5557 21.7022 11.8421 21.4374C12.6938 20.6903 13.8068 20.276 14.9617 20.276C16.1165 20.276 17.2295 20.6903 18.0813 21.4374C18.3677 21.7022 18.7522 21.8471 19.1502 21.8404C19.5481 21.8337 19.927 21.6758 20.2035 21.4015C20.4799 21.1271 20.6313 20.7588 20.6243 20.3776C20.6172 19.9964 20.4524 19.6335 20.166 19.3687C18.7684 18.0784 16.9028 17.3574 14.9617 17.3575Z" fill="#31B404"/>
<path d="M14.9623 10.1745C13.1508 10.1757 11.3582 10.526 9.69104 11.2048C8.02392 11.8835 6.51649 12.8766 5.25853 14.1251C5.12165 14.2638 5.01462 14.4269 4.94355 14.6052C4.87248 14.7835 4.83877 14.9734 4.84434 15.1642C4.84991 15.3549 4.89466 15.5428 4.97602 15.717C5.05738 15.8912 5.17376 16.0483 5.31853 16.1794C5.61089 16.4442 6.0011 16.5869 6.40331 16.5762C6.60247 16.5708 6.79858 16.528 6.98044 16.45C7.16231 16.3721 7.32637 16.2606 7.46325 16.122C8.44261 15.1487 9.61676 14.3746 10.9155 13.8458C12.2143 13.3171 13.6111 13.0446 15.0223 13.0446C16.4335 13.0446 17.8302 13.3171 19.129 13.8458C20.4278 14.3746 21.602 15.1487 22.5813 16.122C22.7202 16.2577 22.8859 16.3657 23.0686 16.4397C23.2514 16.5137 23.4477 16.5522 23.6462 16.5529C23.9393 16.5519 24.2256 16.4686 24.4698 16.3133C24.714 16.1581 24.9054 15.9377 25.0203 15.6794C25.1352 15.4212 25.1685 15.1363 25.1162 14.8601C25.0639 14.5838 24.9283 14.3283 24.726 14.1251C23.4611 12.8697 21.9439 11.8724 20.2659 11.1935C18.5879 10.5145 16.7838 10.1679 14.9623 10.1745Z" fill="#31B404"/>
<path d="M29.5409 8.63743C25.627 5.02095 20.401 3 14.9628 3C9.52457 3 4.2985 5.02095 0.384635 8.63743C0.131524 8.90701 -0.00580774 9.2583 0.00018839 9.62081C0.00618452 9.98333 0.155065 10.3303 0.416965 10.592C0.678864 10.8538 1.03441 11.011 1.41229 11.0322C1.79016 11.0533 2.16241 10.9369 2.45437 10.7061C5.81034 7.59896 10.2953 5.86213 14.9628 5.86213C19.6302 5.86213 24.1152 7.59896 27.4712 10.7061C27.7492 10.9628 28.1199 11.1069 28.506 11.1083C28.7081 11.1076 28.9078 11.0678 29.0934 10.9913C29.279 10.9147 29.4465 10.8031 29.5859 10.663C29.8593 10.3882 30.0081 10.0209 29.9997 9.64133C29.9912 9.26178 29.8263 8.90086 29.5409 8.63743Z" fill="#31B404"/>
</svg>
