<svg width="30" height="30" viewBox="0 0 30 30" fill="none" xmlns="http://www.w3.org/2000/svg">
<g clip-path="url(#clip0_2507_1443)">
<path d="M14.4295 17.3987L12.8984 18.9297L14.4262 21.9852L15.9294 20.3986L14.4295 17.3987Z" fill="#31B404"/>
<path d="M15.4043 23.9402L16.8357 26.8032L18.339 25.2164L16.9075 22.3535L15.4043 23.9402Z" fill="#31B404"/>
<path d="M27.1486 11.544L25.6641 13.1111L28.5157 14.4749L30.0002 12.9078L27.1486 11.544Z" fill="#31B404"/>
<path d="M20.9648 10.8638L23.7162 12.1797L25.2007 10.6127L22.5052 9.32349L20.9648 10.8638Z" fill="#31B404"/>
<path d="M18.7305 20.4298L20.5614 22.8711L21.9945 21.3584L20.1635 18.9171L18.7305 20.4298Z" fill="#31B404"/>
<path d="M18.9126 17.2501L17.0551 14.7735L15.5879 16.2407L17.4795 18.7628L18.9126 17.2501Z" fill="#31B404"/>
<path d="M18.2773 13.5509L20.6321 15.4347L22.0498 13.9382L19.7388 12.0894L18.2773 13.5509Z" fill="#31B404"/>
<path d="M22.2422 16.7224L24.5994 18.6082L26.017 17.1117L23.6599 15.226L22.2422 16.7224Z" fill="#31B404"/>
<path d="M21.3558 5.00076L19.6714 6.68509L18.0847 5.0984C17.4194 4.43312 16.6296 3.9054 15.7604 3.54536C14.8912 3.18531 13.9595 3 13.0187 3C12.0779 3 11.1462 3.18531 10.277 3.54536C9.40778 3.9054 8.61799 4.43312 7.95271 5.0984C7.93076 5.12029 7.90951 5.14263 7.88794 5.16477C7.13838 4.63671 6.25816 4.32469 5.34336 4.26276C4.42855 4.20083 3.51431 4.39137 2.70041 4.81359C1.88651 5.23581 1.20423 5.87348 0.728021 6.65702C0.251812 7.44055 -2.27335e-05 8.33984 1.53921e-09 9.25674V24.7277H2.05414V9.25674C2.05412 8.71881 2.20114 8.1911 2.47929 7.73067C2.75744 7.27023 3.15614 6.89457 3.63231 6.6443C4.10847 6.39403 4.64399 6.27867 5.18097 6.31068C5.71794 6.34269 6.23596 6.52086 6.67902 6.82592C5.96837 8.1798 5.70867 9.72526 5.93778 11.2371C6.16689 12.7488 6.87283 14.148 7.95271 15.2305L9.53934 16.8171L8.00387 18.3526L9.28771 19.6365L22.6396 6.2846L21.3558 5.00076ZM10.8488 15.2216L9.40518 13.778C8.45612 12.8177 7.92563 11.5209 7.92958 10.1708C7.93354 8.82064 8.47161 7.52694 9.42629 6.57223C10.381 5.61752 11.6746 5.0794 13.0248 5.0754C14.3749 5.07139 15.6718 5.60183 16.6321 6.55086L18.0757 7.99454L10.8488 15.2216Z" fill="#31B404"/>
</g>
<defs>
<clipPath id="clip0_2507_1443">
<rect width="30" height="30" fill="white"/>
</clipPath>
</defs>
</svg>
