<svg width="30" height="30" viewBox="0 0 30 30" fill="none" xmlns="http://www.w3.org/2000/svg">
<g clip-path="url(#clip0_2507_682)">
<path fill-rule="evenodd" clip-rule="evenodd" d="M1.09745 20.7607L1.63258 20.4106C1.97333 20.1878 2.46051 19.8693 3.04626 19.4867C4.21773 18.7215 5.78354 17.6999 7.36073 16.674C8.93778 15.6483 10.5268 14.618 11.7445 13.8356C12.3531 13.4445 12.8701 13.1148 13.2467 12.8783C13.431 12.7625 13.5833 12.6681 13.697 12.5995V10.449C13.697 10.0977 13.8054 9.75257 14.0322 9.48789C14.2647 9.21646 14.6029 9.05346 14.9992 9.05346C15.3424 9.05346 15.7274 8.90761 16.0259 8.65954C16.3241 8.41173 16.4904 8.10262 16.4904 7.80089C16.4904 7.47359 16.3159 7.08031 16.0161 6.75935C15.7147 6.43653 15.3556 6.25934 15.0595 6.25934C14.733 6.25934 14.3566 6.41667 14.0568 6.68843C13.7571 6.96019 13.5866 7.2972 13.5866 7.60823C13.5866 7.93031 13.5147 8.29767 13.3403 8.60055C13.1607 8.91233 12.8414 9.19642 12.3704 9.19642C11.5929 9.19642 10.9622 8.57475 10.9622 7.80089C10.9622 5.5718 12.7686 3.75 15.001 3.75C17.2327 3.75 19.0435 5.56926 19.0435 7.80089C19.0435 9.51552 18.0564 11.0168 16.519 11.595V12.638L16.5297 12.6445C16.6494 12.7161 16.8084 12.8142 16.9998 12.9339C17.3831 13.1736 17.9029 13.5046 18.5116 13.8953C19.7294 14.6769 21.3076 15.7003 22.87 16.7173C24.4327 17.7343 25.9802 18.7452 27.1371 19.5018C27.7155 19.8801 28.1963 20.1948 28.5325 20.415L29.0602 20.7608L29.1308 20.8184C29.4194 21.1093 29.6667 21.5874 29.8211 22.1079C29.978 22.6369 30.055 23.2626 29.9555 23.8717C29.855 24.4866 29.5714 25.0961 29.0009 25.5471C28.4334 25.9957 27.6297 26.25 26.5587 26.25H3.54397C2.39179 26.25 1.54312 26.0032 0.957192 25.5588C0.361798 25.1072 0.0896835 24.491 0.0193804 23.8675C-0.0497974 23.2539 0.0739126 22.6271 0.268277 22.1003C0.461134 21.5776 0.740226 21.1087 1.02585 20.8193L1.0585 20.7862L1.09745 20.7607ZM27.0178 23.6807H3.05188C2.82996 23.6807 2.70962 23.6204 2.64237 23.5625C2.57232 23.5023 2.51883 23.4091 2.49509 23.2767C2.44703 23.0085 2.53975 22.6781 2.70495 22.4737L14.2502 15.218C14.7646 14.9523 15.3787 14.9346 15.8394 15.2049L27.432 22.4753C27.5776 22.6603 27.6472 22.9723 27.5777 23.2484C27.5428 23.3869 27.4784 23.4921 27.3972 23.5611C27.3206 23.6262 27.2041 23.6807 27.0178 23.6807Z" fill="#31B404"/>
</g>
<defs>
<clipPath id="clip0_2507_682">
<rect width="30" height="30" fill="white"/>
</clipPath>
</defs>
</svg>
