<svg width="31" height="30" viewBox="0 0 31 30" fill="none" xmlns="http://www.w3.org/2000/svg">
<g clip-path="url(#clip0_2507_506)">
<path fill-rule="evenodd" clip-rule="evenodd" d="M2.13205 2.25V12H27.9455V2.25H2.13205ZM0.0390625 2.025C0.0390625 0.906624 0.882419 0 1.92275 0H28.1548C29.1952 0 30.0385 0.90666 30.0385 2.025V13.125C30.0385 13.7463 29.57 14.25 28.992 14.25H1.08555C0.507593 14.25 0.0390625 13.7463 0.0390625 13.125V2.025Z" fill="#31B404"/>
<path fill-rule="evenodd" clip-rule="evenodd" d="M22.3652 7.125C22.3652 6.50368 22.8338 6 23.4117 6H24.807C25.385 6 25.8535 6.50368 25.8535 7.125C25.8535 7.74632 25.385 8.25 24.807 8.25H23.4117C22.8338 8.25 22.3652 7.74632 22.3652 7.125Z" fill="#31B404"/>
<path fill-rule="evenodd" clip-rule="evenodd" d="M0.780024 12.0491C1.33276 11.8675 1.91775 12.202 2.08665 12.7962L3.18852 16.6728L3.18852 16.6729C3.41264 17.4614 4.0896 18 4.85654 18H6.66712C7.24509 18 7.71362 18.5037 7.71362 19.125C7.71362 19.7463 7.24509 20.25 6.66712 20.25H4.85654C3.16925 20.25 1.67995 19.0651 1.18689 17.3303C1.18689 17.3303 1.18689 17.3303 1.18689 17.3303L0.0850191 13.4537C-0.0838745 12.8595 0.22729 12.2307 0.780024 12.0491Z" fill="#31B404"/>
<path fill-rule="evenodd" clip-rule="evenodd" d="M29.2988 12.0491C29.8516 12.2307 30.1627 12.8595 29.9938 13.4537L28.8919 17.3303C28.8919 17.3303 28.8919 17.3303 28.8919 17.3303C28.3989 19.0651 26.9097 20.25 25.2223 20.25H23.4117C22.8338 20.25 22.3652 19.7463 22.3652 19.125C22.3652 18.5037 22.8338 18 23.4117 18H25.2223C25.9893 18 26.6662 17.4614 26.8903 16.6729L26.8903 16.6728L27.9922 12.7962C28.1611 12.202 28.7461 11.8675 29.2988 12.0491Z" fill="#31B404"/>
<path fill-rule="evenodd" clip-rule="evenodd" d="M11.5512 17.25C12.1292 17.25 12.5977 17.7537 12.5977 18.375H11.5512C12.5977 18.375 12.5977 18.3746 12.5977 18.375L12.5977 18.3791L12.5977 18.3871L12.5975 18.4142C12.5974 18.4372 12.597 18.4699 12.5964 18.5117C12.5951 18.5952 12.5925 18.7152 12.5875 18.8663C12.5775 19.1684 12.5575 19.5966 12.5178 20.1091C12.4387 21.1291 12.2796 22.5064 11.956 23.8979C11.6361 25.2735 11.1356 26.7519 10.3281 27.9094C9.49854 29.0985 8.29962 30 6.66759 30C6.08962 30 5.62109 29.4963 5.62109 28.875C5.62109 28.2537 6.08962 27.75 6.66759 27.75C7.47737 27.75 8.10981 27.339 8.65374 26.5594C9.21977 25.7481 9.63496 24.6015 9.92552 23.3521C10.2124 22.1186 10.3585 20.8709 10.432 19.9222C10.4686 19.4503 10.4868 19.0581 10.4959 18.786C10.5004 18.6501 10.5026 18.5444 10.5037 18.4742C10.5042 18.439 10.5045 18.4128 10.5046 18.396L10.5047 18.3781L10.5047 18.375C10.5049 17.7539 10.9734 17.25 11.5512 17.25Z" fill="#31B404"/>
<path fill-rule="evenodd" clip-rule="evenodd" d="M19.5735 18.3746C19.5732 17.7535 19.1047 17.25 18.527 17.25C17.949 17.25 17.4805 17.7537 17.4805 18.375H18.527C17.4805 18.375 17.4805 18.3746 17.4805 18.375L17.4805 18.3791L17.4805 18.3871L17.4807 18.4142C17.4808 18.4372 17.4812 18.4699 17.4818 18.5117C17.4831 18.5952 17.4857 18.7152 17.4907 18.8663C17.5007 19.1684 17.5207 19.5966 17.5604 20.1091C17.6395 21.1291 17.7986 22.5064 18.1222 23.8979C18.4421 25.2735 18.9426 26.7519 19.75 27.9094C20.5796 29.0985 21.7786 30 23.4106 30C23.9886 30 24.4571 29.4963 24.4571 28.875C24.4571 28.2537 23.9886 27.75 23.4106 27.75C22.6008 27.75 21.9684 27.339 21.4244 26.5594C20.8584 25.7481 20.4432 24.6015 20.1527 23.3521C19.8658 22.1186 19.7197 20.8709 19.6461 19.9222C19.6096 19.4503 19.5914 19.0581 19.5823 18.786C19.5778 18.6501 19.5756 18.5444 19.5745 18.4742C19.574 18.439 19.5737 18.4128 19.5736 18.396L19.5735 18.3781L19.5735 18.3746Z" fill="#31B404"/>
<path fill-rule="evenodd" clip-rule="evenodd" d="M15.0387 17.25C15.6166 17.25 16.0852 17.7537 16.0852 18.375V28.875C16.0852 29.4963 15.6166 30 15.0387 30C14.4607 30 13.9922 29.4963 13.9922 28.875V18.375C13.9922 17.7537 14.4607 17.25 15.0387 17.25Z" fill="#31B404"/>
</g>
<defs>
<clipPath id="clip0_2507_506">
<rect width="30" height="30" fill="white" transform="translate(0.0390625)"/>
</clipPath>
</defs>
</svg>
