<svg width="30" height="30" viewBox="0 0 30 30" fill="none" xmlns="http://www.w3.org/2000/svg">
<path d="M10.7141 1.25C10.7141 0.55965 11.1938 0 11.7856 0H18.2141C18.8059 0 19.2856 0.55965 19.2856 1.25V5H24.6427C25.2344 5 25.7141 5.55965 25.7141 6.25V15.0543L28.283 16.353C28.5605 16.4933 28.7744 16.7639 28.8714 17.098C28.9687 17.4321 28.9404 17.7986 28.7937 18.107L26.3405 23.2588C26.0075 22.5498 25.5882 21.8153 24.7441 21.4633L26.3463 18.0985L16.2779 13.0085C15.4625 12.5962 14.5372 12.5962 13.7218 13.0085L3.65343 18.0985L5.25565 21.4633C4.4116 21.8153 3.9922 22.5498 3.65929 23.2588L1.20612 18.107C1.05925 17.7986 1.03094 17.4321 1.12821 17.098C1.22547 16.7639 1.43922 16.4933 1.71672 16.353L4.28558 15.0543V6.25C4.28558 5.55965 4.76528 5 5.35701 5H10.7141V1.25ZM6.42844 13.971L12.8698 10.7146C14.2288 10.0275 15.7709 10.0275 17.1299 10.7146L23.5713 13.971V7.5H6.42844V13.971ZM17.1427 2.5H12.857V5H17.1427V2.5Z" fill="#1D3054"/>
<path d="M5.57494 24.2441C5.54891 24.2841 5.5248 24.3263 5.50281 24.3703C5.45261 24.4708 5.4135 24.5786 5.37435 24.6866C5.33837 24.7858 5.30235 24.8851 5.25761 24.9791C5.12863 25.2498 4.91781 25.6198 4.59954 25.9913C3.98336 26.7101 2.91154 27.5001 1.07143 27.5001C0.4797 27.5001 0 28.0598 0 28.7501C0 29.4406 0.4797 30.0001 1.07143 30.0001C3.51703 30.0001 5.12379 28.9151 6.11475 27.7591C6.20801 27.6501 6.29535 27.5413 6.37706 27.4333C6.42977 27.5136 6.48497 27.5946 6.54274 27.6753C7.35002 28.8056 8.69859 30.0001 10.714 30.0001C12.7295 30.0001 14.0781 28.8056 14.8854 27.6753C14.9247 27.6203 14.9628 27.5653 14.9998 27.5106C15.0367 27.5653 15.0748 27.6203 15.1142 27.6753C15.9214 28.8056 17.27 30.0001 19.2855 30.0001C21.3009 30.0001 22.6496 28.8056 23.4568 27.6753C23.5146 27.5943 23.5699 27.5136 23.6226 27.4331C23.7045 27.5411 23.7919 27.6501 23.8851 27.7591C24.8762 28.9151 26.4829 30.0001 28.9286 30.0001C29.5202 30.0001 30 29.4406 30 28.7501C30 28.0598 29.5202 27.5001 28.9286 27.5001C27.0885 27.5001 26.0166 26.7101 25.4006 25.9913C24.8449 25.3431 24.6126 24.6801 24.5867 24.6006C24.5166 24.3811 24.4108 24.1876 24.255 24.0373C24.0645 23.8536 23.8224 23.7496 23.571 23.7498C23.4118 23.7498 23.2566 23.7913 23.1161 23.8686C23.0342 23.9131 22.9592 23.9688 22.8917 24.0333C22.7417 24.1766 22.6232 24.3691 22.5566 24.5988C22.5114 24.7453 22.455 24.8878 22.3952 25.0271C22.2716 25.3158 22.08 25.6978 21.8106 26.0748C21.2786 26.8196 20.4842 27.5001 19.2855 27.5001C18.0867 27.5001 17.2924 26.8196 16.7604 26.0748C16.491 25.6978 16.2994 25.3158 16.1757 25.0271C16.0839 24.8128 16.0329 24.6576 16.0185 24.6118C15.96 24.4223 15.873 24.2503 15.7571 24.1156C15.6557 23.9971 15.5325 23.9011 15.3915 23.8366C15.2681 23.7801 15.1353 23.7498 14.9998 23.7498C14.8642 23.7498 14.7314 23.7801 14.608 23.8366C14.4668 23.9011 14.3434 23.9976 14.2419 24.1161C14.1263 24.2508 14.0394 24.4226 13.981 24.6118C13.9666 24.6576 13.9156 24.8128 13.8238 25.0271C13.7001 25.3158 13.5085 25.6978 13.2392 26.0748C12.7072 26.8196 11.9129 27.5001 10.714 27.5001C9.51523 27.5001 8.72096 26.8196 8.18893 26.0748C7.91961 25.6978 7.728 25.3158 7.60429 25.0271C7.56486 24.9351 7.53201 24.8386 7.49914 24.7418C7.45605 24.6153 7.41296 24.4886 7.35499 24.3721C7.33174 24.3253 7.30611 24.2808 7.27834 24.2386C7.1526 24.0473 6.97817 23.8963 6.76738 23.8143L6.75647 23.8101C6.54684 23.7311 6.31453 23.7268 6.08953 23.8143C5.8767 23.8971 5.70094 24.0501 5.57494 24.2441V24.2441Z" fill="#1D3054"/>
</svg>
