<svg width="24" height="24" viewBox="0 0 24 24" fill="none" xmlns="http://www.w3.org/2000/svg">
<g clip-path="url(#clip0_1092_733)">
<path d="M11.5444 13.9189L10.3196 15.1438L11.5418 17.5882L12.7443 16.3188L11.5444 13.9189Z" fill="#1D3054"/>
<path d="M12.3237 19.1522L13.4689 21.4425L14.6715 20.1731L13.5263 17.8828L12.3237 19.1522Z" fill="#1D3054"/>
<path d="M21.7186 9.23511L20.531 10.4887L22.8123 11.5798L23.9999 10.3262L21.7186 9.23511Z" fill="#1D3054"/>
<path d="M16.7722 8.69102L18.9733 9.74371L20.1609 8.49012L18.0045 7.45874L16.7722 8.69102Z" fill="#1D3054"/>
<path d="M14.9841 16.3439L16.4489 18.297L17.5953 17.0868L16.1306 15.1338L14.9841 16.3439Z" fill="#1D3054"/>
<path d="M15.1304 13.8002L13.6445 11.8188L12.4707 12.9926L13.984 15.0103L15.1304 13.8002Z" fill="#1D3054"/>
<path d="M14.6226 10.8408L16.5064 12.3479L17.6405 11.1507L15.7917 9.67163L14.6226 10.8408Z" fill="#1D3054"/>
<path d="M17.7939 13.3781L19.6797 14.8867L20.8138 13.6895L18.9281 12.1809L17.7939 13.3781Z" fill="#1D3054"/>
<path d="M17.0846 4.00051L15.7371 5.34797L14.4677 4.07862C13.9355 3.5464 13.3037 3.12422 12.6083 2.83619C11.9129 2.54815 11.1676 2.3999 10.415 2.3999C9.66228 2.3999 8.91698 2.54815 8.2216 2.83619C7.52623 3.12422 6.89439 3.5464 6.36217 4.07862C6.34461 4.09613 6.32761 4.114 6.31035 4.13172C5.7107 3.70927 5.00653 3.45965 4.27468 3.41011C3.54284 3.36057 2.81145 3.513 2.16033 3.85078C1.50921 4.18855 0.963384 4.69869 0.582417 5.32552C0.20145 5.95234 -1.81868e-05 6.67177 1.23137e-09 7.40529V19.7821H1.64331V7.40529C1.6433 6.97495 1.76091 6.55279 1.98343 6.18444C2.20595 5.81609 2.52491 5.51556 2.90585 5.31535C3.28678 5.11513 3.71519 5.02284 4.14477 5.04845C4.57435 5.07405 4.98877 5.21659 5.34322 5.46064C4.7747 6.54374 4.56694 7.78011 4.75023 8.98954C4.93351 10.199 5.49826 11.3183 6.36217 12.1843L7.63147 13.4536L6.4031 14.682L7.43017 15.7091L18.1117 5.02758L17.0846 4.00051ZM8.67903 12.1772L7.52414 11.0223C6.76489 10.2541 6.3405 9.21662 6.34367 8.13652C6.34683 7.05641 6.77729 6.02145 7.54103 5.25769C8.30477 4.49392 9.33972 4.06342 10.4198 4.06022C11.4999 4.05702 12.5374 4.48137 13.3057 5.24059L14.4605 6.39553L8.67903 12.1772Z" fill="#1D3054"/>
</g>
<defs>
<clipPath id="clip0_1092_733">
<rect width="24" height="24" fill="white"/>
</clipPath>
</defs>
</svg>
