<svg width="21" height="21" viewBox="0 0 21 21" fill="none" xmlns="http://www.w3.org/2000/svg">
<g clip-path="url(#clip0_1191_6598)">
<path fill-rule="evenodd" clip-rule="evenodd" d="M6.95418 2.90455C6.78607 2.76023 6.57112 2.68186 6.34941 2.68404C6.34641 2.68407 6.34341 2.68409 6.34042 2.68409H3.59977C3.47304 2.68426 3.34774 2.71074 3.23182 2.76185C3.11578 2.81301 3.01169 2.88773 2.92617 2.98125C2.84065 3.07476 2.77557 3.18503 2.73508 3.30503C2.69523 3.42313 2.68006 3.54811 2.69047 3.67225C2.97623 6.34603 3.88829 8.91521 5.35295 11.1721L5.35727 11.1788C6.68819 13.2695 8.46393 15.042 10.5584 16.3705C10.5608 16.3721 10.5631 16.3736 10.5655 16.3751C12.8158 17.8318 15.3767 18.7419 18.0428 19.0326C18.1673 19.0429 18.2926 19.0276 18.4109 18.9877C18.5314 18.947 18.6421 18.8816 18.7359 18.7957C18.8296 18.7099 18.9044 18.6054 18.9554 18.489C19.0063 18.3727 19.0324 18.247 19.0319 18.12L19.0319 18.1163V15.3801C19.0319 15.3725 19.032 15.365 19.0322 15.3574C19.0377 15.1338 18.9607 14.9159 18.8158 14.7452C18.6717 14.5754 18.4703 14.464 18.2497 14.4322C17.3058 14.3075 16.379 14.0769 15.487 13.7446L15.485 13.7439C15.3215 13.6825 15.1437 13.6692 14.9729 13.7056C14.8027 13.7418 14.6465 13.8258 14.5225 13.9476C14.522 13.9481 14.5215 13.9486 14.521 13.9491L13.3642 15.1038C13.0734 15.3941 12.624 15.4547 12.2665 15.2517C9.83599 13.8722 7.82358 11.8634 6.44157 9.4373C6.23826 9.08038 6.29891 8.63186 6.58976 8.34154L7.74804 7.18534C7.87008 7.06159 7.9542 6.90562 7.99049 6.73576C8.02693 6.56522 8.01362 6.38783 7.95216 6.2246L7.95138 6.22254C7.61854 5.33218 7.3875 4.40714 7.26263 3.46502C7.23095 3.2472 7.12142 3.04812 6.95418 2.90455ZM6.33637 0.859952C6.99977 0.854629 7.64265 1.08965 8.14573 1.52152C8.65006 1.95446 8.97947 2.55568 9.07256 3.21313C9.07295 3.21592 9.07334 3.21872 9.07371 3.22151C9.18035 4.02861 9.37807 4.82108 9.66312 5.58383C9.84718 6.07321 9.88695 6.60499 9.77772 7.11624C9.66841 7.62786 9.41446 8.09748 9.04596 8.46945L9.04236 8.47307L8.38714 9.12711C9.46154 10.8095 10.8918 12.2372 12.5772 13.3097L13.2324 12.6556L13.2361 12.652C13.6087 12.2842 14.0792 12.0307 14.5917 11.9216C15.1039 11.8126 15.6366 11.8522 16.1268 12.0359C16.891 12.3205 17.6849 12.5179 18.4935 12.6243L18.5016 12.6254C19.1674 12.7192 19.7754 13.0539 20.2101 13.566C20.6421 14.0749 20.8728 14.7236 20.8593 15.3902V18.1147C20.8605 18.495 20.7824 18.8714 20.6297 19.2198C20.4768 19.5689 20.2525 19.8823 19.9713 20.1399C19.69 20.3975 19.3579 20.5936 18.9963 20.7156C18.6348 20.8377 18.2516 20.883 17.8715 20.8488C17.866 20.8483 17.8605 20.8477 17.855 20.8471C14.9027 20.5269 12.0667 19.5202 9.57475 17.9079C7.25653 16.4367 5.29086 14.4746 3.81706 12.1605C2.1961 9.66166 1.18732 6.81697 0.872388 3.85664C0.871884 3.8519 0.871417 3.84716 0.870988 3.84241C0.836738 3.46409 0.881781 3.08279 1.00325 2.72279C1.12472 2.36279 1.31995 2.03199 1.57651 1.75144C1.83307 1.47088 2.14535 1.24673 2.49345 1.09324C2.84156 0.93976 3.21787 0.86031 3.59842 0.859952L6.33637 0.859952Z" fill="#1D3054"/>
</g>
<defs>
<clipPath id="clip0_1191_6598">
<rect width="20" height="20" fill="white" transform="translate(0.859863 0.859863)"/>
</clipPath>
</defs>
</svg>
