<svg width="30" height="30" viewBox="0 0 30 30" fill="none" xmlns="http://www.w3.org/2000/svg">
<g clip-path="url(#clip0_2107_11661)">
<path d="M15 30.0002C14.6855 30.0003 14.374 29.9382 14.0836 29.8175C13.7931 29.6968 13.5294 29.5199 13.3076 29.297L0.701087 16.6905C0.478817 16.4682 0.302501 16.2044 0.182208 15.914C0.0619144 15.6236 0 15.3124 0 14.9981C0 14.6837 0.0619144 14.3725 0.182208 14.0821C0.302501 13.7917 0.478817 13.5279 0.701087 13.3056L13.3076 0.699141C13.7567 0.250819 14.3654 -0.000976563 15 -0.000976562C15.6346 -0.000976563 16.2433 0.250819 16.6924 0.699141L29.2989 13.3056C29.5212 13.5279 29.6975 13.7917 29.8178 14.0821C29.9381 14.3725 30 14.6837 30 14.9981C30 15.3124 29.9381 15.6236 29.8178 15.914C29.6975 16.2044 29.5212 16.4682 29.2989 16.6905L16.6924 29.297C16.4706 29.5199 16.2069 29.6968 15.9164 29.8175C15.626 29.9382 15.3145 30.0003 15 30.0002ZM13.9709 28.6359C14.106 28.7713 14.2663 28.8787 14.4429 28.952C14.6195 29.0253 14.8088 29.063 15 29.063C15.1912 29.063 15.3805 29.0253 15.5571 28.952C15.7337 28.8787 15.894 28.7713 16.0291 28.6359L28.6379 16.0271C28.7733 15.8921 28.8807 15.7317 28.9539 15.5551C29.0272 15.3785 29.0649 15.1892 29.0649 14.9981C29.0649 14.8069 29.0272 14.6176 28.9539 14.441C28.8807 14.2644 28.7733 14.104 28.6379 13.969L16.0291 1.36017C15.894 1.2248 15.7337 1.1174 15.5571 1.04411C15.3805 0.97083 15.1912 0.933108 15 0.933108C14.8088 0.933108 14.6195 0.97083 14.4429 1.04411C14.2663 1.1174 14.106 1.2248 13.9709 1.36017L1.36212 13.969C1.22675 14.104 1.11934 14.2644 1.04606 14.441C0.972776 14.6176 0.935054 14.8069 0.935054 14.9981C0.935054 15.1892 0.972776 15.3785 1.04606 15.5551C1.11934 15.7317 1.22675 15.8921 1.36212 16.0271L13.9709 28.6359Z" fill="#31B404"/>
<path d="M15 19.2176C14.5005 19.2186 14.0199 19.026 13.6593 18.6803C13.2988 18.3345 13.0861 17.8625 13.0661 17.3634L12.7192 9.04423C12.7081 8.78345 12.75 8.52313 12.8422 8.27895C12.9344 8.03477 13.0751 7.81179 13.2558 7.62343C13.4365 7.43507 13.6534 7.28524 13.8936 7.18297C14.1337 7.08069 14.3921 7.02809 14.6531 7.02832H15.3563C15.6173 7.02809 15.8757 7.08069 16.1158 7.18297C16.356 7.28524 16.5729 7.43507 16.7536 7.62343C16.9343 7.81179 17.075 8.03477 17.1672 8.27895C17.2594 8.52313 17.3012 8.78345 17.2902 9.04423L16.9339 17.3634C16.9139 17.8625 16.7013 18.3345 16.3407 18.6803C15.9801 19.026 15.4996 19.2186 15 19.2176Z" fill="#31B404"/>
<path d="M15 23.9058C14.6291 23.9058 14.2665 23.7958 13.9582 23.5898C13.6498 23.3837 13.4094 23.0908 13.2675 22.7482C13.1255 22.4055 13.0884 22.0285 13.1608 21.6647C13.2331 21.3009 13.4117 20.9668 13.674 20.7045C13.9362 20.4423 14.2704 20.2637 14.6341 20.1913C14.9979 20.1189 15.375 20.1561 15.7176 20.298C16.0603 20.44 16.3532 20.6803 16.5592 20.9887C16.7653 21.2971 16.8753 21.6596 16.8753 22.0305C16.8753 22.5279 16.6777 23.0049 16.326 23.3566C15.9743 23.7082 15.4973 23.9058 15 23.9058Z" fill="#31B404"/>
</g>
<defs>
<clipPath id="clip0_2107_11661">
<rect width="30" height="30.0012" fill="white" transform="translate(0 -0.000976562)"/>
</clipPath>
</defs>
</svg>
