<svg width="25" height="25" viewBox="0 0 25 25" fill="none" xmlns="http://www.w3.org/2000/svg">
<g clip-path="url(#clip0_1092_726)">
<path d="M12.7802 21.3347C13.4428 21.3347 13.98 20.8201 13.98 20.1854C13.98 19.5507 13.4428 19.0361 12.7802 19.0361C12.1175 19.0361 11.5803 19.5507 11.5803 20.1854C11.5803 20.8201 12.1175 21.3347 12.7802 21.3347Z" fill="#1D3054"/>
<path d="M12.7798 14.439C11.2269 14.4389 9.73442 15.0157 8.61632 16.0479C8.3872 16.2598 8.25532 16.5501 8.2497 16.8551C8.24407 17.1601 8.36516 17.4547 8.58632 17.6741C8.80749 17.8936 9.11061 18.0199 9.429 18.0253C9.7474 18.0307 10.055 17.9147 10.2841 17.7029C10.9655 17.1052 11.8559 16.7738 12.7798 16.7738C13.7037 16.7738 14.5941 17.1052 15.2755 17.7029C15.5046 17.9147 15.8122 18.0307 16.1306 18.0253C16.449 18.0199 16.7521 17.8936 16.9732 17.6741C17.1944 17.4547 17.3155 17.1601 17.3099 16.8551C17.3042 16.5501 17.1724 16.2598 16.9433 16.0479C15.8251 15.0157 14.3327 14.4389 12.7798 14.439Z" fill="#1D3054"/>
<path d="M12.7801 8.6927C11.331 8.69361 9.89682 8.97391 8.56313 9.51688C7.22944 10.0599 6.02349 10.8544 5.01713 11.8532C4.90762 11.9641 4.822 12.0946 4.76514 12.2372C4.70829 12.3799 4.68132 12.5318 4.68578 12.6844C4.69023 12.837 4.72603 12.9873 4.79112 13.1267C4.85621 13.266 4.94931 13.3917 5.06512 13.4966C5.29902 13.7085 5.61118 13.8226 5.93295 13.814C6.09228 13.8097 6.24917 13.7754 6.39466 13.7131C6.54015 13.6508 6.6714 13.5616 6.7809 13.4507C7.56439 12.6721 8.50371 12.0527 9.54273 11.6297C10.5818 11.2067 11.6991 10.9887 12.8281 10.9887C13.9571 10.9887 15.0745 11.2067 16.1135 11.6297C17.1525 12.0527 18.0919 12.6721 18.8754 13.4507C18.9865 13.5592 19.119 13.6456 19.2652 13.7048C19.4115 13.764 19.5685 13.7948 19.7272 13.7954C19.9617 13.7946 20.1908 13.7279 20.3862 13.6037C20.5815 13.4795 20.7346 13.3032 20.8265 13.0966C20.9184 12.89 20.9451 12.6621 20.9033 12.4411C20.8614 12.2201 20.7529 12.0157 20.5911 11.8532C19.5792 10.8488 18.3654 10.051 17.023 9.50787C15.6806 8.96471 14.2374 8.68742 12.7801 8.6927Z" fill="#1D3054"/>
<path d="M24.4425 7.46307C21.3114 4.56989 17.1306 2.95313 12.78 2.95312C8.42947 2.95313 4.24861 4.56989 1.11752 7.46307C0.915034 7.67874 0.805168 7.95976 0.809965 8.24977C0.814762 8.53979 0.933866 8.81734 1.14339 9.02675C1.35291 9.23616 1.63734 9.36195 1.93964 9.37887C2.24194 9.3958 2.53974 9.30261 2.77331 9.11801C5.45808 6.63229 9.04604 5.24283 12.78 5.24283C16.514 5.24283 20.102 6.63229 22.7867 9.11801C23.0092 9.32336 23.3057 9.43863 23.6146 9.4398C23.7763 9.43921 23.9361 9.40735 24.0845 9.34613C24.233 9.28491 24.367 9.19559 24.4785 9.08353C24.6973 8.86368 24.8163 8.56983 24.8095 8.26619C24.8028 7.96255 24.6708 7.67381 24.4425 7.46307Z" fill="#1D3054"/>
</g>
<defs>
<clipPath id="clip0_1092_726">
<rect width="24" height="24" fill="white" transform="translate(0.809814 0.143799)"/>
</clipPath>
</defs>
</svg>
