<?xml version="1.0" encoding="UTF-8" standalone="no"?>
<svg
   xmlns:dc="http://purl.org/dc/elements/1.1/"
   xmlns:cc="http://creativecommons.org/ns#"
   xmlns:rdf="http://www.w3.org/1999/02/22-rdf-syntax-ns#"
   xmlns:svg="http://www.w3.org/2000/svg"
   xmlns="http://www.w3.org/2000/svg"
   xmlns:sodipodi="http://sodipodi.sourceforge.net/DTD/sodipodi-0.dtd"
   xmlns:inkscape="http://www.inkscape.org/namespaces/inkscape"
   width="20"
   height="20"
   viewBox="0 0 20 20"
   fill="none"
   version="1.1"
   id="svg8"
   sodipodi:docname="icon_hide_psd.svg"
   inkscape:export-filename="/home/evgeniy/Документы/7 ветров/1VUE-project/valaam-front/img/icon_hide_psd.png"
   inkscape:export-xdpi="136.00113"
   inkscape:export-ydpi="136.00113"
   inkscape:version="0.92.5 (2060ec1f9f, 2020-04-08)">
  <metadata
     id="metadata14">
    <rdf:RDF>
      <cc:Work
         rdf:about="">
        <dc:format>image/svg+xml</dc:format>
        <dc:type
           rdf:resource="http://purl.org/dc/dcmitype/StillImage" />
      </cc:Work>
    </rdf:RDF>
  </metadata>
  <defs
     id="defs12" />
  <sodipodi:namedview
     pagecolor="#ffffff"
     bordercolor="#666666"
     borderopacity="1"
     objecttolerance="10"
     gridtolerance="10"
     guidetolerance="10"
     inkscape:pageopacity="0"
     inkscape:pageshadow="2"
     inkscape:window-width="1920"
     inkscape:window-height="1009"
     id="namedview10"
     showgrid="false"
     inkscape:zoom="11.8"
     inkscape:cx="9.9152542"
     inkscape:cy="10"
     inkscape:window-x="0"
     inkscape:window-y="0"
     inkscape:window-maximized="1"
     inkscape:current-layer="svg8" />
  <path
     d="M9.99986 5.49995C6.9177 5.50049 4.09216 7.21909 2.5662 9.99982C4.09216 12.7805 6.91775 14.4994 9.9999 14.4999V15.9999C6.15909 15.9993 2.80483 13.7623 1.10884 10.4563C1.03734 10.3149 1 10.1581 1 9.99966C1 9.84121 1.0373 9.68499 1.1088 9.54358C2.80478 6.23754 6.15905 4.00057 9.99986 4V5.49995Z"
     fill="#4F4F4F"
     id="path2" />
  <path
     d="M10.0013 5.49995C13.0835 5.50049 15.909 7.21909 17.435 9.99982C15.909 12.7805 13.0835 14.4994 10.0014 14.4999V15.9999C13.8422 15.9993 17.1964 13.7623 18.8924 10.4563C18.9639 10.3149 19.0012 10.1581 19.0012 9.99966C19.0012 9.84121 18.9639 9.68499 18.8924 9.54358C17.1964 6.23754 13.8421 4.00057 10.0013 4V5.49995Z"
     fill="#4F4F4F"
     id="path4" />
  <path
     d="M13.5 10C13.5 11.933 11.933 13.5 10 13.5C8.067 13.5 6.5 11.933 6.5 10C6.5 8.067 8.067 6.5 10 6.5C11.933 6.5 13.5 8.067 13.5 10Z"
     fill="#4F4F4F"
     id="path6" />
</svg>
