<svg width="314" height="68" viewBox="0 0 314 68" fill="none" xmlns="http://www.w3.org/2000/svg">
<path fill-rule="evenodd" clip-rule="evenodd" d="M155.962 9.94204V6.29481H151.547L147.416 36.2359V6.29481H143V9.94204H143.062C143.714 9.94204 144.244 10.4324 144.244 11.0379V44.5436C144.244 45.1491 143.714 45.6405 143.062 45.6405H143V49.2877H147.416L151.547 19.3466V49.2877H155.962V45.6405H155.9C155.247 45.6405 154.718 45.1491 154.718 44.5436V11.0379C154.718 10.4324 155.247 9.94204 155.9 9.94204H155.962ZM151.538 0H154.078V0.945267C154.078 3.38477 152.99 4.74411 150.277 4.74411H148.684C145.973 4.74411 144.883 3.38477 144.883 0.945267V0H147.423V0.945267C147.423 1.43045 147.847 1.82361 148.37 1.82361C149.11 1.82361 149.851 1.82361 150.593 1.82361C151.115 1.82361 151.538 1.43045 151.538 0.945267V0Z" fill="white"/>
<path fill-rule="evenodd" clip-rule="evenodd" d="M1 6.29297V9.94229H1.06325C1.66875 9.94229 2.17783 10.3679 2.23796 10.9273L2.24211 10.9618V10.9681L2.24315 10.9848V10.989L2.24418 11.0172V11.0392V44.5742L2.24315 44.5815V44.5951L2.24211 44.6118V44.6181L2.23796 44.6526C2.17783 45.2121 1.66875 45.6387 1.06325 45.6387H1V49.288L7.05192 49.2869C10.4143 49.2869 11.7384 47.547 11.7384 44.5418V30.0052C11.7384 29.154 11.2853 27.8584 10.6061 27.2802L10.2495 26.977L10.6424 26.7156C11.3806 26.2241 11.7384 24.8313 11.7384 24.0178V11.0392C11.7384 8.03398 10.4143 6.29297 7.05192 6.29297H1ZM5.41582 44.5418V30.0052C5.41582 29.3997 5.94564 28.9083 6.5978 28.9083H7.38474C8.0369 28.9083 8.56672 29.3997 8.56672 30.0052V44.5418C8.56672 45.1472 8.0369 45.6387 7.38474 45.6387C7.12243 45.6387 6.86011 45.6387 6.5978 45.6387C5.94564 45.6387 5.41582 45.1462 5.41582 44.5418ZM5.41582 24.0178V11.0392C5.41582 10.4337 5.94564 9.94229 6.5978 9.94229C6.86011 9.94229 7.12243 9.94229 7.38474 9.94229C8.0369 9.94229 8.56672 10.4337 8.56672 11.0392V24.0178C8.56672 24.6232 8.0369 25.1147 7.38474 25.1147H6.5978C5.94564 25.1147 5.41582 24.6232 5.41582 24.0178Z" fill="white"/>
<path fill-rule="evenodd" clip-rule="evenodd" d="M309.346 25.1147H308.559C307.907 25.1147 307.377 24.6232 307.377 24.0178V11.0392C307.377 10.4337 307.907 9.94229 308.559 9.94229H308.961V6.29297H299.961V9.94229H303.024C303.63 9.94229 304.139 10.3679 304.199 10.9273L304.203 10.9618V10.9681L304.204 10.9848V10.989L304.205 11.0172V44.5742L304.204 44.5815V44.5951L304.203 44.6118V44.6181L304.199 44.6526C304.139 45.212 303.63 45.6387 303.024 45.6387H302.961V49.288L309.013 49.2869C312.375 49.2869 313.699 47.547 313.699 44.5418V30.0052C313.699 26.0002 311.461 25.1147 309.346 25.1147ZM307.377 30.0052V44.5418C307.377 45.1462 307.907 45.6387 308.559 45.6387H309.346C309.998 45.6387 310.528 45.1472 310.528 44.5418V30.0052C310.528 29.3997 309.998 28.9083 309.346 28.9083H308.559C307.907 28.9083 307.377 29.3997 307.377 30.0052Z" fill="white"/>
<path fill-rule="evenodd" clip-rule="evenodd" d="M15.5605 45.6406V49.2878H21.2206V45.6406H21.1583C20.5062 45.6406 19.9432 45.1408 19.9774 44.5249L20.6068 32.9245H20.98C21.6539 32.9245 22.3289 32.9245 23.0039 32.9245H23.3761L24.0065 44.5249C24.0397 45.1408 23.4777 45.6406 22.8256 45.6406H22.7623V49.2878H28.4223V45.6406H28.3601C27.71 45.6406 27.2113 45.1544 27.1792 44.5626L25.3595 11.0568C25.3264 10.442 25.8883 9.94215 26.5405 9.94215H26.6037V6.29492C23.5285 6.29492 20.4543 6.29492 17.3791 6.29492V9.94215H17.4424C18.0945 9.94215 18.6565 10.442 18.6233 11.0568L16.8047 44.5626C16.7726 45.1544 16.2728 45.6406 15.6238 45.6406H15.5605ZM23.1366 28.5087H22.7239C22.2356 28.5087 21.7473 28.5087 21.2589 28.5087H20.8463L21.8053 11.1112H22.1786L23.1366 28.5087Z" fill="white"/>
<path fill-rule="evenodd" clip-rule="evenodd" d="M110.799 14.8787H113.971V11.0381C113.971 7.99208 112.611 6.29395 109.224 6.29395C105.838 6.29395 104.478 7.99208 104.478 11.0381V44.5428C104.478 47.5898 105.838 49.2879 109.224 49.2879C112.611 49.2879 113.971 47.5898 113.971 44.5428V40.7031H110.799V44.5428C110.799 45.1482 110.27 45.6397 109.618 45.6397C109.356 45.6397 109.093 45.6397 108.83 45.6397C108.178 45.6397 107.649 45.1482 107.649 44.5428V11.0381C107.649 10.4326 108.178 9.94222 108.83 9.94222C109.093 9.94222 109.356 9.94222 109.618 9.94222C110.27 9.94222 110.799 10.4326 110.799 11.0381V14.8787Z" fill="white"/>
<path fill-rule="evenodd" clip-rule="evenodd" d="M123.346 9.94215V6.29492H117.686V9.94215H117.748C118.4 9.94215 118.93 10.4336 118.93 11.039V44.5437C118.93 45.1492 118.4 45.6406 117.748 45.6406H117.686V49.2878H123.346V45.6406H123.282C122.63 45.6406 122.101 45.1492 122.101 44.5437V25.1699L122.822 29.3316L126.165 49.2878H129.966V45.627C129.292 45.5758 128.651 45.3562 128.529 44.6107L124.739 21.6628L128.278 10.923C128.56 10.0687 129.218 9.95783 129.966 9.94424V6.29492H126.322L122.101 19.7075V11.039C122.101 10.4336 122.63 9.94215 123.282 9.94215H123.346Z" fill="white"/>
<path fill-rule="evenodd" clip-rule="evenodd" d="M99.7936 9.94215V6.29492H95.3353L92.1429 29.2741L88.9505 6.29492H84.4922V9.94215H84.5544C85.2076 9.94215 85.7364 10.4336 85.7364 11.039V44.5437C85.7364 45.1492 85.2076 45.6406 84.5544 45.6406H84.4922V49.2878H90.1522V45.6406H90.0889C89.4368 45.6406 88.908 45.1492 88.908 44.5437L89.2315 26.546L91.864 47.229H92.4125L95.0346 26.546L95.3778 44.5437C95.3778 45.1492 94.849 45.6406 94.1958 45.6406H94.1336V49.2878H99.7936V45.6406H99.7303C99.0782 45.6406 98.5494 45.1492 98.5494 44.5437V11.039C98.5494 10.4336 99.0782 9.94215 99.7303 9.94215H99.7936Z" fill="white"/>
<path fill-rule="evenodd" clip-rule="evenodd" d="M50.0469 45.6406V49.2878H55.7069V45.6406H55.6436C54.9915 45.6406 54.4295 45.1398 54.4627 44.5249L55.0931 32.9234H55.4653C56.1403 32.9234 56.8152 32.9234 57.4892 32.9234H57.8624L58.4918 44.5249C58.525 45.1398 57.963 45.6406 57.3108 45.6406H57.2486V49.2878H62.9086V45.6406H62.8454C62.1963 45.6406 61.6966 45.1544 61.6645 44.5615L59.8459 11.0568C59.8127 10.442 60.3746 9.94215 61.0268 9.94215H61.089V6.29492C58.0148 6.29492 54.9396 6.29492 51.8655 6.29492V9.94215H51.9277C52.5798 9.94215 53.1428 10.442 53.1086 11.0568L51.29 44.5615C51.2579 45.1544 50.7592 45.6406 50.1091 45.6406H50.0469ZM57.6229 28.5087H57.2103C56.7219 28.5087 56.2336 28.5087 55.7452 28.5087H55.3326L56.2906 11.1112H56.6639L57.6229 28.5087Z" fill="white"/>
<path fill-rule="evenodd" clip-rule="evenodd" d="M66.8379 45.6406V49.2878H72.4979V45.6406H72.4357C71.7835 45.6406 71.2205 45.1408 71.2548 44.5249L71.8841 32.9245H72.2574C72.9313 32.9245 73.6063 32.9245 74.2812 32.9245H74.6534L75.2838 44.5249C75.317 45.1408 74.7551 45.6406 74.1029 45.6406H74.0396V49.2878H79.6997V45.6406H79.6374C78.9874 45.6406 78.4886 45.1544 78.4565 44.5626L76.6369 11.0568C76.6037 10.442 77.1657 9.94215 77.8178 9.94215H77.8811V6.29492C74.8059 6.29492 71.7317 6.29492 68.6565 6.29492V9.94215H68.7197C69.3719 9.94215 69.9338 10.442 69.9007 11.0568L68.0821 44.5626C68.0499 45.1544 67.5502 45.6406 66.9011 45.6406H66.8379ZM74.4139 28.5087H74.0013C73.5129 28.5087 73.0246 28.5087 72.5363 28.5087H72.1236L73.0827 11.1112H73.4549L74.4139 28.5087Z" fill="white"/>
<path fill-rule="evenodd" clip-rule="evenodd" d="M40.6719 45.6382V49.2875C42.5589 49.2875 44.4448 49.2875 46.3319 49.2875V45.6382H46.2697C45.6154 45.6382 45.0877 45.1499 45.0877 44.5434L45.0939 10.9268C45.154 10.3674 45.6631 9.9418 46.2697 9.9418H46.3319V6.29248H41.0648C37.6589 6.29771 36.8076 8.1391 36.7713 11.0429C36.6293 22.2188 35.89 33.3779 35.5935 44.5507C35.5738 45.3234 34.8294 45.6413 34.396 45.6382C33.749 45.633 33.2296 45.1405 33.2296 44.5413V42.816H31.0906C31.0481 45.679 30.6251 49.23 34.8449 49.23C37.5614 49.23 38.4614 46.6148 38.5702 44.5235C39.1488 33.3602 39.8704 22.2062 40.1389 11.0303C40.1731 9.60092 41.9098 9.57582 41.916 11.0345C41.9606 22.2041 41.916 33.3727 41.916 44.5413C41.916 45.1467 41.3862 45.6382 40.7351 45.6382H40.6719Z" fill="white"/>
<path fill-rule="evenodd" clip-rule="evenodd" d="M262.827 9.94215V6.29492H258.411V23.3369H255.262V6.29492H250.846V9.94215H250.908C251.56 9.94215 252.09 10.4326 252.09 11.038V44.5437C252.09 45.1492 251.56 45.6406 250.908 45.6406H250.846V49.2878H255.262V27.2853H258.411V49.2878H262.827V45.6406H262.765C262.113 45.6406 261.583 45.1492 261.583 44.5437V11.038C261.583 10.4326 262.113 9.94215 262.765 9.94215H262.827Z" fill="white"/>
<path fill-rule="evenodd" clip-rule="evenodd" d="M246.641 9.94215V6.29492H242.183L238.991 29.2741L235.798 6.29492H231.34V9.94215H231.402C232.055 9.94215 232.584 10.4326 232.584 11.038V44.5437C232.584 45.1492 232.055 45.6406 231.402 45.6406H231.34V49.2878H237V45.6406H236.937C236.284 45.6406 235.756 45.1492 235.756 44.5437L236.079 26.546L238.712 47.229H239.26L241.882 26.546L242.225 44.5437C242.225 45.1492 241.697 45.6406 241.043 45.6406H240.981V49.2878H246.641V45.6406H246.579C245.926 45.6406 245.397 45.1492 245.397 44.5437V11.038C245.397 10.4326 245.926 9.94215 246.579 9.94215H246.641Z" fill="white"/>
<path fill-rule="evenodd" clip-rule="evenodd" d="M226.331 11.0391C226.331 7.99208 224.971 6.29395 221.583 6.29395C218.197 6.29395 216.837 7.99208 216.837 11.0391V44.5428C216.837 47.5898 218.197 49.2879 221.583 49.2879C224.971 49.2879 226.331 47.5898 226.331 44.5428V11.0391ZM221.977 45.6397C221.715 45.6397 221.453 45.6397 221.191 45.6397C220.538 45.6397 220.009 45.1482 220.009 44.5428V11.0391C220.009 10.4337 220.538 9.94222 221.191 9.94222C221.453 9.94222 221.715 9.94222 221.977 9.94222C222.63 9.94222 223.159 10.4337 223.159 11.0391V44.5428C223.159 45.1482 222.63 45.6397 221.977 45.6397Z" fill="white"/>
<path fill-rule="evenodd" clip-rule="evenodd" d="M181.645 45.6406V49.2878H187.305V45.6406H187.241C186.589 45.6406 186.027 45.1408 186.06 44.5249L186.691 32.9234H187.063C187.738 32.9234 188.413 32.9234 189.087 32.9234H189.46L190.089 44.5249C190.124 45.1408 189.561 45.6406 188.908 45.6406H188.846V49.2878H194.506V45.6406H194.443C193.794 45.6406 193.294 45.1544 193.262 44.5626L191.444 11.0568C191.41 10.442 191.972 9.94215 192.624 9.94215H192.687V6.29492C189.612 6.29492 186.537 6.29492 183.463 6.29492V9.94215H183.525C184.177 9.94215 184.74 10.442 184.706 11.0568L182.888 44.5626C182.856 45.1544 182.357 45.6406 181.707 45.6406H181.645ZM189.221 28.5087H188.808C188.32 28.5087 187.831 28.5087 187.343 28.5087H186.93L187.888 11.1112H188.262L189.221 28.5087Z" fill="white"/>
<path fill-rule="evenodd" clip-rule="evenodd" d="M178.33 9.94215V6.29492C174.336 6.29492 170.341 6.29492 166.348 6.29492V9.94215H166.411C167.063 9.94215 167.592 10.4326 167.592 11.038V44.5437C167.592 45.1492 167.063 45.6406 166.411 45.6406H166.348V49.2878H170.763V10.2433H173.914V49.2878H178.33V45.6406H178.267C177.615 45.6406 177.086 45.1492 177.086 44.5437V11.038C177.086 10.4326 177.615 9.94215 178.267 9.94215H178.33Z" fill="white"/>
<path fill-rule="evenodd" clip-rule="evenodd" d="M207.217 45.6387V49.288C209.103 49.288 210.99 49.288 212.877 49.288V45.6387H212.814C212.161 45.6387 211.633 45.1504 211.633 44.5439L211.638 10.9273C211.7 10.3679 212.209 9.94229 212.814 9.94229H212.877V6.29297H207.61C204.203 6.2982 203.353 8.13959 203.316 11.0434C203.174 22.2193 202.435 33.3784 202.139 44.5512C202.118 45.3239 201.374 45.6418 200.94 45.6387C200.295 45.6334 199.775 45.1409 199.775 44.5418V42.8165H197.635C197.594 45.6794 197.17 49.2305 201.39 49.2305C204.106 49.2305 205.007 46.6153 205.115 44.524C205.694 33.3607 206.415 22.2057 206.683 11.0308C206.719 9.6014 208.455 9.57631 208.462 11.035C208.506 22.2046 208.462 33.3732 208.462 44.5418C208.462 45.1472 207.932 45.6387 207.28 45.6387H207.217Z" fill="white"/>
<path fill-rule="evenodd" clip-rule="evenodd" d="M290.341 9.94215V6.29492H284.681V9.94215H284.743C285.396 9.94215 285.925 10.4326 285.925 11.038V44.5437C285.925 45.1492 285.396 45.6406 284.743 45.6406H284.681V49.2878H290.341V45.6406H290.278C289.625 45.6406 289.096 45.1492 289.096 44.5437V25.1699L289.817 29.3316L293.16 49.2878H296.961V45.627C296.287 45.5758 295.646 45.3562 295.524 44.6107L291.734 21.6628L295.273 10.923C295.555 10.0687 296.213 9.95783 296.961 9.94424V6.29492H293.317L289.096 19.7075V11.038C289.096 10.4326 289.625 9.94215 290.278 9.94215H290.341Z" fill="white"/>
<path fill-rule="evenodd" clip-rule="evenodd" d="M279.966 9.94215V6.29492H275.55L271.42 36.2361V6.29492H267.004V9.94215H267.066C267.718 9.94215 268.248 10.4326 268.248 11.038V44.5437C268.248 45.1492 267.718 45.6406 267.066 45.6406H267.004V49.2878H271.42L275.55 19.3467V49.2878H279.966V45.6406H279.904C279.252 45.6406 278.722 45.1492 278.722 44.5437V11.038C278.722 10.4326 279.252 9.94215 279.904 9.94215H279.966Z" fill="white"/>
<path d="M138.251 6.29492H137.251V6.2998L134 6.29492V9.94215H134.062C134.714 9.94215 135.244 10.4326 135.244 11.038V44.5437C135.244 45.1492 134.714 45.6406 134.062 45.6406H134V49.2878L137.251 49.2927V49.2949H138.251V49.2927H139.751V45.6455H139.689C139.037 45.6455 138.507 45.1541 138.507 44.5486V11.0429C138.507 10.4374 139.037 9.94703 139.689 9.94703H139.751V6.2998H138.251V6.29492Z" fill="white"/>
<path d="M14.4287 66.8514H13V58.1192H18.6714V66.8514H17.2479V59.5904H14.4287V66.8514ZM26.544 66.8514H24.9856L24.3646 64.8668H21.5299L20.9452 66.8514H19.421L22.1852 58.1192H23.7031L26.544 66.8514ZM23.9042 63.3966L22.9286 60.1561L21.9675 63.3966H23.9042ZM31.358 66.8514V59.5904H29.2314V63.3255C29.2314 64.2979 29.2024 65.0173 29.1464 65.4847C29.0894 65.9511 28.9484 66.3045 28.7265 66.5482C28.5057 66.7908 28.1428 66.91 27.642 66.91C27.4968 66.91 27.1972 66.8922 26.7389 66.8514V65.4753H27.052C27.36 65.4753 27.5621 65.4241 27.6586 65.3248C27.755 65.2223 27.8017 64.9703 27.8017 64.5698V58.1192H32.7877V66.8514H31.358ZM33.9873 62.5391C33.9873 61.4977 34.1377 60.6423 34.4446 59.9689C34.7494 59.2955 35.1486 58.7936 35.64 58.4642C36.1325 58.1349 36.7287 57.9707 37.4306 57.9707C38.4467 57.9707 39.273 58.3607 39.9138 59.1439C40.5535 59.9261 40.8739 61.0407 40.8739 62.4858C40.8739 63.9455 40.5348 65.0884 39.8578 65.9103C39.2627 66.6381 38.4571 66.9999 37.4368 66.9999C36.4083 66.9999 35.5975 66.6402 35.0034 65.9218C34.3253 65.101 33.9873 63.9727 33.9873 62.5391ZM35.4627 62.4795C35.4627 63.4844 35.6525 64.2362 36.0288 64.7392C36.4083 65.2411 36.8759 65.4931 37.4368 65.4931C37.9988 65.4931 38.4643 65.2432 38.8355 64.7455C39.2067 64.2467 39.3902 63.4823 39.3902 62.4492C39.3902 61.437 39.2108 60.6883 38.85 60.2032C38.4913 59.719 38.0185 59.4764 37.4368 59.4764C36.8541 59.4764 36.3782 59.7211 36.0133 60.2084C35.6462 60.6988 35.4627 61.4548 35.4627 62.4795ZM41.9729 66.8514V58.1192H44.116L45.4038 64.0763L46.6801 58.1192H48.8294V66.8514H47.5002V59.9773L46.0891 66.8514H44.706L43.3073 59.9773V66.8514H41.9729ZM50.2582 66.8514V58.1192H51.6879V61.5552H54.5008V58.1192H55.9358V66.8514H54.5008V63.0327H51.6879V66.8514H50.2582ZM57.4174 66.8514V58.1192H58.7829V63.9382L61.6528 58.1192H63.0888V66.8514H61.7244V61.1568L58.8596 66.8514H57.4174ZM64.4294 61.2394V58.1192H65.8592V60.4363C65.8592 60.9205 65.8789 61.2802 65.9214 61.5165C65.9618 61.7539 66.079 61.9536 66.2677 62.1157C66.4595 62.2788 66.7581 62.3603 67.1635 62.3603C67.7701 62.3603 68.2543 62.2014 68.6171 61.8846V58.1192H70.0459V66.8514H68.6171V63.3359C68.0541 63.6475 67.488 63.8012 66.9209 63.8012C66.135 63.8012 65.5222 63.5775 65.0847 63.131C64.6472 62.6855 64.4294 62.055 64.4294 61.2394ZM71.5223 66.8514V58.1192H76.7925V59.5967H72.9511V61.5322H76.5198V63.0024H72.9511V65.3791H76.921V66.8514H71.5223ZM82.6785 63.6413L84.0678 64.1819C83.8501 65.1595 83.4914 65.8737 82.9875 66.3244C82.4836 66.774 81.8625 66.9999 81.1264 66.9999C80.2015 66.9999 79.4509 66.6402 78.8765 65.9218C78.2129 65.0926 77.8822 63.9727 77.8822 62.5632C77.8822 61.0731 78.215 59.9083 78.8827 59.0665C79.4613 58.3367 80.2378 57.9707 81.2155 57.9707C82.0098 57.9707 82.6754 58.2447 83.2114 58.7915C83.5919 59.1826 83.8729 59.7598 84.0502 60.5263L82.6329 60.9424C82.5416 60.4688 82.3623 60.107 82.0927 59.855C81.8221 59.603 81.5038 59.4764 81.1388 59.4764C80.6142 59.4764 80.187 59.7065 79.8563 60.1687C79.5255 60.6277 79.3607 61.3879 79.3607 62.4492C79.3607 63.5492 79.5214 64.3324 79.8449 64.7957C80.1673 65.261 80.5862 65.4931 81.1025 65.4931C81.481 65.4931 81.8076 65.3446 82.0823 65.0498C82.3581 64.7528 82.5582 64.2833 82.6785 63.6413ZM85.3203 66.8514V58.1192H86.7491V61.8354C87.0684 61.7967 87.2892 61.6869 87.4106 61.5123C87.5339 61.3356 87.6946 60.9079 87.8948 60.2335C88.0959 59.558 88.3053 59.0665 88.521 58.7591C88.7377 58.4517 88.9689 58.2635 89.2125 58.1955C89.4572 58.1286 89.8761 58.0826 90.4713 58.0533V59.3635H90.2691C89.8637 59.3635 89.59 59.4587 89.4448 59.6479C89.3017 59.8351 89.1545 60.2011 89.0031 60.7396C88.8517 61.2802 88.7211 61.6399 88.6122 61.8176C88.5054 61.9965 88.3302 62.1732 88.0897 62.3478C88.4049 62.4795 88.663 62.6918 88.86 62.9867C89.0601 63.2795 89.2996 63.7709 89.5775 64.4621L90.548 66.8514H88.8642L88.0078 64.5949C87.7921 64.0166 87.6044 63.6162 87.4489 63.3872C87.2934 63.1592 87.0601 63.0411 86.7491 63.0327V66.8514H85.3203ZM97.7528 66.8514H96.1945L95.5734 64.8668H92.7388L92.154 66.8514H90.6299L93.3941 58.1192H94.912L97.7528 66.8514ZM95.1141 63.3966L94.1385 60.1561L93.1763 63.3966H95.1141ZM104.223 66.8514V58.1192H101.204C100.432 58.1192 99.8804 58.1976 99.5497 58.3545C99.2189 58.5113 98.9462 58.7832 98.7347 59.1701C98.5232 59.558 98.4164 60.0223 98.4164 60.5608C98.4164 61.2436 98.5771 61.7946 98.9027 62.2119C99.2293 62.628 99.6907 62.8905 100.287 62.9961C99.981 63.2199 99.7269 63.4625 99.5268 63.726C99.3257 63.9905 99.0509 64.4642 98.7047 65.148L97.8441 66.8514H99.5497L100.59 64.9504C100.963 64.2655 101.217 63.8337 101.352 63.6611C101.484 63.4886 101.627 63.3704 101.777 63.3035C101.926 63.2387 102.167 63.2063 102.496 63.2063H102.793V66.8514H104.223ZM102.793 61.8114H101.729C101.08 61.8114 100.666 61.7831 100.489 61.7256C100.312 61.6692 100.169 61.5531 100.058 61.3785C99.9488 61.2028 99.8918 60.9696 99.8918 60.681C99.8918 60.4018 99.9488 60.1781 100.058 60.0097C100.169 59.8414 100.318 59.7253 100.507 59.6615C100.64 59.6176 101.029 59.5967 101.67 59.5967H102.793V61.8114ZM112.974 63.6413L114.364 64.1819C114.146 65.1595 113.786 65.8737 113.282 66.3244C112.778 66.774 112.157 66.9999 111.422 66.9999C110.496 66.9999 109.747 66.6402 109.172 65.9218C108.509 65.0926 108.178 63.9727 108.178 62.5632C108.178 61.0731 108.511 59.9083 109.178 59.0665C109.756 58.3367 110.533 57.9707 111.51 57.9707C112.305 57.9707 112.97 58.2447 113.506 58.7915C113.888 59.1826 114.168 59.7598 114.345 60.5263L112.928 60.9424C112.838 60.4688 112.658 60.107 112.388 59.855C112.117 59.603 111.799 59.4764 111.434 59.4764C110.91 59.4764 110.483 59.7065 110.152 60.1687C109.821 60.6277 109.656 61.3879 109.656 62.4492C109.656 63.5492 109.817 64.3324 110.14 64.7957C110.462 65.261 110.881 65.4931 111.397 65.4931C111.777 65.4931 112.103 65.3446 112.377 65.0498C112.654 64.7528 112.853 64.2833 112.974 63.6413ZM119.643 66.8514V59.5904H117.517V63.3255C117.517 64.2979 117.488 65.0173 117.432 65.4847C117.376 65.9511 117.234 66.3045 117.013 66.5482C116.791 66.7908 116.428 66.91 115.927 66.91C115.782 66.91 115.482 66.8922 115.024 66.8514V65.4753H115.337C115.645 65.4753 115.847 65.4241 115.944 65.3248C116.04 65.2223 116.087 64.9703 116.087 64.5698V58.1192H121.073V66.8514H119.643ZM124.446 64.3847L121.835 58.1192H123.441L125.089 62.6531L126.518 58.1192H128.002L125.609 64.7549C125.315 65.5642 125.028 66.1341 124.752 66.4656C124.478 66.7949 124.145 66.9591 123.76 66.9591C123.389 66.9591 123.059 66.9225 122.768 66.8514V65.5464C123.005 65.5621 123.184 65.5705 123.306 65.5705C123.652 65.5705 123.895 65.4973 124.034 65.3509C124.175 65.2024 124.312 64.8814 124.446 64.3847ZM131.8 58.1192H133.165V61.8354C133.423 61.8093 133.614 61.6911 133.738 61.4883C133.858 61.2823 134.041 60.7908 134.28 60.0076C134.52 59.2244 134.788 58.7047 135.085 58.4465C135.379 58.1882 135.945 58.0575 136.784 58.0533V59.3635H136.579C136.173 59.3635 135.899 59.4587 135.758 59.6479C135.614 59.8351 135.461 60.223 135.294 60.8107C135.127 61.3983 134.982 61.7706 134.859 61.9285C134.737 62.0853 134.585 62.2255 134.399 62.3478C134.671 62.4597 134.911 62.651 135.119 62.9229C135.328 63.1958 135.584 63.7082 135.887 64.4621L136.857 66.8514H135.173L134.316 64.5949C134.122 64.0867 133.943 63.6935 133.778 63.4196C133.612 63.1467 133.409 63.017 133.165 63.0327V66.8514H131.8V63.0327C131.582 63.0254 131.395 63.131 131.236 63.3527C131.076 63.5722 130.883 63.9863 130.653 64.5949L129.792 66.8514H128.109L129.076 64.4621C129.36 63.7709 129.601 63.2795 129.8 62.9867C130 62.6918 130.254 62.4795 130.564 62.3478C130.325 62.1732 130.153 61.9996 130.048 61.8291C129.943 61.6587 129.81 61.2906 129.648 60.7208C129.484 60.154 129.324 59.7797 129.17 59.5988C129.012 59.4179 128.685 59.3405 128.186 59.3635V58.0533C129.02 58.046 129.586 58.1777 129.883 58.4507C130.181 58.7204 130.449 59.2453 130.69 60.0202C130.929 60.794 131.11 61.2844 131.234 61.4893C131.354 61.6974 131.544 61.8114 131.8 61.8354V58.1192ZM137.717 66.8514V58.1192H143.028V59.5904H139.147V61.5918H141.179C141.947 61.5918 142.55 61.8333 142.985 62.3154C143.423 62.7974 143.643 63.4353 143.643 64.231C143.643 64.9222 143.455 65.5318 143.084 66.0588C142.711 66.5869 142.076 66.8514 141.179 66.8514H137.717ZM139.147 63.0693V65.3729H140.659C141.052 65.3729 141.336 65.3467 141.512 65.2944C141.687 65.2411 141.841 65.1146 141.973 64.9222C142.104 64.7266 142.171 64.5008 142.171 64.2425C142.171 63.4604 141.687 63.0693 140.718 63.0693H139.147ZM151.225 66.8514H149.666L149.045 64.8668H146.211L145.626 66.8514H144.102L146.866 58.1192H148.384L151.225 66.8514ZM148.586 63.3966L147.61 60.1561L146.648 63.3966H148.586ZM154.739 58.1192H157.582C158.356 58.1192 158.902 58.1903 159.217 58.3346C159.531 58.4768 159.797 58.7288 160.015 59.0906C160.231 59.4503 160.339 59.8612 160.339 60.3171C160.339 60.7375 160.247 61.1181 160.062 61.4569C159.876 61.7967 159.635 62.0487 159.341 62.2119C159.763 62.3624 160.092 62.6207 160.329 62.9867C160.57 63.3506 160.688 63.795 160.688 64.3199C160.688 64.9546 160.535 65.4931 160.233 65.9302C159.93 66.3694 159.571 66.6402 159.159 66.7437C158.87 66.8148 158.203 66.8514 157.156 66.8514H154.739V58.1192ZM156.168 59.5726V61.5918H157.114C157.68 61.5918 158.032 61.5813 158.166 61.5604C158.41 61.5228 158.6 61.4182 158.739 61.2499C158.876 61.0815 158.944 60.8515 158.944 60.5608C158.944 60.3025 158.89 60.0934 158.777 59.9323C158.664 59.7713 158.529 59.672 158.37 59.6312C158.211 59.5925 157.753 59.5726 156.997 59.5726H156.168ZM156.168 63.0452V65.3791H157.499C158.081 65.3791 158.455 65.3488 158.619 65.2882C158.785 65.2265 158.924 65.1052 159.037 64.9243C159.148 64.7434 159.204 64.5154 159.204 64.2362C159.204 63.9497 159.144 63.7165 159.025 63.5315C158.905 63.3464 158.745 63.2178 158.547 63.1488C158.348 63.0797 157.94 63.0452 157.328 63.0452H156.168ZM168.301 66.8514H166.743L166.122 64.8668H163.287L162.702 66.8514H161.178L163.942 58.1192H165.46L168.301 66.8514ZM165.661 63.3966L164.686 60.1561L163.725 63.3966H165.661ZM173.115 66.8514V59.5904H170.989V63.3255C170.989 64.2979 170.96 65.0173 170.904 65.4847C170.847 65.9511 170.706 66.3045 170.485 66.5482C170.263 66.7908 169.9 66.91 169.399 66.91C169.254 66.91 168.954 66.8922 168.496 66.8514V65.4753H168.809C169.117 65.4753 169.319 65.4241 169.416 65.3248C169.512 65.2223 169.559 64.9703 169.559 64.5698V58.1192H174.545V66.8514H173.115ZM182.43 66.8514H180.871L180.251 64.8668H177.416L176.831 66.8514H175.307L178.071 58.1192H179.589L182.43 66.8514ZM179.79 63.3966L178.815 60.1561L177.853 63.3966H179.79ZM189.588 66.8514H188.03L187.409 64.8668H184.574L183.99 66.8514H182.466L185.229 58.1192H186.748L189.588 66.8514ZM186.949 63.3966L185.974 60.1561L185.012 63.3966H186.949ZM190.328 66.8514V58.1192H192.472L193.759 64.0763L195.036 58.1192H197.185V66.8514H195.857V59.9773L194.445 66.8514H193.063L191.663 59.9773V66.8514H190.328ZM203.157 63.6413L204.545 64.1819C204.328 65.1595 203.969 65.8737 203.465 66.3244C202.961 66.774 202.34 66.9999 201.604 66.9999C200.679 66.9999 199.929 66.6402 199.354 65.9218C198.691 65.0926 198.361 63.9727 198.361 62.5632C198.361 61.0731 198.694 59.9083 199.36 59.0665C199.939 58.3367 200.715 57.9707 201.693 57.9707C202.487 57.9707 203.153 58.2447 203.689 58.7915C204.069 59.1826 204.35 59.7598 204.528 60.5263L203.11 60.9424C203.019 60.4688 202.84 60.107 202.57 59.855C202.3 59.603 201.981 59.4764 201.616 59.4764C201.092 59.4764 200.665 59.7065 200.334 60.1687C200.003 60.6277 199.838 61.3879 199.838 62.4492C199.838 63.5492 200 64.3324 200.322 64.7957C200.645 65.261 201.064 65.4931 201.58 65.4931C201.96 65.4931 202.286 65.3446 202.56 65.0498C202.836 64.7528 203.036 64.2833 203.157 63.6413ZM205.798 66.8514V58.1192H207.227V61.8354C207.546 61.7967 207.768 61.6869 207.888 61.5123C208.011 61.3356 208.172 60.9079 208.372 60.2335C208.573 59.558 208.784 59.0665 209 58.7591C209.215 58.4517 209.446 58.2635 209.691 58.1955C209.935 58.1286 210.354 58.0826 210.949 58.0533V59.3635H210.747C210.342 59.3635 210.067 59.4587 209.922 59.6479C209.779 59.8351 209.632 60.2011 209.481 60.7396C209.329 61.2802 209.199 61.6399 209.09 61.8176C208.983 61.9965 208.808 62.1732 208.567 62.3478C208.882 62.4795 209.141 62.6918 209.338 62.9867C209.538 63.2795 209.777 63.7709 210.055 64.4621L211.026 66.8514H209.342L208.485 64.5949C208.27 64.0166 208.082 63.6162 207.926 63.3872C207.771 63.1592 207.538 63.0411 207.227 63.0327V66.8514H205.798ZM211.545 62.5391C211.545 61.4977 211.696 60.6423 212.003 59.9689C212.307 59.2955 212.706 58.7936 213.199 58.4642C213.69 58.1349 214.287 57.9707 214.989 57.9707C216.005 57.9707 216.832 58.3607 217.472 59.1439C218.112 59.9261 218.433 61.0407 218.433 62.4858C218.433 63.9455 218.094 65.0884 217.416 65.9103C216.821 66.6381 216.015 66.9999 214.994 66.9999C213.967 66.9999 213.156 66.6402 212.561 65.9218C211.884 65.101 211.545 63.9727 211.545 62.5391ZM213.021 62.4795C213.021 63.4844 213.211 64.2362 213.587 64.7392C213.967 65.2411 214.435 65.4931 214.994 65.4931C215.557 65.4931 216.023 65.2432 216.394 64.7455C216.765 64.2467 216.949 63.4823 216.949 62.4492C216.949 61.437 216.77 60.6883 216.408 60.2032C216.049 59.719 215.577 59.4764 214.994 59.4764C214.413 59.4764 213.937 59.7211 213.572 60.2084C213.205 60.6988 213.021 61.4548 213.021 62.4795ZM219.577 66.8514V58.1903H224.576V59.6678H221.007V66.8514H219.577ZM225.23 62.5391C225.23 61.4977 225.381 60.6423 225.688 59.9689C225.992 59.2955 226.391 58.7936 226.884 58.4642C227.375 58.1349 227.972 57.9707 228.674 57.9707C229.69 57.9707 230.517 58.3607 231.157 59.1439C231.797 59.9261 232.118 61.0407 232.118 62.4858C232.118 63.9455 231.779 65.0884 231.101 65.9103C230.506 66.6381 229.7 66.9999 228.68 66.9999C227.652 66.9999 226.841 66.6402 226.247 65.9218C225.569 65.101 225.23 63.9727 225.23 62.5391ZM226.706 62.4795C226.706 63.4844 226.896 64.2362 227.273 64.7392C227.652 65.2411 228.12 65.4931 228.68 65.4931C229.242 65.4931 229.708 65.2432 230.079 64.7455C230.45 64.2467 230.634 63.4823 230.634 62.4492C230.634 61.437 230.454 60.6883 230.094 60.2032C229.734 59.719 229.262 59.4764 228.68 59.4764C228.098 59.4764 227.622 59.7211 227.257 60.2084C226.89 60.6988 226.706 61.4548 226.706 62.4795ZM235.975 66.8514V58.1192H238.118L239.405 64.0763L240.682 58.1192H242.831V66.8514H241.502V59.9773L240.091 66.8514H238.708L237.309 59.9773V66.8514H235.975ZM243.972 62.5391C243.972 61.4977 244.123 60.6423 244.43 59.9689C244.734 59.2955 245.133 58.7936 245.625 58.4642C246.117 58.1349 246.714 57.9707 247.415 57.9707C248.431 57.9707 249.258 58.3607 249.899 59.1439C250.538 59.9261 250.859 61.0407 250.859 62.4858C250.859 63.9455 250.52 65.0884 249.843 65.9103C249.248 66.6381 248.441 66.9999 247.421 66.9999C246.394 66.9999 245.583 66.6402 244.988 65.9218C244.311 65.101 243.972 63.9727 243.972 62.5391ZM245.448 62.4795C245.448 63.4844 245.637 64.2362 246.014 64.7392C246.394 65.2411 246.861 65.4931 247.421 65.4931C247.984 65.4931 248.45 65.2432 248.821 64.7455C249.191 64.2467 249.374 63.4823 249.374 62.4492C249.374 61.437 249.195 60.6883 248.834 60.2032C248.475 59.719 248.004 59.4764 247.421 59.4764C246.838 59.4764 246.362 59.7211 245.997 60.2084C245.631 60.6988 245.448 61.4548 245.448 62.4795ZM251.98 66.8514V58.1192H253.409V61.5552H256.222V58.1192H257.657V66.8514H256.222V63.0327H253.409V66.8514H251.98ZM265.535 66.8514H263.977L263.356 64.8668H260.521L259.937 66.8514H258.412L261.177 58.1192H262.694L265.535 66.8514ZM262.897 63.3966L261.921 60.1561L260.959 63.3966H262.897ZM270.84 63.6413L272.229 64.1819C272.011 65.1595 271.653 65.8737 271.149 66.3244C270.644 66.774 270.024 66.9999 269.288 66.9999C268.362 66.9999 267.612 66.6402 267.038 65.9218C266.374 65.0926 266.043 63.9727 266.043 62.5632C266.043 61.0731 266.376 59.9083 267.044 59.0665C267.622 58.3367 268.398 57.9707 269.376 57.9707C270.171 57.9707 270.836 58.2447 271.372 58.7915C271.753 59.1826 272.033 59.7598 272.21 60.5263L270.793 60.9424C270.703 60.4688 270.523 60.107 270.253 59.855C269.983 59.603 269.664 59.4764 269.3 59.4764C268.775 59.4764 268.348 59.7065 268.017 60.1687C267.687 60.6277 267.522 61.3879 267.522 62.4492C267.522 63.5492 267.683 64.3324 268.005 64.7957C268.327 65.261 268.747 65.4931 269.264 65.4931C269.642 65.4931 269.969 65.3446 270.244 65.0498C270.519 64.7528 270.718 64.2833 270.84 63.6413ZM275.051 66.8514V59.5967H272.942V58.1192H278.584V59.5967H276.481V66.8514H275.051ZM279.541 66.8514V58.1192H280.97V61.5918H283.003C283.759 61.5918 284.358 61.8375 284.801 62.3279C285.244 62.8173 285.466 63.4645 285.466 64.2676C285.466 64.9222 285.287 65.5161 284.928 66.0504C284.569 66.5848 283.932 66.8514 283.015 66.8514H279.541ZM280.97 63.0693V65.3729H282.482C282.876 65.3729 283.16 65.3467 283.335 65.2944C283.511 65.2411 283.664 65.1125 283.797 64.9159C283.929 64.7162 283.995 64.4893 283.995 64.231C283.995 63.4562 283.511 63.0693 282.541 63.0693H280.97ZM286.606 66.8514V58.1192H288.034V66.8514H286.606ZM289.404 66.8514V58.1192H291.708C292.567 58.1192 293.127 58.161 293.392 58.2447C293.813 58.3785 294.16 58.6682 294.434 59.1073C294.708 59.5486 294.845 60.1153 294.845 60.8107C294.845 61.4433 294.726 61.9714 294.491 62.399C294.254 62.8257 293.958 63.1247 293.603 63.2972C293.251 63.4698 292.64 63.5576 291.772 63.5576H290.833V66.8514H289.404ZM290.833 59.5967V62.0738H291.626C292.158 62.0738 292.519 62.0372 292.71 61.9619C292.899 61.8867 293.057 61.7497 293.178 61.5531C293.3 61.3555 293.362 61.116 293.362 60.8295C293.362 60.5399 293.298 60.2941 293.174 60.0976C293.046 59.8978 292.892 59.7661 292.706 59.696C292.521 59.6291 292.13 59.5967 291.531 59.5967H290.833ZM301.732 66.8514V58.1192H298.714C297.942 58.1192 297.39 58.1976 297.059 58.3545C296.728 58.5113 296.455 58.7832 296.244 59.1701C296.032 59.558 295.926 60.0223 295.926 60.5608C295.926 61.2436 296.087 61.7946 296.412 62.2119C296.738 62.628 297.2 62.8905 297.797 62.9961C297.49 63.2199 297.236 63.4625 297.036 63.726C296.835 63.9905 296.561 64.4642 296.214 65.148L295.353 66.8514H297.059L298.099 64.9504C298.472 64.2655 298.726 63.8337 298.861 63.6611C298.995 63.4886 299.138 63.3704 299.286 63.3035C299.435 63.2387 299.676 63.2063 300.007 63.2063H300.302V66.8514H301.732ZM300.302 61.8114H299.238C298.589 61.8114 298.175 61.7831 297.998 61.7256C297.821 61.6692 297.678 61.5531 297.567 61.3785C297.458 61.2028 297.401 60.9696 297.401 60.681C297.401 60.4018 297.458 60.1781 297.567 60.0097C297.678 59.8414 297.827 59.7253 298.016 59.6615C298.15 59.6176 298.538 59.5967 299.179 59.5967H300.302V61.8114Z" fill="white"/>
</svg>
