<svg width="304" height="68" viewBox="0 0 304 68" fill="none" xmlns="http://www.w3.org/2000/svg">
<g clip-path="url(#clip0_177_1742)">
<path fill-rule="evenodd" clip-rule="evenodd" d="M163.002 10.442V6.79481H158.586L154.455 36.7359V6.79481H150.039V10.442H150.102C150.754 10.442 151.284 10.9324 151.284 11.5379V45.0436C151.284 45.6491 150.754 46.1405 150.102 46.1405H150.039V49.7877H154.455L158.586 19.8466V49.7877H163.002V46.1405H162.939C162.286 46.1405 161.758 45.6491 161.758 45.0436V11.5379C161.758 10.9324 162.286 10.442 162.939 10.442H163.002ZM158.578 0.5H161.118V1.44527C161.118 3.88477 160.029 5.24411 157.317 5.24411H155.723C153.012 5.24411 151.922 3.88477 151.922 1.44527V0.5H154.462V1.44527C154.462 1.93045 154.887 2.32361 155.409 2.32361C156.149 2.32361 156.891 2.32361 157.632 2.32361C158.155 2.32361 158.578 1.93045 158.578 1.44527V0.5Z" fill="#1D3054"/>
<path fill-rule="evenodd" clip-rule="evenodd" d="M0 6.79272V10.442H0.0632461C0.66875 10.442 1.17783 10.8676 1.23796 11.427L1.24211 11.4616V11.4678L1.24315 11.4846V11.4887L1.24418 11.517V11.5389V45.074L1.24315 45.0813V45.0949L1.24211 45.1116V45.1179L1.23796 45.1524C1.17783 45.7118 0.66875 46.1384 0.0632461 46.1384H0V49.7877L6.05192 49.7867C9.41433 49.7867 10.7384 48.0467 10.7384 45.0415V30.5049C10.7384 29.6538 10.2853 28.3582 9.60615 27.78L9.24948 27.4767L9.64243 27.2153C10.3806 26.7239 10.7384 25.331 10.7384 24.5175V11.5389C10.7384 8.53373 9.41433 6.79272 6.05192 6.79272H0ZM4.41582 45.0415V30.5049C4.41582 29.8995 4.94564 29.408 5.5978 29.408H6.38474C7.0369 29.408 7.56672 29.8995 7.56672 30.5049V45.0415C7.56672 45.647 7.0369 46.1384 6.38474 46.1384C6.12243 46.1384 5.86011 46.1384 5.5978 46.1384C4.94564 46.1384 4.41582 45.6459 4.41582 45.0415ZM4.41582 24.5175V11.5389C4.41582 10.9335 4.94564 10.442 5.5978 10.442C5.86011 10.442 6.12243 10.442 6.38474 10.442C7.0369 10.442 7.56672 10.9335 7.56672 11.5389V24.5175C7.56672 25.123 7.0369 25.6144 6.38474 25.6144H5.5978C4.94564 25.6144 4.41582 25.123 4.41582 24.5175Z" fill="#1D3054"/>
<path fill-rule="evenodd" clip-rule="evenodd" d="M14.5601 46.1405V49.7877H20.2201V46.1405H20.1579C19.5057 46.1405 18.9427 45.6407 18.9769 45.0248L19.6063 33.4244H19.9795C20.6535 33.4244 21.3284 33.4244 22.0034 33.4244H22.3756L23.006 45.0248C23.0392 45.6407 22.4772 46.1405 21.8251 46.1405H21.7618V49.7877H27.4218V46.1405H27.3596C26.7095 46.1405 26.2108 45.6543 26.1787 45.0624L24.3591 11.5567C24.3259 10.9418 24.8878 10.442 25.54 10.442H25.6032V6.7948C22.528 6.7948 19.4539 6.7948 16.3786 6.7948V10.442H16.4419C17.094 10.442 17.656 10.9418 17.6228 11.5567L15.8042 45.0624C15.7721 45.6543 15.2724 46.1405 14.6233 46.1405H14.5601ZM22.1361 29.0086H21.7235C21.2351 29.0086 20.7468 29.0086 20.2584 29.0086H19.8458L20.8048 11.6111H21.1781L22.1361 29.0086Z" fill="#1D3054"/>
<path fill-rule="evenodd" clip-rule="evenodd" d="M109.799 15.3786H112.971V11.5379C112.971 8.49196 111.612 6.79382 108.224 6.79382C104.838 6.79382 103.478 8.49196 103.478 11.5379V45.0426C103.478 48.0897 104.838 49.7878 108.224 49.7878C111.612 49.7878 112.971 48.0897 112.971 45.0426V41.203H109.799V45.0426C109.799 45.6481 109.271 46.1395 108.618 46.1395C108.356 46.1395 108.094 46.1395 107.83 46.1395C107.178 46.1395 106.649 45.6481 106.649 45.0426V11.5379C106.649 10.9325 107.178 10.4421 107.83 10.4421C108.094 10.4421 108.356 10.4421 108.618 10.4421C109.271 10.4421 109.799 10.9325 109.799 11.5379V15.3786Z" fill="#1D3054"/>
<path fill-rule="evenodd" clip-rule="evenodd" d="M122.346 10.442V6.7948H116.686V10.442H116.748C117.4 10.442 117.93 10.9335 117.93 11.5389V45.0436C117.93 45.649 117.4 46.1405 116.748 46.1405H116.686V49.7877H122.346V46.1405H122.283C121.631 46.1405 121.102 45.649 121.102 45.0436V25.6698L121.822 29.8315L125.165 49.7877H128.966V46.1269C128.292 46.0757 127.651 45.8561 127.529 45.1105L123.739 22.1627L127.278 11.4228C127.56 10.5685 128.218 10.4577 128.966 10.4441V6.7948H125.323L121.102 20.2073V11.5389C121.102 10.9335 121.631 10.442 122.283 10.442H122.346Z" fill="#1D3054"/>
<path fill-rule="evenodd" clip-rule="evenodd" d="M98.7935 10.442V6.7948H94.3351L91.1428 29.774L87.9504 6.7948H83.4921V10.442H83.5543C84.2075 10.442 84.7363 10.9335 84.7363 11.5389V45.0436C84.7363 45.649 84.2075 46.1405 83.5543 46.1405H83.4921V49.7877H89.1521V46.1405H89.0888C88.4367 46.1405 87.9079 45.649 87.9079 45.0436L88.2314 27.0459L90.8639 47.7288H91.4123L94.0345 27.0459L94.3776 45.0436C94.3776 45.649 93.8489 46.1405 93.1957 46.1405H93.1335V49.7877H98.7935V46.1405H98.7302C98.0781 46.1405 97.5493 45.649 97.5493 45.0436V11.5389C97.5493 10.9335 98.0781 10.442 98.7302 10.442H98.7935Z" fill="#1D3054"/>
<path fill-rule="evenodd" clip-rule="evenodd" d="M49.0468 46.1405V49.7877H54.7068V46.1405H54.6436C53.9914 46.1405 53.4295 45.6396 53.4626 45.0248L54.093 33.4233H54.4652C55.1402 33.4233 55.8152 33.4233 56.4891 33.4233H56.8624L57.4917 45.0248C57.5249 45.6396 56.9629 46.1405 56.3108 46.1405H56.2486V49.7877H61.9086V46.1405H61.8453C61.1963 46.1405 60.6965 45.6543 60.6644 45.0614L58.8458 11.5567C58.8126 10.9418 59.3746 10.442 60.0267 10.442H60.089V6.7948C57.0148 6.7948 53.9396 6.7948 50.8654 6.7948V10.442H50.9276C51.5798 10.442 52.1428 10.9418 52.1085 11.5567L50.29 45.0614C50.2578 45.6543 49.7591 46.1405 49.109 46.1405H49.0468ZM56.6229 29.0086H56.2102C55.7219 29.0086 55.2335 29.0086 54.7452 29.0086H54.3325L55.2905 11.6111H55.6638L56.6229 29.0086Z" fill="#1D3054"/>
<path fill-rule="evenodd" clip-rule="evenodd" d="M65.8381 46.1405V49.7877H71.4981V46.1405H71.4359C70.7838 46.1405 70.2208 45.6407 70.255 45.0248L70.8843 33.4244H71.2576C71.9315 33.4244 72.6065 33.4244 73.2815 33.4244H73.6537L74.2841 45.0248C74.3173 45.6407 73.7553 46.1405 73.1031 46.1405H73.0399V49.7877H78.6999V46.1405H78.6377C77.9876 46.1405 77.4889 45.6543 77.4567 45.0624L75.6371 11.5567C75.604 10.9418 76.1659 10.442 76.8181 10.442H76.8813V6.7948C73.8061 6.7948 70.7319 6.7948 67.6567 6.7948V10.442H67.72C68.3721 10.442 68.9341 10.9418 68.9009 11.5567L67.0823 45.0624C67.0502 45.6543 66.5504 46.1405 65.9014 46.1405H65.8381ZM73.4142 29.0086H73.0015C72.5132 29.0086 72.0248 29.0086 71.5365 29.0086H71.1239L72.0829 11.6111H72.4551L73.4142 29.0086Z" fill="#1D3054"/>
<path fill-rule="evenodd" clip-rule="evenodd" d="M39.6719 46.1384V49.7877C41.5589 49.7877 43.4448 49.7877 45.3319 49.7877V46.1384H45.2697C44.6154 46.1384 44.0877 45.6501 44.0877 45.0436L44.0939 11.427C44.154 10.8676 44.6631 10.442 45.2697 10.442H45.3319V6.79272H40.0648C36.6589 6.79795 35.8076 8.63934 35.7713 11.5431C35.6293 22.719 34.89 33.8782 34.5935 45.051C34.5738 45.8237 33.8294 46.1416 33.396 46.1384C32.749 46.1332 32.2296 45.6407 32.2296 45.0415V43.3162H30.0906C30.0481 46.1792 29.6251 49.7302 33.8449 49.7302C36.5614 49.7302 37.4614 47.1151 37.5702 45.0238C38.1488 33.8604 38.8704 22.7065 39.1389 11.5306C39.1731 10.1012 40.9098 10.0761 40.916 11.5347C40.9606 22.7044 40.916 33.873 40.916 45.0415C40.916 45.647 40.3862 46.1384 39.7351 46.1384H39.6719Z" fill="#1D3054"/>
<path fill-rule="evenodd" clip-rule="evenodd" d="M269.867 10.442V6.7948H265.451V23.8368H262.301V6.7948H257.885V10.442H257.948C258.6 10.442 259.129 10.9324 259.129 11.5379V45.0436C259.129 45.649 258.6 46.1405 257.948 46.1405H257.885V49.7877H262.301V27.7852H265.451V49.7877H269.867V46.1405H269.805C269.152 46.1405 268.623 45.649 268.623 45.0436V11.5379C268.623 10.9324 269.152 10.442 269.805 10.442H269.867Z" fill="#1D3054"/>
<path fill-rule="evenodd" clip-rule="evenodd" d="M253.68 10.442V6.7948H249.222L246.029 29.774L242.837 6.7948H238.379V10.442H238.441C239.094 10.442 239.623 10.9324 239.623 11.5379V45.0436C239.623 45.649 239.094 46.1405 238.441 46.1405H238.379V49.7877H244.039V46.1405H243.975C243.323 46.1405 242.794 45.649 242.794 45.0436L243.118 27.0459L245.75 47.7288H246.299L248.921 27.0459L249.264 45.0436C249.264 45.649 248.735 46.1405 248.082 46.1405H248.02V49.7877H253.68V46.1405H253.618C252.965 46.1405 252.436 45.649 252.436 45.0436V11.5379C252.436 10.9324 252.965 10.442 253.618 10.442H253.68Z" fill="#1D3054"/>
<path fill-rule="evenodd" clip-rule="evenodd" d="M233.371 11.539C233.371 8.49196 232.01 6.79382 228.623 6.79382C225.237 6.79382 223.877 8.49196 223.877 11.539V45.0426C223.877 48.0897 225.237 49.7878 228.623 49.7878C232.01 49.7878 233.371 48.0897 233.371 45.0426V11.539ZM229.017 46.1395C228.755 46.1395 228.492 46.1395 228.23 46.1395C227.578 46.1395 227.048 45.6481 227.048 45.0426V11.539C227.048 10.9335 227.578 10.4421 228.23 10.4421C228.492 10.4421 228.755 10.4421 229.017 10.4421C229.669 10.4421 230.199 10.9335 230.199 11.539V45.0426C230.199 45.6481 229.669 46.1395 229.017 46.1395Z" fill="#1D3054"/>
<path fill-rule="evenodd" clip-rule="evenodd" d="M188.684 46.1405V49.7877H194.344V46.1405H194.281C193.628 46.1405 193.066 45.6407 193.1 45.0248L193.73 33.4233H194.102C194.777 33.4233 195.452 33.4233 196.126 33.4233H196.499L197.129 45.0248C197.163 45.6407 196.6 46.1405 195.948 46.1405H195.886V49.7877H201.546V46.1405H201.482C200.833 46.1405 200.333 45.6543 200.301 45.0624L198.483 11.5567C198.45 10.9418 199.012 10.442 199.664 10.442H199.726V6.7948C196.652 6.7948 193.577 6.7948 190.502 6.7948V10.442H190.565C191.217 10.442 191.78 10.9418 191.745 11.5567L189.927 45.0624C189.895 45.6543 189.396 46.1405 188.746 46.1405H188.684ZM196.26 29.0086H195.847C195.359 29.0086 194.87 29.0086 194.382 29.0086H193.969L194.928 11.6111H195.301L196.26 29.0086Z" fill="#1D3054"/>
<path fill-rule="evenodd" clip-rule="evenodd" d="M185.37 10.442V6.7948C181.376 6.7948 177.381 6.7948 173.388 6.7948V10.442H173.451C174.103 10.442 174.632 10.9324 174.632 11.5379V45.0436C174.632 45.649 174.103 46.1405 173.451 46.1405H173.388V49.7877H177.803V10.7432H180.954V49.7877H185.37V46.1405H185.307C184.655 46.1405 184.126 45.649 184.126 45.0436V11.5379C184.126 10.9324 184.655 10.442 185.307 10.442H185.37Z" fill="#1D3054"/>
<path fill-rule="evenodd" clip-rule="evenodd" d="M214.257 46.1384V49.7877C216.143 49.7877 218.03 49.7877 219.917 49.7877V46.1384H219.854C219.2 46.1384 218.673 45.6501 218.673 45.0436L218.678 11.427C218.739 10.8676 219.248 10.442 219.854 10.442H219.917V6.79272H214.65C211.243 6.79795 210.393 8.63934 210.355 11.5431C210.213 22.719 209.474 33.8782 209.179 45.051C209.158 45.8237 208.413 46.1416 207.98 46.1384C207.334 46.1332 206.815 45.6407 206.815 45.0415V43.3162H204.675C204.633 46.1792 204.209 49.7302 208.43 49.7302C211.145 49.7302 212.046 47.1151 212.154 45.0238C212.734 33.8604 213.454 22.7054 213.723 11.5306C213.758 10.1012 215.495 10.0761 215.501 11.5347C215.546 22.7044 215.501 33.873 215.501 45.0415C215.501 45.647 214.971 46.1384 214.319 46.1384H214.257Z" fill="#1D3054"/>
<path fill-rule="evenodd" clip-rule="evenodd" d="M297.38 10.442V6.7948H291.72V10.442H291.782C292.435 10.442 292.964 10.9324 292.964 11.5379V45.0436C292.964 45.649 292.435 46.1405 291.782 46.1405H291.72V49.7877H297.38V46.1405H297.318C296.665 46.1405 296.136 45.649 296.136 45.0436V25.6698L296.856 29.8315L300.199 49.7877H304V46.1269C303.326 46.0757 302.685 45.8561 302.563 45.1105L298.773 22.1627L302.312 11.4228C302.594 10.5685 303.252 10.4577 304 10.4441V6.7948H300.357L296.136 20.2073V11.5379C296.136 10.9324 296.665 10.442 297.318 10.442H297.38Z" fill="#1D3054"/>
<path fill-rule="evenodd" clip-rule="evenodd" d="M287.005 10.442V6.7948H282.59L278.459 36.7359V6.7948H274.043V10.442H274.105C274.758 10.442 275.287 10.9324 275.287 11.5379V45.0436C275.287 45.649 274.758 46.1405 274.105 46.1405H274.043V49.7877H278.459L282.59 19.8466V49.7877H287.005V46.1405H286.943C286.291 46.1405 285.761 45.649 285.761 45.0436V11.5379C285.761 10.9324 286.291 10.442 286.943 10.442H287.005Z" fill="#1D3054"/>
<path fill-rule="evenodd" clip-rule="evenodd" d="M145.727 10.442V6.7948H141.311L137.181 36.7359V6.7948H132.765V10.442H132.827C133.479 10.442 134.009 10.9324 134.009 11.5379V45.0436C134.009 45.649 133.479 46.1405 132.827 46.1405H132.765V49.7877H137.181L141.311 19.8466V49.7877H145.727V46.1405H145.665C145.012 46.1405 144.483 45.649 144.483 45.0436V11.5379C144.483 10.9324 145.012 10.442 145.665 10.442H145.727Z" fill="#1D3054"/>
<path d="M9.43197 67.3515H8.00323V58.6193H13.6746V67.3515H12.2511V60.0905H9.43197V67.3515ZM21.5472 67.3515H19.9889L19.3678 65.3669H16.5332L15.9484 67.3515H14.4243L17.1884 58.6193H18.7063L21.5472 67.3515ZM18.9075 63.8967L17.9318 60.6562L16.9707 63.8967H18.9075ZM26.3612 67.3515V60.0905H24.2347V63.8256C24.2347 64.798 24.2056 65.5175 24.1496 65.9849C24.0926 66.4512 23.9516 66.8046 23.7297 67.0483C23.5089 67.2909 23.146 67.4101 22.6452 67.4101C22.5001 67.4101 22.2004 67.3923 21.7421 67.3515V65.9754H22.0553C22.3632 65.9754 22.5654 65.9242 22.6618 65.8249C22.7582 65.7224 22.8049 65.4704 22.8049 65.0699V58.6193H27.791V67.3515H26.3612ZM28.9906 63.0393C28.9906 61.9978 29.1409 61.1425 29.4478 60.4691C29.7526 59.7957 30.1518 59.2937 30.6433 58.9644C31.1357 58.635 31.7319 58.4708 32.4338 58.4708C33.4499 58.4708 34.2763 58.8608 34.917 59.644C35.5567 60.4262 35.8771 61.5409 35.8771 62.9859C35.8771 64.4457 35.5381 65.5886 34.861 66.4104C34.2659 67.1382 33.4603 67.5 32.4401 67.5C31.4115 67.5 30.6007 67.1403 30.0066 66.4219C29.3286 65.6011 28.9906 64.4729 28.9906 63.0393ZM30.466 62.9797C30.466 63.9845 30.6557 64.7364 31.0321 65.2393C31.4115 65.7412 31.8791 65.9932 32.4401 65.9932C33.002 65.9932 33.4676 65.7433 33.8387 65.2456C34.2099 64.7468 34.3934 63.9824 34.3934 62.9493C34.3934 61.9372 34.2141 61.1885 33.8533 60.7033C33.4945 60.2191 33.0217 59.9766 32.4401 59.9766C31.8574 59.9766 31.3815 60.2212 31.0165 60.7085C30.6495 61.1989 30.466 61.9549 30.466 62.9797ZM36.9762 67.3515V58.6193H39.1193L40.407 64.5764L41.6833 58.6193H43.8327V67.3515H42.5034V60.4774L41.0923 67.3515H39.7092L38.3105 60.4774V67.3515H36.9762ZM45.2614 67.3515V58.6193H46.6912V62.0553H49.5041V58.6193H50.939V67.3515H49.5041V63.5328H46.6912V67.3515H45.2614ZM52.4206 67.3515V58.6193H53.7861V64.4383L56.6561 58.6193H58.0921V67.3515H56.7276V61.6569L53.8629 67.3515H52.4206ZM59.4327 61.7395V58.6193H60.8624V60.9365C60.8624 61.4206 60.8821 61.7803 60.9246 62.0166C60.9651 62.254 61.0822 62.4537 61.2709 62.6158C61.4628 62.7789 61.7614 62.8605 62.1668 62.8605C62.7733 62.8605 63.2575 62.7015 63.6204 62.3847V58.6193H65.0491V67.3515H63.6204V63.8361C63.0574 64.1477 62.4913 64.3014 61.9241 64.3014C61.1382 64.3014 60.5255 64.0776 60.0879 63.6311C59.6504 63.1857 59.4327 62.5551 59.4327 61.7395ZM66.5255 67.3515V58.6193H71.7957V60.0968H67.9543V62.0323H71.523V63.5025H67.9543V65.8793H71.9243V67.3515H66.5255ZM77.6817 64.1414L79.0711 64.682C78.8533 65.6597 78.4946 66.3738 77.9907 66.8245C77.4868 67.2742 76.8658 67.5 76.1296 67.5C75.2048 67.5 74.4541 67.1403 73.8797 66.4219C73.2161 65.5927 72.8854 64.4729 72.8854 63.0633C72.8854 61.5733 73.2182 60.4084 73.8859 59.5667C74.4645 58.8368 75.2411 58.4708 76.2188 58.4708C77.013 58.4708 77.6786 58.7448 78.2147 59.2917C78.5952 59.6827 78.8762 60.2599 79.0535 61.0264L77.6361 61.4426C77.5449 60.9689 77.3655 60.6071 77.0959 60.3551C76.8253 60.1031 76.507 59.9766 76.1421 59.9766C75.6174 59.9766 75.1903 60.2066 74.8595 60.6688C74.5288 61.1278 74.3639 61.888 74.3639 62.9493C74.3639 64.0494 74.5246 64.8326 74.8481 65.2958C75.1706 65.7611 75.5894 65.9932 76.1058 65.9932C76.4842 65.9932 76.8108 65.8447 77.0856 65.5499C77.3614 65.2529 77.5615 64.7834 77.6817 64.1414ZM80.3236 67.3515V58.6193H81.7523V62.3355C82.0716 62.2969 82.2925 62.1871 82.4138 62.0124C82.5372 61.8357 82.6979 61.4081 82.898 60.7336C83.0991 60.0581 83.3086 59.5667 83.5242 59.2592C83.7409 58.9518 83.9721 58.7636 84.2158 58.6956C84.4605 58.6287 84.8793 58.5827 85.4745 58.5534V59.8636H85.2723C84.8669 59.8636 84.5932 59.9588 84.448 60.148C84.3049 60.3352 84.1577 60.7012 84.0063 61.2397C83.855 61.7803 83.7243 62.14 83.6155 62.3178C83.5087 62.4966 83.3335 62.6733 83.0929 62.8479C83.4081 62.9797 83.6663 63.1919 83.8633 63.4868C84.0634 63.7796 84.3029 64.271 84.5807 64.9622L85.5512 67.3515H83.8674L83.011 65.095C82.7953 64.5168 82.6077 64.1163 82.4521 63.8873C82.2966 63.6593 82.0633 63.5412 81.7523 63.5328V67.3515H80.3236ZM92.7561 67.3515H91.1977L90.5767 65.3669H87.742L87.1572 67.3515H85.6331L88.3973 58.6193H89.9152L92.7561 67.3515ZM90.1174 63.8967L89.1417 60.6562L88.1796 63.8967H90.1174ZM99.2258 67.3515V58.6193H96.2077C95.4352 58.6193 94.8836 58.6977 94.5529 58.8546C94.2221 59.0114 93.9495 59.2833 93.7379 59.6702C93.5264 60.0581 93.4196 60.5224 93.4196 61.0609C93.4196 61.7437 93.5803 62.2948 93.9059 62.712C94.2325 63.1281 94.6939 63.3906 95.2901 63.4962C94.9842 63.72 94.7302 63.9626 94.5301 64.2261C94.3289 64.4906 94.0542 64.9643 93.7079 65.6482L92.8473 67.3515H94.5529L95.5928 65.4505C95.9661 64.7656 96.2201 64.3338 96.3549 64.1612C96.4876 63.9887 96.6307 63.8706 96.78 63.8036C96.9293 63.7388 97.1698 63.7064 97.4995 63.7064H97.7961V67.3515H99.2258ZM97.7961 62.3115H96.7323C96.0832 62.3115 95.6695 62.2833 95.4922 62.2258C95.3149 62.1693 95.1719 62.0532 95.0609 61.8786C94.9521 61.7029 94.895 61.4697 94.895 61.1811C94.895 60.902 94.9521 60.6782 95.0609 60.5098C95.1719 60.3415 95.3212 60.2254 95.5099 60.1616C95.6436 60.1177 96.0324 60.0968 96.6732 60.0968H97.7961V62.3115ZM107.978 64.1414L109.367 64.682C109.149 65.6597 108.789 66.3738 108.286 66.8245C107.782 67.2742 107.161 67.5 106.426 67.5C105.5 67.5 104.75 67.1403 104.176 66.4219C103.512 65.5927 103.181 64.4729 103.181 63.0633C103.181 61.5733 103.514 60.4084 104.181 59.5667C104.759 58.8368 105.536 58.4708 106.514 58.4708C107.308 58.4708 107.974 58.7448 108.51 59.2917C108.891 59.6827 109.171 60.2599 109.348 61.0264L107.931 61.4426C107.841 60.9689 107.661 60.6071 107.391 60.3551C107.12 60.1031 106.802 59.9766 106.437 59.9766C105.913 59.9766 105.486 60.2066 105.155 60.6688C104.825 61.1278 104.659 61.888 104.659 62.9493C104.659 64.0494 104.821 64.8326 105.143 65.2958C105.465 65.7611 105.884 65.9932 106.401 65.9932C106.78 65.9932 107.107 65.8447 107.38 65.5499C107.657 65.2529 107.856 64.7834 107.978 64.1414ZM114.646 67.3515V60.0905H112.52V63.8256C112.52 64.798 112.491 65.5175 112.435 65.9849C112.379 66.4512 112.237 66.8046 112.016 67.0483C111.794 67.2909 111.431 67.4101 110.931 67.4101C110.785 67.4101 110.486 67.3923 110.027 67.3515V65.9754H110.341C110.648 65.9754 110.851 65.9242 110.947 65.8249C111.044 65.7224 111.09 65.4704 111.09 65.0699V58.6193H116.076V67.3515H114.646ZM119.449 64.8848L116.838 58.6193H118.444L120.092 63.1532L121.522 58.6193H123.005L120.612 65.255C120.318 66.0643 120.032 66.6342 119.755 66.9657C119.481 67.2951 119.148 67.4592 118.764 67.4592C118.392 67.4592 118.062 67.4226 117.771 67.3515V66.0466C118.008 66.0622 118.187 66.0706 118.31 66.0706C118.655 66.0706 118.898 65.9974 119.037 65.851C119.178 65.7025 119.315 65.3815 119.449 64.8848ZM126.803 58.6193H128.169V62.3355C128.426 62.3094 128.618 62.1912 128.741 61.9884C128.861 61.7824 129.044 61.2909 129.283 60.5077C129.523 59.7246 129.791 59.2049 130.088 58.9466C130.382 58.6883 130.948 58.5576 131.787 58.5534V59.8636H131.582C131.176 59.8636 130.902 59.9588 130.761 60.148C130.618 60.3352 130.464 60.7232 130.297 61.3108C130.13 61.8985 129.985 62.2707 129.862 62.4286C129.741 62.5855 129.588 62.7256 129.403 62.8479C129.674 62.9598 129.915 63.1512 130.122 63.423C130.331 63.6959 130.588 64.2083 130.89 64.9622L131.86 67.3515H130.176L129.32 65.095C129.126 64.5868 128.946 64.1937 128.781 63.9197C128.616 63.6468 128.412 63.5171 128.169 63.5328V67.3515H126.803V63.5328C126.585 63.5255 126.398 63.6311 126.239 63.8528C126.079 64.0724 125.887 64.4864 125.656 65.095L124.795 67.3515H123.112L124.079 64.9622C124.364 64.271 124.604 63.7796 124.803 63.4868C125.003 63.1919 125.257 62.9797 125.567 62.8479C125.328 62.6733 125.157 62.4997 125.051 62.3293C124.946 62.1588 124.814 61.7908 124.651 61.2209C124.487 60.6541 124.327 60.2798 124.173 60.0989C124.015 59.918 123.689 59.8406 123.189 59.8636V58.5534C124.023 58.5461 124.59 58.6779 124.886 58.9508C125.185 59.2206 125.452 59.7455 125.693 60.5203C125.932 61.2941 126.114 61.7845 126.237 61.9894C126.357 62.1975 126.547 62.3115 126.803 62.3355V58.6193ZM132.72 67.3515V58.6193H138.031V60.0905H134.15V62.0919H136.182C136.951 62.0919 137.553 62.3335 137.988 62.8155C138.426 63.2975 138.646 63.9354 138.646 64.7311C138.646 65.4223 138.458 66.0319 138.087 66.5589C137.715 67.087 137.079 67.3515 136.182 67.3515H132.72ZM134.15 63.5694V65.873H135.662C136.055 65.873 136.339 65.8468 136.515 65.7946C136.69 65.7412 136.844 65.6147 136.976 65.4223C137.107 65.2268 137.175 65.0009 137.175 64.7426C137.175 63.9605 136.69 63.5694 135.721 63.5694H134.15ZM146.228 67.3515H144.67L144.049 65.3669H141.214L140.629 67.3515H139.105L141.869 58.6193H143.387L146.228 67.3515ZM143.589 63.8967L142.614 60.6562L141.652 63.8967H143.589ZM149.742 58.6193H152.585C153.359 58.6193 153.906 58.6904 154.22 58.8347C154.534 58.9769 154.8 59.2289 155.018 59.5907C155.234 59.9504 155.343 60.3614 155.343 60.8173C155.343 61.2376 155.25 61.6182 155.065 61.957C154.879 62.2969 154.639 62.5489 154.344 62.712C154.766 62.8626 155.095 63.1208 155.332 63.4868C155.573 63.8507 155.691 64.2951 155.691 64.82C155.691 65.4547 155.539 65.9932 155.236 66.4303C154.933 66.8695 154.574 67.1403 154.162 67.2438C153.874 67.3149 153.206 67.3515 152.16 67.3515H149.742V58.6193ZM151.172 60.0728V62.0919H152.117C152.683 62.0919 153.035 62.0815 153.17 62.0605C153.413 62.0229 153.603 61.9183 153.742 61.75C153.879 61.5816 153.947 61.3516 153.947 61.0609C153.947 60.8026 153.893 60.5935 153.78 60.4325C153.667 60.2714 153.532 60.1721 153.373 60.1313C153.214 60.0926 152.756 60.0728 152 60.0728H151.172ZM151.172 63.5454V65.8793H152.502C153.085 65.8793 153.458 65.8489 153.623 65.7883C153.789 65.7266 153.927 65.6053 154.04 65.4244C154.151 65.2435 154.207 65.0155 154.207 64.7364C154.207 64.4498 154.147 64.2167 154.028 64.0316C153.908 63.8465 153.748 63.7179 153.55 63.6489C153.351 63.5799 152.944 63.5454 152.331 63.5454H151.172ZM163.304 67.3515H161.746L161.125 65.3669H158.29L157.706 67.3515H156.182L158.946 58.6193H160.464L163.304 67.3515ZM160.665 63.8967L159.689 60.6562L158.728 63.8967H160.665ZM168.118 67.3515V60.0905H165.992V63.8256C165.992 64.798 165.963 65.5175 165.907 65.9849C165.85 66.4512 165.709 66.8046 165.488 67.0483C165.266 67.2909 164.903 67.4101 164.402 67.4101C164.257 67.4101 163.958 67.3923 163.499 67.3515V65.9754H163.813C164.12 65.9754 164.323 65.9242 164.419 65.8249C164.515 65.7224 164.562 65.4704 164.562 65.0699V58.6193H169.548V67.3515H168.118ZM177.433 67.3515H175.874L175.254 65.3669H172.419L171.834 67.3515H170.31L173.074 58.6193H174.592L177.433 67.3515ZM174.793 63.8967L173.818 60.6562L172.857 63.8967H174.793ZM184.591 67.3515H183.033L182.412 65.3669H179.577L178.994 67.3515H177.47L180.233 58.6193H181.752L184.591 67.3515ZM181.953 63.8967L180.977 60.6562L180.015 63.8967H181.953ZM185.332 67.3515V58.6193H187.475L188.763 64.5764L190.039 58.6193H192.188V67.3515H190.86V60.4774L189.448 67.3515H188.066L186.666 60.4774V67.3515H185.332ZM198.16 64.1414L199.549 64.682C199.331 65.6597 198.972 66.3738 198.468 66.8245C197.964 67.2742 197.343 67.5 196.607 67.5C195.682 67.5 194.933 67.1403 194.357 66.4219C193.695 65.5927 193.364 64.4729 193.364 63.0633C193.364 61.5733 193.697 60.4084 194.363 59.5667C194.942 58.8368 195.719 58.4708 196.696 58.4708C197.491 58.4708 198.156 58.7448 198.692 59.2917C199.073 59.6827 199.354 60.2599 199.531 61.0264L198.114 61.4426C198.022 60.9689 197.843 60.6071 197.573 60.3551C197.303 60.1031 196.985 59.9766 196.62 59.9766C196.095 59.9766 195.668 60.2066 195.337 60.6688C195.006 61.1278 194.841 61.888 194.841 62.9493C194.841 64.0494 195.003 64.8326 195.326 65.2958C195.648 65.7611 196.067 65.9932 196.583 65.9932C196.963 65.9932 197.289 65.8447 197.563 65.5499C197.839 65.2529 198.039 64.7834 198.16 64.1414ZM200.801 67.3515V58.6193H202.23V62.3355C202.549 62.2969 202.771 62.1871 202.891 62.0124C203.015 61.8357 203.175 61.4081 203.376 60.7336C203.577 60.0581 203.787 59.5667 204.003 59.2592C204.218 58.9518 204.45 58.7636 204.694 58.6956C204.938 58.6287 205.357 58.5827 205.952 58.5534V59.8636H205.75C205.345 59.8636 205.071 59.9588 204.926 60.148C204.782 60.3352 204.635 60.7012 204.484 61.2397C204.333 61.7803 204.202 62.14 204.093 62.3178C203.986 62.4966 203.811 62.6733 203.57 62.8479C203.886 62.9797 204.144 63.1919 204.341 63.4868C204.541 63.7796 204.78 64.271 205.058 64.9622L206.029 67.3515H204.345L203.489 65.095C203.273 64.5168 203.085 64.1163 202.93 63.8873C202.774 63.6593 202.541 63.5412 202.23 63.5328V67.3515H200.801ZM206.548 63.0393C206.548 61.9978 206.7 61.1425 207.006 60.4691C207.31 59.7957 207.709 59.2937 208.202 58.9644C208.693 58.635 209.291 58.4708 209.993 58.4708C211.009 58.4708 211.835 58.8608 212.476 59.644C213.115 60.4262 213.436 61.5409 213.436 62.9859C213.436 64.4457 213.097 65.5886 212.42 66.4104C211.825 67.1382 211.018 67.5 209.998 67.5C208.97 67.5 208.159 67.1403 207.564 66.4219C206.887 65.6011 206.548 64.4729 206.548 63.0393ZM208.025 62.9797C208.025 63.9845 208.214 64.7364 208.591 65.2393C208.97 65.7412 209.438 65.9932 209.998 65.9932C210.561 65.9932 211.026 65.7433 211.397 65.2456C211.769 64.7468 211.952 63.9824 211.952 62.9493C211.952 61.9372 211.773 61.1885 211.411 60.7033C211.052 60.2191 210.58 59.9766 209.998 59.9766C209.416 59.9766 208.94 60.2212 208.575 60.7085C208.208 61.1989 208.025 61.9549 208.025 62.9797ZM214.58 67.3515V58.6904H219.579V60.1679H216.01V67.3515H214.58ZM220.233 63.0393C220.233 61.9978 220.385 61.1425 220.691 60.4691C220.995 59.7957 221.394 59.2937 221.887 58.9644C222.378 58.635 222.976 58.4708 223.678 58.4708C224.694 58.4708 225.52 58.8608 226.161 59.644C226.8 60.4262 227.121 61.5409 227.121 62.9859C227.121 64.4457 226.782 65.5886 226.105 66.4104C225.51 67.1382 224.703 67.5 223.684 67.5C222.655 67.5 221.844 67.1403 221.25 66.4219C220.572 65.6011 220.233 64.4729 220.233 63.0393ZM221.71 62.9797C221.71 63.9845 221.899 64.7364 222.276 65.2393C222.655 65.7412 223.123 65.9932 223.684 65.9932C224.246 65.9932 224.711 65.7433 225.082 65.2456C225.454 64.7468 225.637 63.9824 225.637 62.9493C225.637 61.9372 225.458 61.1885 225.097 60.7033C224.737 60.2191 224.265 59.9766 223.684 59.9766C223.101 59.9766 222.625 60.2212 222.26 60.7085C221.893 61.1989 221.71 61.9549 221.71 62.9797ZM230.978 67.3515V58.6193H233.121L234.409 64.5764L235.685 58.6193H237.834V67.3515H236.505V60.4774L235.094 67.3515H233.711L232.312 60.4774V67.3515H230.978ZM238.975 63.0393C238.975 61.9978 239.126 61.1425 239.433 60.4691C239.737 59.7957 240.136 59.2937 240.629 58.9644C241.12 58.635 241.717 58.4708 242.418 58.4708C243.434 58.4708 244.262 58.8608 244.902 59.644C245.541 60.4262 245.862 61.5409 245.862 62.9859C245.862 64.4457 245.523 65.5886 244.846 66.4104C244.251 67.1382 243.444 67.5 242.424 67.5C241.397 67.5 240.586 67.1403 239.991 66.4219C239.314 65.6011 238.975 64.4729 238.975 63.0393ZM240.451 62.9797C240.451 63.9845 240.64 64.7364 241.017 65.2393C241.397 65.7412 241.864 65.9932 242.424 65.9932C242.987 65.9932 243.453 65.7433 243.824 65.2456C244.194 64.7468 244.378 63.9824 244.378 62.9493C244.378 61.9372 244.198 61.1885 243.837 60.7033C243.479 60.2191 243.007 59.9766 242.424 59.9766C241.842 59.9766 241.366 60.2212 241.001 60.7085C240.635 61.1989 240.451 61.9549 240.451 62.9797ZM246.983 67.3515V58.6193H248.412V62.0553H251.225V58.6193H252.66V67.3515H251.225V63.5328H248.412V67.3515H246.983ZM260.539 67.3515H258.98L258.359 65.3669H255.525L254.94 67.3515H253.416L256.18 58.6193H257.698L260.539 67.3515ZM257.9 63.8967L256.924 60.6562L255.962 63.8967H257.9ZM265.843 64.1414L267.232 64.682C267.015 65.6597 266.656 66.3738 266.152 66.8245C265.647 67.2742 265.027 67.5 264.291 67.5C263.365 67.5 262.615 67.1403 262.041 66.4219C261.377 65.5927 261.047 64.4729 261.047 63.0633C261.047 61.5733 261.379 60.4084 262.047 59.5667C262.626 58.8368 263.401 58.4708 264.379 58.4708C265.174 58.4708 265.839 58.7448 266.375 59.2917C266.756 59.6827 267.036 60.2599 267.214 61.0264L265.796 61.4426C265.706 60.9689 265.527 60.6071 265.256 60.3551C264.987 60.1031 264.667 59.9766 264.303 59.9766C263.779 59.9766 263.351 60.2066 263.021 60.6688C262.69 61.1278 262.525 61.888 262.525 62.9493C262.525 64.0494 262.686 64.8326 263.008 65.2958C263.331 65.7611 263.751 65.9932 264.267 65.9932C264.645 65.9932 264.972 65.8447 265.247 65.5499C265.523 65.2529 265.722 64.7834 265.843 64.1414ZM270.055 67.3515V60.0968H267.946V58.6193H273.587V60.0968H271.484V67.3515H270.055ZM274.544 67.3515V58.6193H275.974V62.0919H278.006C278.762 62.0919 279.361 62.3376 279.804 62.828C280.247 63.3174 280.469 63.9647 280.469 64.7677C280.469 65.4223 280.29 66.0162 279.931 66.5506C279.573 67.0849 278.935 67.3515 278.018 67.3515H274.544ZM275.974 63.5694V65.873H277.485C277.879 65.873 278.163 65.8468 278.339 65.7946C278.514 65.7412 278.667 65.6126 278.8 65.416C278.932 65.2163 278.998 64.9894 278.998 64.7311C278.998 63.9563 278.514 63.5694 277.545 63.5694H275.974ZM281.609 67.3515V58.6193H283.038V67.3515H281.609ZM284.407 67.3515V58.6193H286.711C287.571 58.6193 288.13 58.6611 288.395 58.7448C288.816 58.8786 289.163 59.1683 289.437 59.6074C289.712 60.0487 289.848 60.6154 289.848 61.3108C289.848 61.9434 289.729 62.4715 289.494 62.8991C289.257 63.3258 288.961 63.6248 288.606 63.7974C288.254 63.9699 287.643 64.0577 286.775 64.0577H285.836V67.3515H284.407ZM285.836 60.0968V62.574H286.629C287.161 62.574 287.522 62.5374 287.714 62.4621C287.902 62.3868 288.06 62.2498 288.181 62.0532C288.304 61.8556 288.365 61.6161 288.365 61.3296C288.365 61.04 288.302 60.7943 288.177 60.5977C288.05 60.398 287.895 60.2662 287.709 60.1961C287.524 60.1292 287.133 60.0968 286.534 60.0968H285.836ZM296.735 67.3515V58.6193H293.717C292.945 58.6193 292.393 58.6977 292.062 58.8546C291.731 59.0114 291.459 59.2833 291.247 59.6702C291.036 60.0581 290.929 60.5224 290.929 61.0609C290.929 61.7437 291.091 62.2948 291.415 62.712C291.742 63.1281 292.203 63.3906 292.8 63.4962C292.493 63.72 292.239 63.9626 292.039 64.2261C291.838 64.4906 291.564 64.9643 291.217 65.6482L290.357 67.3515H292.062L293.102 65.4505C293.475 64.7656 293.729 64.3338 293.864 64.1612C293.998 63.9887 294.141 63.8706 294.289 63.8036C294.438 63.7388 294.679 63.7064 295.01 63.7064H295.305V67.3515H296.735ZM295.305 62.3115H294.241C293.592 62.3115 293.179 62.2833 293.001 62.2258C292.824 62.1693 292.681 62.0532 292.57 61.8786C292.461 61.7029 292.404 61.4697 292.404 61.1811C292.404 60.902 292.461 60.6782 292.57 60.5098C292.681 60.3415 292.83 60.2254 293.019 60.1616C293.153 60.1177 293.542 60.0968 294.182 60.0968H295.305V62.3115Z" fill="#1D3054"/>
</g>
<defs>
<clipPath id="clip0_177_1742">
<rect width="304" height="67" fill="white" transform="translate(0 0.5)"/>
</clipPath>
</defs>
</svg>
