<svg width="304" height="67" viewBox="0 0 304 67" fill="none" xmlns="http://www.w3.org/2000/svg">
<g clip-path="url(#clip0_177_1763)">
<path fill-rule="evenodd" clip-rule="evenodd" d="M163.002 9.94204V6.29481H158.586L154.455 36.2359V6.29481H150.039V9.94204H150.102C150.754 9.94204 151.284 10.4324 151.284 11.0379V44.5436C151.284 45.1491 150.754 45.6405 150.102 45.6405H150.039V49.2877H154.455L158.586 19.3466V49.2877H163.002V45.6405H162.939C162.286 45.6405 161.758 45.1491 161.758 44.5436V11.0379C161.758 10.4324 162.286 9.94204 162.939 9.94204H163.002ZM158.578 0H161.118V0.945267C161.118 3.38477 160.029 4.74411 157.317 4.74411H155.723C153.012 4.74411 151.922 3.38477 151.922 0.945267V0H154.462V0.945267C154.462 1.43045 154.887 1.82361 155.409 1.82361C156.149 1.82361 156.891 1.82361 157.632 1.82361C158.155 1.82361 158.578 1.43045 158.578 0.945267V0Z" fill="white"/>
<path fill-rule="evenodd" clip-rule="evenodd" d="M0 6.29272V9.94204H0.0632461C0.668749 9.94204 1.17783 10.3676 1.23796 10.927L1.24211 10.9616V10.9678L1.24315 10.9846V10.9887L1.24418 11.017V11.0389V44.574L1.24315 44.5813V44.5949L1.24211 44.6116V44.6179L1.23796 44.6524C1.17783 45.2118 0.668749 45.6384 0.0632461 45.6384H0V49.2877L6.05192 49.2867C9.41433 49.2867 10.7384 47.5467 10.7384 44.5415V30.0049C10.7384 29.1538 10.2853 27.8582 9.60614 27.28L9.24948 26.9767L9.64243 26.7153C10.3806 26.2239 10.7384 24.831 10.7384 24.0175V11.0389C10.7384 8.03373 9.41433 6.29272 6.05192 6.29272H0ZM4.41582 44.5415V30.0049C4.41582 29.3995 4.94564 28.908 5.5978 28.908H6.38474C7.0369 28.908 7.56672 29.3995 7.56672 30.0049V44.5415C7.56672 45.147 7.0369 45.6384 6.38474 45.6384C6.12243 45.6384 5.86011 45.6384 5.5978 45.6384C4.94564 45.6384 4.41582 45.1459 4.41582 44.5415ZM4.41582 24.0175V11.0389C4.41582 10.4335 4.94564 9.94204 5.5978 9.94204C5.86011 9.94204 6.12243 9.94204 6.38474 9.94204C7.0369 9.94204 7.56672 10.4335 7.56672 11.0389V24.0175C7.56672 24.623 7.0369 25.1144 6.38474 25.1144H5.5978C4.94564 25.1144 4.41582 24.623 4.41582 24.0175Z" fill="white"/>
<path fill-rule="evenodd" clip-rule="evenodd" d="M14.5601 45.6405V49.2877H20.2201V45.6405H20.1579C19.5057 45.6405 18.9427 45.1407 18.9769 44.5248L19.6063 32.9244H19.9795C20.6535 32.9244 21.3284 32.9244 22.0034 32.9244H22.3756L23.006 44.5248C23.0392 45.1407 22.4772 45.6405 21.8251 45.6405H21.7618V49.2877H27.4218V45.6405H27.3596C26.7095 45.6405 26.2108 45.1543 26.1787 44.5624L24.3591 11.0567C24.3259 10.4418 24.8878 9.94203 25.54 9.94203H25.6032V6.2948C22.528 6.2948 19.4539 6.2948 16.3786 6.2948V9.94203H16.4419C17.094 9.94203 17.656 10.4418 17.6228 11.0567L15.8042 44.5624C15.7721 45.1543 15.2724 45.6405 14.6233 45.6405H14.5601ZM22.1361 28.5086H21.7235C21.2351 28.5086 20.7468 28.5086 20.2584 28.5086H19.8458L20.8048 11.1111H21.1781L22.1361 28.5086Z" fill="white"/>
<path fill-rule="evenodd" clip-rule="evenodd" d="M109.799 14.8786H112.971V11.0379C112.971 7.99196 111.612 6.29382 108.224 6.29382C104.838 6.29382 103.478 7.99196 103.478 11.0379V44.5426C103.478 47.5897 104.838 49.2878 108.224 49.2878C111.612 49.2878 112.971 47.5897 112.971 44.5426V40.703H109.799V44.5426C109.799 45.1481 109.271 45.6395 108.618 45.6395C108.356 45.6395 108.094 45.6395 107.83 45.6395C107.178 45.6395 106.649 45.1481 106.649 44.5426V11.0379C106.649 10.4325 107.178 9.9421 107.83 9.9421C108.094 9.9421 108.356 9.9421 108.618 9.9421C109.271 9.9421 109.799 10.4325 109.799 11.0379V14.8786Z" fill="white"/>
<path fill-rule="evenodd" clip-rule="evenodd" d="M122.346 9.94203V6.2948H116.686V9.94203H116.748C117.4 9.94203 117.93 10.4335 117.93 11.0389V44.5436C117.93 45.149 117.4 45.6405 116.748 45.6405H116.686V49.2877H122.346V45.6405H122.283C121.63 45.6405 121.102 45.149 121.102 44.5436V25.1698L121.822 29.3315L125.165 49.2877H128.966V45.6269C128.292 45.5757 127.651 45.3561 127.529 44.6105L123.739 21.6627L127.278 10.9228C127.56 10.0685 128.218 9.95771 128.966 9.94412V6.2948H125.323L121.102 19.7073V11.0389C121.102 10.4335 121.63 9.94203 122.283 9.94203H122.346Z" fill="white"/>
<path fill-rule="evenodd" clip-rule="evenodd" d="M98.7935 9.94203V6.2948H94.3351L91.1428 29.274L87.9504 6.2948H83.4921V9.94203H83.5543C84.2075 9.94203 84.7363 10.4335 84.7363 11.0389V44.5436C84.7363 45.149 84.2075 45.6405 83.5543 45.6405H83.4921V49.2877H89.1521V45.6405H89.0888C88.4367 45.6405 87.9079 45.149 87.9079 44.5436L88.2314 26.5459L90.8639 47.2288H91.4123L94.0345 26.5459L94.3776 44.5436C94.3776 45.149 93.8489 45.6405 93.1957 45.6405H93.1335V49.2877H98.7935V45.6405H98.7302C98.0781 45.6405 97.5493 45.149 97.5493 44.5436V11.0389C97.5493 10.4335 98.0781 9.94203 98.7302 9.94203H98.7935Z" fill="white"/>
<path fill-rule="evenodd" clip-rule="evenodd" d="M49.0468 45.6405V49.2877H54.7068V45.6405H54.6436C53.9914 45.6405 53.4295 45.1396 53.4626 44.5248L54.093 32.9233H54.4652C55.1402 32.9233 55.8152 32.9233 56.4891 32.9233H56.8624L57.4917 44.5248C57.5249 45.1396 56.9629 45.6405 56.3108 45.6405H56.2486V49.2877H61.9086V45.6405H61.8453C61.1963 45.6405 60.6965 45.1543 60.6644 44.5614L58.8458 11.0567C58.8126 10.4418 59.3746 9.94203 60.0267 9.94203H60.089V6.2948C57.0148 6.2948 53.9396 6.2948 50.8654 6.2948V9.94203H50.9276C51.5798 9.94203 52.1428 10.4418 52.1085 11.0567L50.29 44.5614C50.2578 45.1543 49.7591 45.6405 49.109 45.6405H49.0468ZM56.6229 28.5086H56.2102C55.7219 28.5086 55.2335 28.5086 54.7452 28.5086H54.3325L55.2905 11.1111H55.6638L56.6229 28.5086Z" fill="white"/>
<path fill-rule="evenodd" clip-rule="evenodd" d="M65.8381 45.6405V49.2877H71.4981V45.6405H71.4359C70.7838 45.6405 70.2208 45.1407 70.255 44.5248L70.8843 32.9244H71.2576C71.9315 32.9244 72.6065 32.9244 73.2815 32.9244H73.6537L74.2841 44.5248C74.3173 45.1407 73.7553 45.6405 73.1031 45.6405H73.0399V49.2877H78.6999V45.6405H78.6377C77.9876 45.6405 77.4889 45.1543 77.4567 44.5624L75.6371 11.0567C75.604 10.4418 76.1659 9.94203 76.8181 9.94203H76.8813V6.2948C73.8061 6.2948 70.7319 6.2948 67.6567 6.2948V9.94203H67.72C68.3721 9.94203 68.9341 10.4418 68.9009 11.0567L67.0823 44.5624C67.0502 45.1543 66.5504 45.6405 65.9014 45.6405H65.8381ZM73.4142 28.5086H73.0015C72.5132 28.5086 72.0248 28.5086 71.5365 28.5086H71.1239L72.0829 11.1111H72.4551L73.4142 28.5086Z" fill="white"/>
<path fill-rule="evenodd" clip-rule="evenodd" d="M39.6719 45.6384V49.2877C41.5589 49.2877 43.4448 49.2877 45.3319 49.2877V45.6384H45.2697C44.6154 45.6384 44.0877 45.1501 44.0877 44.5436L44.0939 10.927C44.154 10.3676 44.6631 9.94204 45.2697 9.94204H45.3319V6.29272H40.0648C36.6589 6.29795 35.8076 8.13934 35.7713 11.0431C35.6293 22.219 34.89 33.3782 34.5935 44.5509C34.5738 45.3237 33.8294 45.6416 33.396 45.6384C32.749 45.6332 32.2296 45.1407 32.2296 44.5415V42.8162H30.0906C30.0481 45.6792 29.6251 49.2302 33.8449 49.2302C36.5614 49.2302 37.4614 46.6151 37.5702 44.5238C38.1488 33.3604 38.8704 22.2065 39.1389 11.0306C39.1731 9.60116 40.9098 9.57606 40.916 11.0347C40.9606 22.2044 40.916 33.373 40.916 44.5415C40.916 45.147 40.3862 45.6384 39.7351 45.6384H39.6719Z" fill="white"/>
<path fill-rule="evenodd" clip-rule="evenodd" d="M269.867 9.94203V6.2948H265.451V23.3368H262.301V6.2948H257.885V9.94203H257.948C258.6 9.94203 259.129 10.4324 259.129 11.0379V44.5436C259.129 45.149 258.6 45.6405 257.948 45.6405H257.885V49.2877H262.301V27.2852H265.451V49.2877H269.867V45.6405H269.805C269.152 45.6405 268.623 45.149 268.623 44.5436V11.0379C268.623 10.4324 269.152 9.94203 269.805 9.94203H269.867Z" fill="white"/>
<path fill-rule="evenodd" clip-rule="evenodd" d="M253.68 9.94203V6.2948H249.222L246.029 29.274L242.837 6.2948H238.379V9.94203H238.441C239.094 9.94203 239.623 10.4324 239.623 11.0379V44.5436C239.623 45.149 239.094 45.6405 238.441 45.6405H238.379V49.2877H244.039V45.6405H243.975C243.323 45.6405 242.794 45.149 242.794 44.5436L243.118 26.5459L245.75 47.2288H246.299L248.921 26.5459L249.264 44.5436C249.264 45.149 248.735 45.6405 248.082 45.6405H248.02V49.2877H253.68V45.6405H253.618C252.965 45.6405 252.436 45.149 252.436 44.5436V11.0379C252.436 10.4324 252.965 9.94203 253.618 9.94203H253.68Z" fill="white"/>
<path fill-rule="evenodd" clip-rule="evenodd" d="M233.371 11.039C233.371 7.99196 232.01 6.29382 228.623 6.29382C225.237 6.29382 223.877 7.99196 223.877 11.039V44.5426C223.877 47.5897 225.237 49.2878 228.623 49.2878C232.01 49.2878 233.371 47.5897 233.371 44.5426V11.039ZM229.017 45.6395C228.755 45.6395 228.492 45.6395 228.23 45.6395C227.578 45.6395 227.048 45.1481 227.048 44.5426V11.039C227.048 10.4335 227.578 9.9421 228.23 9.9421C228.492 9.9421 228.755 9.9421 229.017 9.9421C229.669 9.9421 230.199 10.4335 230.199 11.039V44.5426C230.199 45.1481 229.669 45.6395 229.017 45.6395Z" fill="white"/>
<path fill-rule="evenodd" clip-rule="evenodd" d="M188.684 45.6405V49.2877H194.344V45.6405H194.281C193.628 45.6405 193.066 45.1407 193.1 44.5248L193.73 32.9233H194.102C194.777 32.9233 195.452 32.9233 196.126 32.9233H196.499L197.129 44.5248C197.163 45.1407 196.6 45.6405 195.948 45.6405H195.886V49.2877H201.546V45.6405H201.482C200.833 45.6405 200.333 45.1543 200.301 44.5624L198.483 11.0567C198.45 10.4418 199.012 9.94203 199.664 9.94203H199.726V6.2948C196.652 6.2948 193.577 6.2948 190.502 6.2948V9.94203H190.565C191.217 9.94203 191.78 10.4418 191.745 11.0567L189.927 44.5624C189.895 45.1543 189.396 45.6405 188.746 45.6405H188.684ZM196.26 28.5086H195.847C195.359 28.5086 194.87 28.5086 194.382 28.5086H193.969L194.928 11.1111H195.301L196.26 28.5086Z" fill="white"/>
<path fill-rule="evenodd" clip-rule="evenodd" d="M185.37 9.94203V6.2948C181.376 6.2948 177.381 6.2948 173.388 6.2948V9.94203H173.451C174.103 9.94203 174.632 10.4324 174.632 11.0379V44.5436C174.632 45.149 174.103 45.6405 173.451 45.6405H173.388V49.2877H177.803V10.2432H180.954V49.2877H185.37V45.6405H185.307C184.655 45.6405 184.126 45.149 184.126 44.5436V11.0379C184.126 10.4324 184.655 9.94203 185.307 9.94203H185.37Z" fill="white"/>
<path fill-rule="evenodd" clip-rule="evenodd" d="M214.257 45.6384V49.2877C216.143 49.2877 218.03 49.2877 219.917 49.2877V45.6384H219.854C219.2 45.6384 218.673 45.1501 218.673 44.5436L218.678 10.927C218.739 10.3676 219.248 9.94204 219.854 9.94204H219.917V6.29272H214.65C211.243 6.29795 210.393 8.13934 210.355 11.0431C210.213 22.219 209.474 33.3782 209.179 44.5509C209.158 45.3237 208.413 45.6416 207.98 45.6384C207.334 45.6332 206.815 45.1407 206.815 44.5415V42.8162H204.675C204.633 45.6792 204.209 49.2302 208.43 49.2302C211.145 49.2302 212.046 46.6151 212.154 44.5238C212.734 33.3604 213.454 22.2054 213.723 11.0306C213.758 9.60116 215.495 9.57606 215.501 11.0347C215.546 22.2044 215.501 33.373 215.501 44.5415C215.501 45.147 214.971 45.6384 214.319 45.6384H214.257Z" fill="white"/>
<path fill-rule="evenodd" clip-rule="evenodd" d="M297.38 9.94203V6.2948H291.72V9.94203H291.782C292.435 9.94203 292.964 10.4324 292.964 11.0379V44.5436C292.964 45.149 292.435 45.6405 291.782 45.6405H291.72V49.2877H297.38V45.6405H297.318C296.665 45.6405 296.136 45.149 296.136 44.5436V25.1698L296.856 29.3315L300.199 49.2877H304V45.6269C303.326 45.5757 302.685 45.3561 302.563 44.6105L298.773 21.6627L302.312 10.9228C302.594 10.0685 303.252 9.95771 304 9.94412V6.2948H300.357L296.136 19.7073V11.0379C296.136 10.4324 296.665 9.94203 297.318 9.94203H297.38Z" fill="white"/>
<path fill-rule="evenodd" clip-rule="evenodd" d="M287.005 9.94203V6.2948H282.59L278.459 36.2359V6.2948H274.043V9.94203H274.105C274.757 9.94203 275.287 10.4324 275.287 11.0379V44.5436C275.287 45.149 274.757 45.6405 274.105 45.6405H274.043V49.2877H278.459L282.59 19.3466V49.2877H287.005V45.6405H286.943C286.291 45.6405 285.761 45.149 285.761 44.5436V11.0379C285.761 10.4324 286.291 9.94203 286.943 9.94203H287.005Z" fill="white"/>
<path fill-rule="evenodd" clip-rule="evenodd" d="M145.727 9.94203V6.2948H141.311L137.181 36.2359V6.2948H132.765V9.94203H132.827C133.479 9.94203 134.009 10.4324 134.009 11.0379V44.5436C134.009 45.149 133.479 45.6405 132.827 45.6405H132.765V49.2877H137.181L141.311 19.3466V49.2877H145.727V45.6405H145.665C145.012 45.6405 144.483 45.149 144.483 44.5436V11.0379C144.483 10.4324 145.012 9.94203 145.665 9.94203H145.727Z" fill="white"/>
<path d="M9.43197 66.8515H8.00323V58.1193H13.6746V66.8515H12.2511V59.5905H9.43197V66.8515ZM21.5472 66.8515H19.9889L19.3678 64.8669H16.5332L15.9484 66.8515H14.4243L17.1884 58.1193H18.7063L21.5472 66.8515ZM18.9075 63.3967L17.9318 60.1562L16.9707 63.3967H18.9075ZM26.3612 66.8515V59.5905H24.2347V63.3256C24.2347 64.298 24.2056 65.0175 24.1496 65.4849C24.0926 65.9512 23.9516 66.3046 23.7297 66.5483C23.5089 66.7909 23.146 66.9101 22.6452 66.9101C22.5001 66.9101 22.2004 66.8923 21.7421 66.8515V65.4754H22.0553C22.3632 65.4754 22.5654 65.4242 22.6618 65.3249C22.7582 65.2224 22.8049 64.9704 22.8049 64.5699V58.1193H27.791V66.8515H26.3612ZM28.9906 62.5393C28.9906 61.4978 29.1409 60.6425 29.4478 59.9691C29.7526 59.2957 30.1518 58.7937 30.6433 58.4644C31.1357 58.135 31.7319 57.9708 32.4338 57.9708C33.4499 57.9708 34.2763 58.3608 34.917 59.144C35.5567 59.9262 35.8771 61.0409 35.8771 62.4859C35.8771 63.9457 35.5381 65.0886 34.861 65.9104C34.2659 66.6382 33.4603 67 32.4401 67C31.4115 67 30.6007 66.6403 30.0066 65.9219C29.3286 65.1011 28.9906 63.9729 28.9906 62.5393ZM30.466 62.4797C30.466 63.4845 30.6557 64.2364 31.0321 64.7393C31.4115 65.2412 31.8791 65.4932 32.4401 65.4932C33.002 65.4932 33.4676 65.2433 33.8387 64.7456C34.2099 64.2468 34.3934 63.4824 34.3934 62.4493C34.3934 61.4372 34.2141 60.6885 33.8533 60.2033C33.4945 59.7191 33.0217 59.4766 32.4401 59.4766C31.8574 59.4766 31.3815 59.7212 31.0165 60.2085C30.6495 60.6989 30.466 61.4549 30.466 62.4797ZM36.9762 66.8515V58.1193H39.1193L40.407 64.0764L41.6833 58.1193H43.8327V66.8515H42.5034V59.9774L41.0923 66.8515H39.7092L38.3105 59.9774V66.8515H36.9762ZM45.2614 66.8515V58.1193H46.6912V61.5553H49.5041V58.1193H50.939V66.8515H49.5041V63.0328H46.6912V66.8515H45.2614ZM52.4206 66.8515V58.1193H53.7861V63.9383L56.6561 58.1193H58.0921V66.8515H56.7276V61.1569L53.8629 66.8515H52.4206ZM59.4327 61.2395V58.1193H60.8624V60.4365C60.8624 60.9206 60.8821 61.2803 60.9246 61.5166C60.9651 61.754 61.0822 61.9537 61.2709 62.1158C61.4628 62.2789 61.7614 62.3605 62.1668 62.3605C62.7733 62.3605 63.2575 62.2015 63.6204 61.8847V58.1193H65.0491V66.8515H63.6204V63.3361C63.0574 63.6477 62.4913 63.8014 61.9241 63.8014C61.1382 63.8014 60.5255 63.5776 60.0879 63.1311C59.6504 62.6857 59.4327 62.0551 59.4327 61.2395ZM66.5255 66.8515V58.1193H71.7957V59.5968H67.9543V61.5323H71.523V63.0025H67.9543V65.3793H71.9243V66.8515H66.5255ZM77.6817 63.6414L79.0711 64.182C78.8533 65.1597 78.4946 65.8738 77.9907 66.3245C77.4868 66.7742 76.8658 67 76.1296 67C75.2048 67 74.4541 66.6403 73.8797 65.9219C73.2161 65.0927 72.8854 63.9729 72.8854 62.5633C72.8854 61.0733 73.2182 59.9084 73.8859 59.0667C74.4645 58.3368 75.2411 57.9708 76.2188 57.9708C77.013 57.9708 77.6786 58.2448 78.2147 58.7917C78.5952 59.1827 78.8762 59.7599 79.0535 60.5264L77.6361 60.9426C77.5449 60.4689 77.3655 60.1071 77.0959 59.8551C76.8253 59.6031 76.507 59.4766 76.1421 59.4766C75.6174 59.4766 75.1903 59.7066 74.8595 60.1688C74.5288 60.6278 74.3639 61.388 74.3639 62.4493C74.3639 63.5494 74.5246 64.3326 74.8481 64.7958C75.1706 65.2611 75.5894 65.4932 76.1058 65.4932C76.4842 65.4932 76.8108 65.3447 77.0856 65.0499C77.3614 64.7529 77.5615 64.2834 77.6817 63.6414ZM80.3236 66.8515V58.1193H81.7523V61.8355C82.0716 61.7969 82.2925 61.6871 82.4138 61.5124C82.5372 61.3357 82.6979 60.9081 82.898 60.2336C83.0991 59.5581 83.3086 59.0667 83.5242 58.7592C83.7409 58.4518 83.9721 58.2636 84.2158 58.1956C84.4605 58.1287 84.8793 58.0827 85.4745 58.0534V59.3636H85.2723C84.8669 59.3636 84.5932 59.4588 84.448 59.648C84.3049 59.8352 84.1577 60.2012 84.0063 60.7397C83.855 61.2803 83.7243 61.64 83.6155 61.8178C83.5087 61.9966 83.3335 62.1733 83.0929 62.3479C83.4081 62.4797 83.6663 62.6919 83.8633 62.9868C84.0634 63.2796 84.3029 63.771 84.5807 64.4622L85.5512 66.8515H83.8674L83.011 64.595C82.7953 64.0168 82.6077 63.6163 82.4521 63.3873C82.2966 63.1593 82.0633 63.0412 81.7523 63.0328V66.8515H80.3236ZM92.7561 66.8515H91.1977L90.5767 64.8669H87.742L87.1572 66.8515H85.6331L88.3973 58.1193H89.9152L92.7561 66.8515ZM90.1174 63.3967L89.1417 60.1562L88.1796 63.3967H90.1174ZM99.2258 66.8515V58.1193H96.2077C95.4352 58.1193 94.8836 58.1977 94.5529 58.3546C94.2221 58.5114 93.9495 58.7833 93.7379 59.1702C93.5264 59.5581 93.4196 60.0224 93.4196 60.5609C93.4196 61.2437 93.5803 61.7948 93.9059 62.212C94.2325 62.6281 94.6939 62.8906 95.2901 62.9962C94.9842 63.22 94.7302 63.4626 94.5301 63.7261C94.3289 63.9906 94.0542 64.4643 93.7079 65.1482L92.8473 66.8515H94.5529L95.5928 64.9505C95.9661 64.2656 96.2201 63.8338 96.3549 63.6612C96.4876 63.4887 96.6307 63.3706 96.78 63.3036C96.9293 63.2388 97.1698 63.2064 97.4995 63.2064H97.7961V66.8515H99.2258ZM97.7961 61.8115H96.7323C96.0832 61.8115 95.6695 61.7833 95.4922 61.7257C95.3149 61.6693 95.1719 61.5532 95.0609 61.3786C94.9521 61.2029 94.895 60.9697 94.895 60.6811C94.895 60.402 94.9521 60.1782 95.0609 60.0098C95.1719 59.8415 95.3212 59.7254 95.5099 59.6616C95.6436 59.6177 96.0324 59.5968 96.6732 59.5968H97.7961V61.8115ZM107.978 63.6414L109.367 64.182C109.149 65.1597 108.789 65.8738 108.286 66.3245C107.782 66.7742 107.161 67 106.426 67C105.5 67 104.75 66.6403 104.176 65.9219C103.512 65.0927 103.181 63.9729 103.181 62.5633C103.181 61.0733 103.514 59.9084 104.181 59.0667C104.759 58.3368 105.536 57.9708 106.514 57.9708C107.308 57.9708 107.974 58.2448 108.51 58.7917C108.891 59.1827 109.171 59.7599 109.348 60.5264L107.931 60.9426C107.841 60.4689 107.661 60.1071 107.391 59.8551C107.12 59.6031 106.802 59.4766 106.437 59.4766C105.913 59.4766 105.486 59.7066 105.155 60.1688C104.825 60.6278 104.659 61.388 104.659 62.4493C104.659 63.5494 104.821 64.3326 105.143 64.7958C105.465 65.2611 105.884 65.4932 106.401 65.4932C106.78 65.4932 107.107 65.3447 107.38 65.0499C107.657 64.7529 107.856 64.2834 107.978 63.6414ZM114.646 66.8515V59.5905H112.52V63.3256C112.52 64.298 112.491 65.0175 112.435 65.4849C112.379 65.9512 112.237 66.3046 112.016 66.5483C111.794 66.7909 111.431 66.9101 110.931 66.9101C110.785 66.9101 110.486 66.8923 110.027 66.8515V65.4754H110.341C110.648 65.4754 110.851 65.4242 110.947 65.3249C111.044 65.2224 111.09 64.9704 111.09 64.5699V58.1193H116.076V66.8515H114.646ZM119.449 64.3848L116.838 58.1193H118.444L120.092 62.6532L121.522 58.1193H123.005L120.612 64.755C120.318 65.5643 120.032 66.1342 119.755 66.4657C119.481 66.7951 119.148 66.9592 118.764 66.9592C118.392 66.9592 118.062 66.9226 117.771 66.8515V65.5466C118.008 65.5622 118.187 65.5706 118.31 65.5706C118.655 65.5706 118.898 65.4974 119.037 65.351C119.178 65.2025 119.315 64.8815 119.449 64.3848ZM126.803 58.1193H128.169V61.8355C128.426 61.8094 128.618 61.6912 128.741 61.4884C128.861 61.2824 129.044 60.7909 129.283 60.0077C129.523 59.2246 129.791 58.7049 130.088 58.4466C130.382 58.1883 130.948 58.0576 131.787 58.0534V59.3636H131.582C131.176 59.3636 130.902 59.4588 130.761 59.648C130.618 59.8352 130.464 60.2232 130.297 60.8108C130.13 61.3985 129.985 61.7707 129.862 61.9286C129.741 62.0855 129.588 62.2256 129.403 62.3479C129.674 62.4598 129.915 62.6512 130.122 62.923C130.331 63.1959 130.588 63.7083 130.89 64.4622L131.86 66.8515H130.176L129.32 64.595C129.126 64.0868 128.946 63.6937 128.781 63.4197C128.616 63.1468 128.412 63.0171 128.169 63.0328V66.8515H126.803V63.0328C126.585 63.0255 126.398 63.1311 126.239 63.3528C126.079 63.5724 125.887 63.9864 125.656 64.595L124.795 66.8515H123.112L124.079 64.4622C124.364 63.771 124.604 63.2796 124.803 62.9868C125.003 62.6919 125.257 62.4797 125.567 62.3479C125.328 62.1733 125.157 61.9997 125.051 61.8293C124.946 61.6588 124.814 61.2908 124.651 60.7209C124.487 60.1541 124.327 59.7798 124.173 59.5989C124.015 59.418 123.689 59.3406 123.189 59.3636V58.0534C124.023 58.0461 124.59 58.1779 124.886 58.4508C125.185 58.7206 125.452 59.2455 125.693 60.0203C125.932 60.7941 126.114 61.2845 126.237 61.4894C126.357 61.6975 126.547 61.8115 126.803 61.8355V58.1193ZM132.72 66.8515V58.1193H138.031V59.5905H134.15V61.5919H136.182C136.951 61.5919 137.553 61.8335 137.988 62.3155C138.426 62.7975 138.646 63.4354 138.646 64.2311C138.646 64.9223 138.458 65.5319 138.087 66.0589C137.715 66.587 137.079 66.8515 136.182 66.8515H132.72ZM134.15 63.0694V65.373H135.662C136.055 65.373 136.339 65.3468 136.515 65.2946C136.69 65.2412 136.844 65.1147 136.976 64.9223C137.107 64.7268 137.175 64.5009 137.175 64.2426C137.175 63.4605 136.69 63.0694 135.721 63.0694H134.15ZM146.228 66.8515H144.67L144.049 64.8669H141.214L140.629 66.8515H139.105L141.869 58.1193H143.387L146.228 66.8515ZM143.589 63.3967L142.614 60.1562L141.652 63.3967H143.589ZM149.742 58.1193H152.585C153.359 58.1193 153.906 58.1904 154.22 58.3347C154.534 58.4769 154.8 58.7289 155.018 59.0907C155.234 59.4504 155.343 59.8614 155.343 60.3173C155.343 60.7376 155.25 61.1182 155.065 61.457C154.879 61.7969 154.639 62.0489 154.344 62.212C154.766 62.3626 155.095 62.6208 155.332 62.9868C155.573 63.3507 155.691 63.7951 155.691 64.32C155.691 64.9547 155.539 65.4932 155.236 65.9303C154.933 66.3695 154.574 66.6403 154.162 66.7438C153.874 66.8149 153.206 66.8515 152.16 66.8515H149.742V58.1193ZM151.172 59.5728V61.5919H152.117C152.683 61.5919 153.035 61.5815 153.17 61.5605C153.413 61.5229 153.603 61.4183 153.742 61.25C153.879 61.0816 153.947 60.8516 153.947 60.5609C153.947 60.3026 153.893 60.0935 153.78 59.9325C153.667 59.7714 153.532 59.6721 153.373 59.6313C153.214 59.5926 152.756 59.5728 152 59.5728H151.172ZM151.172 63.0454V65.3793H152.502C153.085 65.3793 153.458 65.3489 153.623 65.2883C153.789 65.2266 153.927 65.1053 154.04 64.9244C154.151 64.7435 154.207 64.5155 154.207 64.2364C154.207 63.9498 154.147 63.7167 154.028 63.5316C153.908 63.3465 153.748 63.2179 153.55 63.1489C153.351 63.0799 152.944 63.0454 152.331 63.0454H151.172ZM163.304 66.8515H161.746L161.125 64.8669H158.29L157.706 66.8515H156.182L158.946 58.1193H160.464L163.304 66.8515ZM160.665 63.3967L159.689 60.1562L158.728 63.3967H160.665ZM168.118 66.8515V59.5905H165.992V63.3256C165.992 64.298 165.963 65.0175 165.907 65.4849C165.85 65.9512 165.709 66.3046 165.488 66.5483C165.266 66.7909 164.903 66.9101 164.402 66.9101C164.257 66.9101 163.958 66.8923 163.499 66.8515V65.4754H163.813C164.12 65.4754 164.323 65.4242 164.419 65.3249C164.515 65.2224 164.562 64.9704 164.562 64.5699V58.1193H169.548V66.8515H168.118ZM177.433 66.8515H175.874L175.254 64.8669H172.419L171.834 66.8515H170.31L173.074 58.1193H174.592L177.433 66.8515ZM174.793 63.3967L173.818 60.1562L172.857 63.3967H174.793ZM184.591 66.8515H183.033L182.412 64.8669H179.577L178.994 66.8515H177.47L180.233 58.1193H181.752L184.591 66.8515ZM181.953 63.3967L180.977 60.1562L180.015 63.3967H181.953ZM185.332 66.8515V58.1193H187.475L188.763 64.0764L190.039 58.1193H192.188V66.8515H190.86V59.9774L189.448 66.8515H188.066L186.666 59.9774V66.8515H185.332ZM198.16 63.6414L199.549 64.182C199.331 65.1597 198.972 65.8738 198.468 66.3245C197.964 66.7742 197.343 67 196.607 67C195.682 67 194.933 66.6403 194.357 65.9219C193.695 65.0927 193.364 63.9729 193.364 62.5633C193.364 61.0733 193.697 59.9084 194.363 59.0667C194.942 58.3368 195.719 57.9708 196.696 57.9708C197.491 57.9708 198.156 58.2448 198.692 58.7917C199.073 59.1827 199.354 59.7599 199.531 60.5264L198.114 60.9426C198.022 60.4689 197.843 60.1071 197.573 59.8551C197.303 59.6031 196.985 59.4766 196.62 59.4766C196.095 59.4766 195.668 59.7066 195.337 60.1688C195.006 60.6278 194.841 61.388 194.841 62.4493C194.841 63.5494 195.003 64.3326 195.326 64.7958C195.648 65.2611 196.067 65.4932 196.583 65.4932C196.963 65.4932 197.289 65.3447 197.563 65.0499C197.839 64.7529 198.039 64.2834 198.16 63.6414ZM200.801 66.8515V58.1193H202.23V61.8355C202.549 61.7969 202.771 61.6871 202.891 61.5124C203.015 61.3357 203.175 60.9081 203.376 60.2336C203.577 59.5581 203.787 59.0667 204.003 58.7592C204.218 58.4518 204.45 58.2636 204.694 58.1956C204.938 58.1287 205.357 58.0827 205.952 58.0534V59.3636H205.75C205.345 59.3636 205.071 59.4588 204.926 59.648C204.782 59.8352 204.635 60.2012 204.484 60.7397C204.333 61.2803 204.202 61.64 204.093 61.8178C203.986 61.9966 203.811 62.1733 203.57 62.3479C203.886 62.4797 204.144 62.6919 204.341 62.9868C204.541 63.2796 204.78 63.771 205.058 64.4622L206.029 66.8515H204.345L203.489 64.595C203.273 64.0168 203.085 63.6163 202.93 63.3873C202.774 63.1593 202.541 63.0412 202.23 63.0328V66.8515H200.801ZM206.548 62.5393C206.548 61.4978 206.7 60.6425 207.006 59.9691C207.31 59.2957 207.709 58.7937 208.202 58.4644C208.693 58.135 209.291 57.9708 209.993 57.9708C211.009 57.9708 211.835 58.3608 212.476 59.144C213.115 59.9262 213.436 61.0409 213.436 62.4859C213.436 63.9457 213.097 65.0886 212.42 65.9104C211.825 66.6382 211.018 67 209.998 67C208.97 67 208.159 66.6403 207.564 65.9219C206.887 65.1011 206.548 63.9729 206.548 62.5393ZM208.025 62.4797C208.025 63.4845 208.214 64.2364 208.591 64.7393C208.97 65.2412 209.438 65.4932 209.998 65.4932C210.561 65.4932 211.026 65.2433 211.397 64.7456C211.769 64.2468 211.952 63.4824 211.952 62.4493C211.952 61.4372 211.773 60.6885 211.411 60.2033C211.052 59.7191 210.58 59.4766 209.998 59.4766C209.416 59.4766 208.94 59.7212 208.575 60.2085C208.208 60.6989 208.025 61.4549 208.025 62.4797ZM214.58 66.8515V58.1904H219.579V59.6679H216.01V66.8515H214.58ZM220.233 62.5393C220.233 61.4978 220.385 60.6425 220.691 59.9691C220.995 59.2957 221.394 58.7937 221.887 58.4644C222.378 58.135 222.976 57.9708 223.678 57.9708C224.694 57.9708 225.52 58.3608 226.161 59.144C226.8 59.9262 227.121 61.0409 227.121 62.4859C227.121 63.9457 226.782 65.0886 226.105 65.9104C225.51 66.6382 224.703 67 223.684 67C222.655 67 221.844 66.6403 221.25 65.9219C220.572 65.1011 220.233 63.9729 220.233 62.5393ZM221.71 62.4797C221.71 63.4845 221.899 64.2364 222.276 64.7393C222.655 65.2412 223.123 65.4932 223.684 65.4932C224.246 65.4932 224.711 65.2433 225.082 64.7456C225.454 64.2468 225.637 63.4824 225.637 62.4493C225.637 61.4372 225.458 60.6885 225.097 60.2033C224.737 59.7191 224.265 59.4766 223.684 59.4766C223.101 59.4766 222.625 59.7212 222.26 60.2085C221.893 60.6989 221.71 61.4549 221.71 62.4797ZM230.978 66.8515V58.1193H233.121L234.409 64.0764L235.685 58.1193H237.834V66.8515H236.505V59.9774L235.094 66.8515H233.711L232.312 59.9774V66.8515H230.978ZM238.975 62.5393C238.975 61.4978 239.126 60.6425 239.433 59.9691C239.737 59.2957 240.136 58.7937 240.629 58.4644C241.12 58.135 241.717 57.9708 242.418 57.9708C243.434 57.9708 244.262 58.3608 244.902 59.144C245.541 59.9262 245.862 61.0409 245.862 62.4859C245.862 63.9457 245.523 65.0886 244.846 65.9104C244.251 66.6382 243.444 67 242.424 67C241.397 67 240.586 66.6403 239.991 65.9219C239.314 65.1011 238.975 63.9729 238.975 62.5393ZM240.451 62.4797C240.451 63.4845 240.64 64.2364 241.017 64.7393C241.397 65.2412 241.864 65.4932 242.424 65.4932C242.987 65.4932 243.453 65.2433 243.824 64.7456C244.194 64.2468 244.378 63.4824 244.378 62.4493C244.378 61.4372 244.198 60.6885 243.837 60.2033C243.479 59.7191 243.007 59.4766 242.424 59.4766C241.842 59.4766 241.366 59.7212 241.001 60.2085C240.635 60.6989 240.451 61.4549 240.451 62.4797ZM246.983 66.8515V58.1193H248.412V61.5553H251.225V58.1193H252.66V66.8515H251.225V63.0328H248.412V66.8515H246.983ZM260.539 66.8515H258.98L258.359 64.8669H255.525L254.94 66.8515H253.416L256.18 58.1193H257.698L260.539 66.8515ZM257.9 63.3967L256.924 60.1562L255.962 63.3967H257.9ZM265.843 63.6414L267.232 64.182C267.015 65.1597 266.656 65.8738 266.152 66.3245C265.647 66.7742 265.027 67 264.291 67C263.365 67 262.615 66.6403 262.041 65.9219C261.377 65.0927 261.047 63.9729 261.047 62.5633C261.047 61.0733 261.379 59.9084 262.047 59.0667C262.626 58.3368 263.401 57.9708 264.379 57.9708C265.174 57.9708 265.839 58.2448 266.375 58.7917C266.756 59.1827 267.036 59.7599 267.214 60.5264L265.796 60.9426C265.706 60.4689 265.527 60.1071 265.256 59.8551C264.987 59.6031 264.667 59.4766 264.303 59.4766C263.779 59.4766 263.351 59.7066 263.021 60.1688C262.69 60.6278 262.525 61.388 262.525 62.4493C262.525 63.5494 262.686 64.3326 263.008 64.7958C263.331 65.2611 263.751 65.4932 264.267 65.4932C264.645 65.4932 264.972 65.3447 265.247 65.0499C265.523 64.7529 265.722 64.2834 265.843 63.6414ZM270.055 66.8515V59.5968H267.946V58.1193H273.587V59.5968H271.484V66.8515H270.055ZM274.544 66.8515V58.1193H275.974V61.5919H278.006C278.762 61.5919 279.361 61.8376 279.804 62.328C280.247 62.8174 280.469 63.4647 280.469 64.2677C280.469 64.9223 280.29 65.5162 279.931 66.0506C279.573 66.5849 278.935 66.8515 278.018 66.8515H274.544ZM275.974 63.0694V65.373H277.485C277.879 65.373 278.163 65.3468 278.339 65.2946C278.514 65.2412 278.667 65.1126 278.8 64.916C278.932 64.7163 278.998 64.4894 278.998 64.2311C278.998 63.4563 278.514 63.0694 277.545 63.0694H275.974ZM281.609 66.8515V58.1193H283.038V66.8515H281.609ZM284.407 66.8515V58.1193H286.711C287.571 58.1193 288.13 58.1611 288.395 58.2448C288.816 58.3786 289.163 58.6683 289.437 59.1074C289.712 59.5487 289.848 60.1154 289.848 60.8108C289.848 61.4434 289.729 61.9715 289.494 62.3991C289.257 62.8258 288.961 63.1248 288.606 63.2974C288.254 63.4699 287.643 63.5577 286.775 63.5577H285.836V66.8515H284.407ZM285.836 59.5968V62.074H286.629C287.161 62.074 287.522 62.0374 287.714 61.9621C287.902 61.8868 288.06 61.7498 288.181 61.5532C288.304 61.3556 288.365 61.1161 288.365 60.8296C288.365 60.54 288.302 60.2943 288.177 60.0977C288.05 59.898 287.895 59.7662 287.709 59.6961C287.524 59.6292 287.133 59.5968 286.534 59.5968H285.836ZM296.735 66.8515V58.1193H293.717C292.945 58.1193 292.393 58.1977 292.062 58.3546C291.731 58.5114 291.459 58.7833 291.247 59.1702C291.036 59.5581 290.929 60.0224 290.929 60.5609C290.929 61.2437 291.091 61.7948 291.415 62.212C291.742 62.6281 292.203 62.8906 292.8 62.9962C292.493 63.22 292.239 63.4626 292.039 63.7261C291.838 63.9906 291.564 64.4643 291.217 65.1482L290.357 66.8515H292.062L293.102 64.9505C293.475 64.2656 293.729 63.8338 293.864 63.6612C293.998 63.4887 294.141 63.3706 294.289 63.3036C294.438 63.2388 294.679 63.2064 295.01 63.2064H295.305V66.8515H296.735ZM295.305 61.8115H294.241C293.592 61.8115 293.179 61.7833 293.001 61.7257C292.824 61.6693 292.681 61.5532 292.57 61.3786C292.461 61.2029 292.404 60.9697 292.404 60.6811C292.404 60.402 292.461 60.1782 292.57 60.0098C292.681 59.8415 292.83 59.7254 293.019 59.6616C293.153 59.6177 293.542 59.5968 294.182 59.5968H295.305V61.8115Z" fill="white"/>
</g>
<defs>
<clipPath id="clip0_177_1763">
<rect width="304" height="67" fill="white"/>
</clipPath>
</defs>
</svg>
